G04 #@! TF.GenerationSoftware,KiCad,Pcbnew,(5.1.5)-3*
G04 #@! TF.CreationDate,2021-06-12T19:59:44-04:00*
G04 #@! TF.ProjectId,royerPSU,726f7965-7250-4535-952e-6b696361645f,rev?*
G04 #@! TF.SameCoordinates,Original*
G04 #@! TF.FileFunction,Legend,Top*
G04 #@! TF.FilePolarity,Positive*
%FSLAX46Y46*%
G04 Gerber Fmt 4.6, Leading zero omitted, Abs format (unit mm)*
G04 Created by KiCad (PCBNEW (5.1.5)-3) date 2021-06-12 19:59:44*
%MOMM*%
%LPD*%
G04 APERTURE LIST*
%ADD10C,0.300000*%
%ADD11C,0.120000*%
%ADD12C,0.203200*%
%ADD13C,0.127000*%
%ADD14C,0.200000*%
%ADD15C,0.100000*%
%ADD16C,0.150000*%
%ADD17C,0.015000*%
G04 APERTURE END LIST*
D10*
X130201428Y-131753571D02*
X130201428Y-133253571D01*
X130201428Y-131825000D02*
X130344285Y-131753571D01*
X130629999Y-131753571D01*
X130772857Y-131825000D01*
X130844285Y-131896428D01*
X130915714Y-132039285D01*
X130915714Y-132467857D01*
X130844285Y-132610714D01*
X130772857Y-132682142D01*
X130629999Y-132753571D01*
X130344285Y-132753571D01*
X130201428Y-132682142D01*
X131558571Y-132753571D02*
X131558571Y-131753571D01*
X131558571Y-131253571D02*
X131487142Y-131325000D01*
X131558571Y-131396428D01*
X131629999Y-131325000D01*
X131558571Y-131253571D01*
X131558571Y-131396428D01*
X132272857Y-131753571D02*
X132272857Y-132753571D01*
X132272857Y-131896428D02*
X132344285Y-131825000D01*
X132487142Y-131753571D01*
X132701428Y-131753571D01*
X132844285Y-131825000D01*
X132915714Y-131967857D01*
X132915714Y-132753571D01*
X135558571Y-132753571D02*
X134701428Y-132753571D01*
X135130000Y-132753571D02*
X135130000Y-131253571D01*
X134987142Y-131467857D01*
X134844285Y-131610714D01*
X134701428Y-131682142D01*
X137130000Y-131753571D02*
X137701428Y-131753571D01*
X137344285Y-131253571D02*
X137344285Y-132539285D01*
X137415714Y-132682142D01*
X137558571Y-132753571D01*
X137701428Y-132753571D01*
X138415714Y-132753571D02*
X138272857Y-132682142D01*
X138201428Y-132610714D01*
X138130000Y-132467857D01*
X138130000Y-132039285D01*
X138201428Y-131896428D01*
X138272857Y-131825000D01*
X138415714Y-131753571D01*
X138630000Y-131753571D01*
X138772857Y-131825000D01*
X138844285Y-131896428D01*
X138915714Y-132039285D01*
X138915714Y-132467857D01*
X138844285Y-132610714D01*
X138772857Y-132682142D01*
X138630000Y-132753571D01*
X138415714Y-132753571D01*
X141344285Y-132682142D02*
X141201428Y-132753571D01*
X140915714Y-132753571D01*
X140772857Y-132682142D01*
X140701428Y-132610714D01*
X140630000Y-132467857D01*
X140630000Y-132039285D01*
X140701428Y-131896428D01*
X140772857Y-131825000D01*
X140915714Y-131753571D01*
X141201428Y-131753571D01*
X141344285Y-131825000D01*
X141987142Y-132753571D02*
X141987142Y-131253571D01*
X142630000Y-132753571D02*
X142630000Y-131967857D01*
X142558571Y-131825000D01*
X142415714Y-131753571D01*
X142201428Y-131753571D01*
X142058571Y-131825000D01*
X141987142Y-131896428D01*
X143987142Y-132753571D02*
X143987142Y-131967857D01*
X143915714Y-131825000D01*
X143772857Y-131753571D01*
X143487142Y-131753571D01*
X143344285Y-131825000D01*
X143987142Y-132682142D02*
X143844285Y-132753571D01*
X143487142Y-132753571D01*
X143344285Y-132682142D01*
X143272857Y-132539285D01*
X143272857Y-132396428D01*
X143344285Y-132253571D01*
X143487142Y-132182142D01*
X143844285Y-132182142D01*
X143987142Y-132110714D01*
X144630000Y-132682142D02*
X144772857Y-132753571D01*
X145058571Y-132753571D01*
X145201428Y-132682142D01*
X145272857Y-132539285D01*
X145272857Y-132467857D01*
X145201428Y-132325000D01*
X145058571Y-132253571D01*
X144844285Y-132253571D01*
X144701428Y-132182142D01*
X144630000Y-132039285D01*
X144630000Y-131967857D01*
X144701428Y-131825000D01*
X144844285Y-131753571D01*
X145058571Y-131753571D01*
X145201428Y-131825000D01*
X145844285Y-132682142D02*
X145987142Y-132753571D01*
X146272857Y-132753571D01*
X146415714Y-132682142D01*
X146487142Y-132539285D01*
X146487142Y-132467857D01*
X146415714Y-132325000D01*
X146272857Y-132253571D01*
X146058571Y-132253571D01*
X145915714Y-132182142D01*
X145844285Y-132039285D01*
X145844285Y-131967857D01*
X145915714Y-131825000D01*
X146058571Y-131753571D01*
X146272857Y-131753571D01*
X146415714Y-131825000D01*
X147130000Y-132753571D02*
X147130000Y-131753571D01*
X147130000Y-131253571D02*
X147058571Y-131325000D01*
X147130000Y-131396428D01*
X147201428Y-131325000D01*
X147130000Y-131253571D01*
X147130000Y-131396428D01*
X147772857Y-132682142D02*
X147915714Y-132753571D01*
X148201428Y-132753571D01*
X148344285Y-132682142D01*
X148415714Y-132539285D01*
X148415714Y-132467857D01*
X148344285Y-132325000D01*
X148201428Y-132253571D01*
X147987142Y-132253571D01*
X147844285Y-132182142D01*
X147772857Y-132039285D01*
X147772857Y-131967857D01*
X147844285Y-131825000D01*
X147987142Y-131753571D01*
X148201428Y-131753571D01*
X148344285Y-131825000D01*
X150844285Y-132682142D02*
X150701428Y-132753571D01*
X150415714Y-132753571D01*
X150272857Y-132682142D01*
X150201428Y-132610714D01*
X150129999Y-132467857D01*
X150129999Y-132039285D01*
X150201428Y-131896428D01*
X150272857Y-131825000D01*
X150415714Y-131753571D01*
X150701428Y-131753571D01*
X150844285Y-131825000D01*
X151701428Y-132753571D02*
X151558571Y-132682142D01*
X151487142Y-132610714D01*
X151415714Y-132467857D01*
X151415714Y-132039285D01*
X151487142Y-131896428D01*
X151558571Y-131825000D01*
X151701428Y-131753571D01*
X151915714Y-131753571D01*
X152058571Y-131825000D01*
X152129999Y-131896428D01*
X152201428Y-132039285D01*
X152201428Y-132467857D01*
X152129999Y-132610714D01*
X152058571Y-132682142D01*
X151915714Y-132753571D01*
X151701428Y-132753571D01*
X152844285Y-131753571D02*
X152844285Y-132753571D01*
X152844285Y-131896428D02*
X152915714Y-131825000D01*
X153058571Y-131753571D01*
X153272857Y-131753571D01*
X153415714Y-131825000D01*
X153487142Y-131967857D01*
X153487142Y-132753571D01*
X154201428Y-131753571D02*
X154201428Y-132753571D01*
X154201428Y-131896428D02*
X154272857Y-131825000D01*
X154415714Y-131753571D01*
X154630000Y-131753571D01*
X154772857Y-131825000D01*
X154844285Y-131967857D01*
X154844285Y-132753571D01*
X156130000Y-132682142D02*
X155987142Y-132753571D01*
X155701428Y-132753571D01*
X155558571Y-132682142D01*
X155487142Y-132539285D01*
X155487142Y-131967857D01*
X155558571Y-131825000D01*
X155701428Y-131753571D01*
X155987142Y-131753571D01*
X156130000Y-131825000D01*
X156201428Y-131967857D01*
X156201428Y-132110714D01*
X155487142Y-132253571D01*
X157487142Y-132682142D02*
X157344285Y-132753571D01*
X157058571Y-132753571D01*
X156915714Y-132682142D01*
X156844285Y-132610714D01*
X156772857Y-132467857D01*
X156772857Y-132039285D01*
X156844285Y-131896428D01*
X156915714Y-131825000D01*
X157058571Y-131753571D01*
X157344285Y-131753571D01*
X157487142Y-131825000D01*
X157915714Y-131753571D02*
X158487142Y-131753571D01*
X158130000Y-131253571D02*
X158130000Y-132539285D01*
X158201428Y-132682142D01*
X158344285Y-132753571D01*
X158487142Y-132753571D01*
X158987142Y-132753571D02*
X158987142Y-131753571D01*
X158987142Y-131253571D02*
X158915714Y-131325000D01*
X158987142Y-131396428D01*
X159058571Y-131325000D01*
X158987142Y-131253571D01*
X158987142Y-131396428D01*
X159915714Y-132753571D02*
X159772857Y-132682142D01*
X159701428Y-132610714D01*
X159630000Y-132467857D01*
X159630000Y-132039285D01*
X159701428Y-131896428D01*
X159772857Y-131825000D01*
X159915714Y-131753571D01*
X160130000Y-131753571D01*
X160272857Y-131825000D01*
X160344285Y-131896428D01*
X160415714Y-132039285D01*
X160415714Y-132467857D01*
X160344285Y-132610714D01*
X160272857Y-132682142D01*
X160130000Y-132753571D01*
X159915714Y-132753571D01*
X161058571Y-131753571D02*
X161058571Y-132753571D01*
X161058571Y-131896428D02*
X161130000Y-131825000D01*
X161272857Y-131753571D01*
X161487142Y-131753571D01*
X161630000Y-131825000D01*
X161701428Y-131967857D01*
X161701428Y-132753571D01*
X163558571Y-132753571D02*
X163558571Y-131753571D01*
X163558571Y-131896428D02*
X163630000Y-131825000D01*
X163772857Y-131753571D01*
X163987142Y-131753571D01*
X164130000Y-131825000D01*
X164201428Y-131967857D01*
X164201428Y-132753571D01*
X164201428Y-131967857D02*
X164272857Y-131825000D01*
X164415714Y-131753571D01*
X164630000Y-131753571D01*
X164772857Y-131825000D01*
X164844285Y-131967857D01*
X164844285Y-132753571D01*
X166201428Y-131753571D02*
X166201428Y-132753571D01*
X165558571Y-131753571D02*
X165558571Y-132539285D01*
X165630000Y-132682142D01*
X165772857Y-132753571D01*
X165987142Y-132753571D01*
X166130000Y-132682142D01*
X166201428Y-132610714D01*
X166844285Y-132682142D02*
X166987142Y-132753571D01*
X167272857Y-132753571D01*
X167415714Y-132682142D01*
X167487142Y-132539285D01*
X167487142Y-132467857D01*
X167415714Y-132325000D01*
X167272857Y-132253571D01*
X167058571Y-132253571D01*
X166915714Y-132182142D01*
X166844285Y-132039285D01*
X166844285Y-131967857D01*
X166915714Y-131825000D01*
X167058571Y-131753571D01*
X167272857Y-131753571D01*
X167415714Y-131825000D01*
X167915714Y-131753571D02*
X168487142Y-131753571D01*
X168130000Y-131253571D02*
X168130000Y-132539285D01*
X168201428Y-132682142D01*
X168344285Y-132753571D01*
X168487142Y-132753571D01*
X170130000Y-132753571D02*
X170130000Y-131253571D01*
X170130000Y-131825000D02*
X170272857Y-131753571D01*
X170558571Y-131753571D01*
X170701428Y-131825000D01*
X170772857Y-131896428D01*
X170844285Y-132039285D01*
X170844285Y-132467857D01*
X170772857Y-132610714D01*
X170701428Y-132682142D01*
X170558571Y-132753571D01*
X170272857Y-132753571D01*
X170130000Y-132682142D01*
X172058571Y-132682142D02*
X171915714Y-132753571D01*
X171630000Y-132753571D01*
X171487142Y-132682142D01*
X171415714Y-132539285D01*
X171415714Y-131967857D01*
X171487142Y-131825000D01*
X171630000Y-131753571D01*
X171915714Y-131753571D01*
X172058571Y-131825000D01*
X172130000Y-131967857D01*
X172130000Y-132110714D01*
X171415714Y-132253571D01*
X138022857Y-134875000D02*
X138737142Y-134875000D01*
X137880000Y-135303571D02*
X138380000Y-133803571D01*
X138880000Y-135303571D01*
X139308571Y-135232142D02*
X139522857Y-135303571D01*
X139880000Y-135303571D01*
X140022857Y-135232142D01*
X140094285Y-135160714D01*
X140165714Y-135017857D01*
X140165714Y-134875000D01*
X140094285Y-134732142D01*
X140022857Y-134660714D01*
X139880000Y-134589285D01*
X139594285Y-134517857D01*
X139451428Y-134446428D01*
X139380000Y-134375000D01*
X139308571Y-134232142D01*
X139308571Y-134089285D01*
X139380000Y-133946428D01*
X139451428Y-133875000D01*
X139594285Y-133803571D01*
X139951428Y-133803571D01*
X140165714Y-133875000D01*
X141880000Y-135232142D02*
X142094285Y-135303571D01*
X142451428Y-135303571D01*
X142594285Y-135232142D01*
X142665714Y-135160714D01*
X142737142Y-135017857D01*
X142737142Y-134875000D01*
X142665714Y-134732142D01*
X142594285Y-134660714D01*
X142451428Y-134589285D01*
X142165714Y-134517857D01*
X142022857Y-134446428D01*
X141951428Y-134375000D01*
X141880000Y-134232142D01*
X141880000Y-134089285D01*
X141951428Y-133946428D01*
X142022857Y-133875000D01*
X142165714Y-133803571D01*
X142522857Y-133803571D01*
X142737142Y-133875000D01*
X143380000Y-135303571D02*
X143380000Y-133803571D01*
X143380000Y-134517857D02*
X144237142Y-134517857D01*
X144237142Y-135303571D02*
X144237142Y-133803571D01*
X145237142Y-133803571D02*
X145522857Y-133803571D01*
X145665714Y-133875000D01*
X145808571Y-134017857D01*
X145880000Y-134303571D01*
X145880000Y-134803571D01*
X145808571Y-135089285D01*
X145665714Y-135232142D01*
X145522857Y-135303571D01*
X145237142Y-135303571D01*
X145094285Y-135232142D01*
X144951428Y-135089285D01*
X144880000Y-134803571D01*
X144880000Y-134303571D01*
X144951428Y-134017857D01*
X145094285Y-133875000D01*
X145237142Y-133803571D01*
X147380000Y-135303571D02*
X146880000Y-134589285D01*
X146522857Y-135303571D02*
X146522857Y-133803571D01*
X147094285Y-133803571D01*
X147237142Y-133875000D01*
X147308571Y-133946428D01*
X147380000Y-134089285D01*
X147380000Y-134303571D01*
X147308571Y-134446428D01*
X147237142Y-134517857D01*
X147094285Y-134589285D01*
X146522857Y-134589285D01*
X147808571Y-133803571D02*
X148665714Y-133803571D01*
X148237142Y-135303571D02*
X148237142Y-133803571D01*
X150237142Y-134875000D02*
X150951428Y-134875000D01*
X150094285Y-135303571D02*
X150594285Y-133803571D01*
X151094285Y-135303571D01*
X151522857Y-135232142D02*
X151737142Y-135303571D01*
X152094285Y-135303571D01*
X152237142Y-135232142D01*
X152308571Y-135160714D01*
X152380000Y-135017857D01*
X152380000Y-134875000D01*
X152308571Y-134732142D01*
X152237142Y-134660714D01*
X152094285Y-134589285D01*
X151808571Y-134517857D01*
X151665714Y-134446428D01*
X151594285Y-134375000D01*
X151522857Y-134232142D01*
X151522857Y-134089285D01*
X151594285Y-133946428D01*
X151665714Y-133875000D01*
X151808571Y-133803571D01*
X152165714Y-133803571D01*
X152380000Y-133875000D01*
X154165714Y-135303571D02*
X154165714Y-133803571D01*
X154737142Y-133803571D01*
X154880000Y-133875000D01*
X154951428Y-133946428D01*
X155022857Y-134089285D01*
X155022857Y-134303571D01*
X154951428Y-134446428D01*
X154880000Y-134517857D01*
X154737142Y-134589285D01*
X154165714Y-134589285D01*
X155951428Y-133803571D02*
X156237142Y-133803571D01*
X156380000Y-133875000D01*
X156522857Y-134017857D01*
X156594285Y-134303571D01*
X156594285Y-134803571D01*
X156522857Y-135089285D01*
X156380000Y-135232142D01*
X156237142Y-135303571D01*
X155951428Y-135303571D01*
X155808571Y-135232142D01*
X155665714Y-135089285D01*
X155594285Y-134803571D01*
X155594285Y-134303571D01*
X155665714Y-134017857D01*
X155808571Y-133875000D01*
X155951428Y-133803571D01*
X157165714Y-135232142D02*
X157380000Y-135303571D01*
X157737142Y-135303571D01*
X157880000Y-135232142D01*
X157951428Y-135160714D01*
X158022857Y-135017857D01*
X158022857Y-134875000D01*
X157951428Y-134732142D01*
X157880000Y-134660714D01*
X157737142Y-134589285D01*
X157451428Y-134517857D01*
X157308571Y-134446428D01*
X157237142Y-134375000D01*
X157165714Y-134232142D01*
X157165714Y-134089285D01*
X157237142Y-133946428D01*
X157308571Y-133875000D01*
X157451428Y-133803571D01*
X157808571Y-133803571D01*
X158022857Y-133875000D01*
X158594285Y-135232142D02*
X158808571Y-135303571D01*
X159165714Y-135303571D01*
X159308571Y-135232142D01*
X159380000Y-135160714D01*
X159451428Y-135017857D01*
X159451428Y-134875000D01*
X159380000Y-134732142D01*
X159308571Y-134660714D01*
X159165714Y-134589285D01*
X158880000Y-134517857D01*
X158737142Y-134446428D01*
X158665714Y-134375000D01*
X158594285Y-134232142D01*
X158594285Y-134089285D01*
X158665714Y-133946428D01*
X158737142Y-133875000D01*
X158880000Y-133803571D01*
X159237142Y-133803571D01*
X159451428Y-133875000D01*
X160094285Y-135303571D02*
X160094285Y-133803571D01*
X161308571Y-134517857D02*
X161522857Y-134589285D01*
X161594285Y-134660714D01*
X161665714Y-134803571D01*
X161665714Y-135017857D01*
X161594285Y-135160714D01*
X161522857Y-135232142D01*
X161380000Y-135303571D01*
X160808571Y-135303571D01*
X160808571Y-133803571D01*
X161308571Y-133803571D01*
X161451428Y-133875000D01*
X161522857Y-133946428D01*
X161594285Y-134089285D01*
X161594285Y-134232142D01*
X161522857Y-134375000D01*
X161451428Y-134446428D01*
X161308571Y-134517857D01*
X160808571Y-134517857D01*
X163022857Y-135303571D02*
X162308571Y-135303571D01*
X162308571Y-133803571D01*
X163522857Y-134517857D02*
X164022857Y-134517857D01*
X164237142Y-135303571D02*
X163522857Y-135303571D01*
X163522857Y-133803571D01*
X164237142Y-133803571D01*
D11*
X71280000Y-123700000D02*
X72390000Y-123700000D01*
X71280000Y-124460000D02*
X71280000Y-123700000D01*
X72953471Y-125220000D02*
X73500000Y-125220000D01*
X71280000Y-125220000D02*
X71826529Y-125220000D01*
X73500000Y-125220000D02*
X73500000Y-126425000D01*
X71280000Y-125220000D02*
X71280000Y-126425000D01*
X72697530Y-126425000D02*
X73500000Y-126425000D01*
X71280000Y-126425000D02*
X72082470Y-126425000D01*
D12*
X180136800Y-106807000D02*
X184899300Y-106807000D01*
X180136800Y-109347000D02*
X180136800Y-106807000D01*
X164896800Y-109347000D02*
X180136800Y-109347000D01*
X164896800Y-129667000D02*
X164896800Y-109347000D01*
X180136800Y-129667000D02*
X164896800Y-129667000D01*
X180136800Y-132207000D02*
X180136800Y-129667000D01*
X184899300Y-132207000D02*
X180136800Y-132207000D01*
X184899300Y-106807000D02*
X184899300Y-132207000D01*
D13*
X162643400Y-80489400D02*
X184843400Y-80489400D01*
X162643400Y-105489400D02*
X162643400Y-80489400D01*
X184843400Y-105489400D02*
X162643400Y-105489400D01*
X184843400Y-80489400D02*
X184843400Y-105489400D01*
D14*
X161443400Y-89329400D02*
G75*
G03X161443400Y-89329400I-100000J0D01*
G01*
D11*
X85166200Y-127120800D02*
X85166200Y-104120800D01*
X113106200Y-127120800D02*
X85166200Y-127120800D01*
X113106200Y-104120800D02*
X113106200Y-127120800D01*
X113106200Y-104120800D02*
X85166200Y-104120800D01*
X88154400Y-73516682D02*
X89404400Y-73516682D01*
X88779400Y-74141682D02*
X88779400Y-72891682D01*
X92037400Y-60963600D02*
X92671400Y-60963600D01*
X91597400Y-61003600D02*
X93111400Y-61003600D01*
X91326400Y-61043600D02*
X93382400Y-61043600D01*
X91113400Y-61083600D02*
X93595400Y-61083600D01*
X90932400Y-61123600D02*
X93776400Y-61123600D01*
X90771400Y-61163600D02*
X93937400Y-61163600D01*
X90626400Y-61203600D02*
X94082400Y-61203600D01*
X90493400Y-61243600D02*
X94215400Y-61243600D01*
X90370400Y-61283600D02*
X94338400Y-61283600D01*
X90254400Y-61323600D02*
X94454400Y-61323600D01*
X90145400Y-61363600D02*
X94563400Y-61363600D01*
X90042400Y-61403600D02*
X94666400Y-61403600D01*
X89944400Y-61443600D02*
X94764400Y-61443600D01*
X89850400Y-61483600D02*
X94858400Y-61483600D01*
X89760400Y-61523600D02*
X94948400Y-61523600D01*
X89673400Y-61563600D02*
X95035400Y-61563600D01*
X89590400Y-61603600D02*
X95118400Y-61603600D01*
X89510400Y-61643600D02*
X95198400Y-61643600D01*
X89433400Y-61683600D02*
X95275400Y-61683600D01*
X89358400Y-61723600D02*
X95350400Y-61723600D01*
X89285400Y-61763600D02*
X95423400Y-61763600D01*
X89214400Y-61803600D02*
X95494400Y-61803600D01*
X89146400Y-61843600D02*
X95562400Y-61843600D01*
X89079400Y-61883600D02*
X95629400Y-61883600D01*
X89015400Y-61923600D02*
X95693400Y-61923600D01*
X88952400Y-61963600D02*
X95756400Y-61963600D01*
X88890400Y-62003600D02*
X95818400Y-62003600D01*
X88830400Y-62043600D02*
X95878400Y-62043600D01*
X88771400Y-62083600D02*
X95937400Y-62083600D01*
X88714400Y-62123600D02*
X95994400Y-62123600D01*
X88658400Y-62163600D02*
X96050400Y-62163600D01*
X88604400Y-62203600D02*
X96104400Y-62203600D01*
X88550400Y-62243600D02*
X96158400Y-62243600D01*
X88498400Y-62283600D02*
X96210400Y-62283600D01*
X88447400Y-62323600D02*
X96261400Y-62323600D01*
X88397400Y-62363600D02*
X96311400Y-62363600D01*
X88347400Y-62403600D02*
X96361400Y-62403600D01*
X88299400Y-62443600D02*
X96409400Y-62443600D01*
X88252400Y-62483600D02*
X96456400Y-62483600D01*
X88206400Y-62523600D02*
X96502400Y-62523600D01*
X88160400Y-62563600D02*
X96548400Y-62563600D01*
X88116400Y-62603600D02*
X96592400Y-62603600D01*
X88072400Y-62643600D02*
X96636400Y-62643600D01*
X88029400Y-62683600D02*
X96679400Y-62683600D01*
X87987400Y-62723600D02*
X96721400Y-62723600D01*
X87946400Y-62763600D02*
X96762400Y-62763600D01*
X87905400Y-62803600D02*
X96803400Y-62803600D01*
X87865400Y-62843600D02*
X96843400Y-62843600D01*
X87826400Y-62883600D02*
X96882400Y-62883600D01*
X87787400Y-62923600D02*
X96921400Y-62923600D01*
X87749400Y-62963600D02*
X96959400Y-62963600D01*
X87712400Y-63003600D02*
X96996400Y-63003600D01*
X87676400Y-63043600D02*
X97032400Y-63043600D01*
X87640400Y-63083600D02*
X97068400Y-63083600D01*
X87604400Y-63123600D02*
X97104400Y-63123600D01*
X87569400Y-63163600D02*
X97139400Y-63163600D01*
X87535400Y-63203600D02*
X97173400Y-63203600D01*
X87502400Y-63243600D02*
X97206400Y-63243600D01*
X87469400Y-63283600D02*
X97239400Y-63283600D01*
X87436400Y-63323600D02*
X97272400Y-63323600D01*
X87404400Y-63363600D02*
X97304400Y-63363600D01*
X93794400Y-63403600D02*
X97336400Y-63403600D01*
X87372400Y-63403600D02*
X90914400Y-63403600D01*
X93794400Y-63443600D02*
X97366400Y-63443600D01*
X87342400Y-63443600D02*
X90914400Y-63443600D01*
X93794400Y-63483600D02*
X97397400Y-63483600D01*
X87311400Y-63483600D02*
X90914400Y-63483600D01*
X93794400Y-63523600D02*
X97427400Y-63523600D01*
X87281400Y-63523600D02*
X90914400Y-63523600D01*
X93794400Y-63563600D02*
X97456400Y-63563600D01*
X87252400Y-63563600D02*
X90914400Y-63563600D01*
X93794400Y-63603600D02*
X97485400Y-63603600D01*
X87223400Y-63603600D02*
X90914400Y-63603600D01*
X93794400Y-63643600D02*
X97514400Y-63643600D01*
X87194400Y-63643600D02*
X90914400Y-63643600D01*
X93794400Y-63683600D02*
X97542400Y-63683600D01*
X87166400Y-63683600D02*
X90914400Y-63683600D01*
X93794400Y-63723600D02*
X97570400Y-63723600D01*
X87138400Y-63723600D02*
X90914400Y-63723600D01*
X93794400Y-63763600D02*
X97597400Y-63763600D01*
X87111400Y-63763600D02*
X90914400Y-63763600D01*
X93794400Y-63803600D02*
X97624400Y-63803600D01*
X87084400Y-63803600D02*
X90914400Y-63803600D01*
X93794400Y-63843600D02*
X97650400Y-63843600D01*
X87058400Y-63843600D02*
X90914400Y-63843600D01*
X93794400Y-63883600D02*
X97676400Y-63883600D01*
X87032400Y-63883600D02*
X90914400Y-63883600D01*
X93794400Y-63923600D02*
X97701400Y-63923600D01*
X87007400Y-63923600D02*
X90914400Y-63923600D01*
X93794400Y-63963600D02*
X97726400Y-63963600D01*
X86982400Y-63963600D02*
X90914400Y-63963600D01*
X93794400Y-64003600D02*
X97751400Y-64003600D01*
X86957400Y-64003600D02*
X90914400Y-64003600D01*
X93794400Y-64043600D02*
X97775400Y-64043600D01*
X86933400Y-64043600D02*
X90914400Y-64043600D01*
X93794400Y-64083600D02*
X97799400Y-64083600D01*
X86909400Y-64083600D02*
X90914400Y-64083600D01*
X93794400Y-64123600D02*
X97822400Y-64123600D01*
X86886400Y-64123600D02*
X90914400Y-64123600D01*
X93794400Y-64163600D02*
X97845400Y-64163600D01*
X86863400Y-64163600D02*
X90914400Y-64163600D01*
X93794400Y-64203600D02*
X97868400Y-64203600D01*
X86840400Y-64203600D02*
X90914400Y-64203600D01*
X93794400Y-64243600D02*
X97890400Y-64243600D01*
X86818400Y-64243600D02*
X90914400Y-64243600D01*
X93794400Y-64283600D02*
X97912400Y-64283600D01*
X86796400Y-64283600D02*
X90914400Y-64283600D01*
X93794400Y-64323600D02*
X97934400Y-64323600D01*
X86774400Y-64323600D02*
X90914400Y-64323600D01*
X93794400Y-64363600D02*
X97955400Y-64363600D01*
X86753400Y-64363600D02*
X90914400Y-64363600D01*
X93794400Y-64403600D02*
X97976400Y-64403600D01*
X86732400Y-64403600D02*
X90914400Y-64403600D01*
X93794400Y-64443600D02*
X97996400Y-64443600D01*
X86712400Y-64443600D02*
X90914400Y-64443600D01*
X93794400Y-64483600D02*
X98016400Y-64483600D01*
X86692400Y-64483600D02*
X90914400Y-64483600D01*
X93794400Y-64523600D02*
X98036400Y-64523600D01*
X86672400Y-64523600D02*
X90914400Y-64523600D01*
X93794400Y-64563600D02*
X98056400Y-64563600D01*
X86652400Y-64563600D02*
X90914400Y-64563600D01*
X93794400Y-64603600D02*
X98075400Y-64603600D01*
X86633400Y-64603600D02*
X90914400Y-64603600D01*
X93794400Y-64643600D02*
X98093400Y-64643600D01*
X86615400Y-64643600D02*
X90914400Y-64643600D01*
X93794400Y-64683600D02*
X98112400Y-64683600D01*
X86596400Y-64683600D02*
X90914400Y-64683600D01*
X93794400Y-64723600D02*
X98130400Y-64723600D01*
X86578400Y-64723600D02*
X90914400Y-64723600D01*
X93794400Y-64763600D02*
X98147400Y-64763600D01*
X86561400Y-64763600D02*
X90914400Y-64763600D01*
X93794400Y-64803600D02*
X98165400Y-64803600D01*
X86543400Y-64803600D02*
X90914400Y-64803600D01*
X93794400Y-64843600D02*
X98182400Y-64843600D01*
X86526400Y-64843600D02*
X90914400Y-64843600D01*
X93794400Y-64883600D02*
X98199400Y-64883600D01*
X86509400Y-64883600D02*
X90914400Y-64883600D01*
X93794400Y-64923600D02*
X98215400Y-64923600D01*
X86493400Y-64923600D02*
X90914400Y-64923600D01*
X93794400Y-64963600D02*
X98231400Y-64963600D01*
X86477400Y-64963600D02*
X90914400Y-64963600D01*
X93794400Y-65003600D02*
X98247400Y-65003600D01*
X86461400Y-65003600D02*
X90914400Y-65003600D01*
X93794400Y-65043600D02*
X98262400Y-65043600D01*
X86446400Y-65043600D02*
X90914400Y-65043600D01*
X93794400Y-65083600D02*
X98278400Y-65083600D01*
X86430400Y-65083600D02*
X90914400Y-65083600D01*
X93794400Y-65123600D02*
X98293400Y-65123600D01*
X86415400Y-65123600D02*
X90914400Y-65123600D01*
X93794400Y-65163600D02*
X98307400Y-65163600D01*
X86401400Y-65163600D02*
X90914400Y-65163600D01*
X93794400Y-65203600D02*
X98321400Y-65203600D01*
X86387400Y-65203600D02*
X90914400Y-65203600D01*
X93794400Y-65243600D02*
X98335400Y-65243600D01*
X86373400Y-65243600D02*
X90914400Y-65243600D01*
X93794400Y-65283600D02*
X98349400Y-65283600D01*
X86359400Y-65283600D02*
X90914400Y-65283600D01*
X93794400Y-65323600D02*
X98362400Y-65323600D01*
X86346400Y-65323600D02*
X90914400Y-65323600D01*
X93794400Y-65363600D02*
X98375400Y-65363600D01*
X86333400Y-65363600D02*
X90914400Y-65363600D01*
X93794400Y-65403600D02*
X98388400Y-65403600D01*
X86320400Y-65403600D02*
X90914400Y-65403600D01*
X93794400Y-65443600D02*
X98401400Y-65443600D01*
X86307400Y-65443600D02*
X90914400Y-65443600D01*
X93794400Y-65483600D02*
X98413400Y-65483600D01*
X86295400Y-65483600D02*
X90914400Y-65483600D01*
X93794400Y-65523600D02*
X98425400Y-65523600D01*
X86283400Y-65523600D02*
X90914400Y-65523600D01*
X93794400Y-65563600D02*
X98437400Y-65563600D01*
X86271400Y-65563600D02*
X90914400Y-65563600D01*
X93794400Y-65603600D02*
X98448400Y-65603600D01*
X86260400Y-65603600D02*
X90914400Y-65603600D01*
X93794400Y-65643600D02*
X98459400Y-65643600D01*
X86249400Y-65643600D02*
X90914400Y-65643600D01*
X93794400Y-65683600D02*
X98470400Y-65683600D01*
X86238400Y-65683600D02*
X90914400Y-65683600D01*
X93794400Y-65723600D02*
X98480400Y-65723600D01*
X86228400Y-65723600D02*
X90914400Y-65723600D01*
X93794400Y-65763600D02*
X98491400Y-65763600D01*
X86217400Y-65763600D02*
X90914400Y-65763600D01*
X93794400Y-65803600D02*
X98500400Y-65803600D01*
X86208400Y-65803600D02*
X90914400Y-65803600D01*
X93794400Y-65843600D02*
X98510400Y-65843600D01*
X86198400Y-65843600D02*
X90914400Y-65843600D01*
X93794400Y-65883600D02*
X98520400Y-65883600D01*
X86188400Y-65883600D02*
X90914400Y-65883600D01*
X93794400Y-65923600D02*
X98529400Y-65923600D01*
X86179400Y-65923600D02*
X90914400Y-65923600D01*
X93794400Y-65963600D02*
X98538400Y-65963600D01*
X86170400Y-65963600D02*
X90914400Y-65963600D01*
X93794400Y-66003600D02*
X98546400Y-66003600D01*
X86162400Y-66003600D02*
X90914400Y-66003600D01*
X93794400Y-66043600D02*
X98555400Y-66043600D01*
X86153400Y-66043600D02*
X90914400Y-66043600D01*
X93794400Y-66083600D02*
X98563400Y-66083600D01*
X86145400Y-66083600D02*
X90914400Y-66083600D01*
X93794400Y-66123600D02*
X98570400Y-66123600D01*
X86138400Y-66123600D02*
X90914400Y-66123600D01*
X93794400Y-66163600D02*
X98578400Y-66163600D01*
X86130400Y-66163600D02*
X90914400Y-66163600D01*
X93794400Y-66203600D02*
X98585400Y-66203600D01*
X86123400Y-66203600D02*
X90914400Y-66203600D01*
X93794400Y-66243600D02*
X98592400Y-66243600D01*
X86116400Y-66243600D02*
X90914400Y-66243600D01*
X86109400Y-66283600D02*
X98599400Y-66283600D01*
X86102400Y-66323600D02*
X98606400Y-66323600D01*
X86096400Y-66363600D02*
X98612400Y-66363600D01*
X86090400Y-66403600D02*
X98618400Y-66403600D01*
X86085400Y-66443600D02*
X98623400Y-66443600D01*
X86079400Y-66483600D02*
X98629400Y-66483600D01*
X86074400Y-66523600D02*
X98634400Y-66523600D01*
X86069400Y-66563600D02*
X98639400Y-66563600D01*
X86064400Y-66603600D02*
X98644400Y-66603600D01*
X86060400Y-66644600D02*
X98648400Y-66644600D01*
X86056400Y-66684600D02*
X98652400Y-66684600D01*
X86052400Y-66724600D02*
X98656400Y-66724600D01*
X86048400Y-66764600D02*
X98660400Y-66764600D01*
X86045400Y-66804600D02*
X98663400Y-66804600D01*
X86042400Y-66844600D02*
X98666400Y-66844600D01*
X86039400Y-66884600D02*
X98669400Y-66884600D01*
X86036400Y-66924600D02*
X98672400Y-66924600D01*
X86034400Y-66964600D02*
X98674400Y-66964600D01*
X86032400Y-67004600D02*
X98676400Y-67004600D01*
X86030400Y-67044600D02*
X98678400Y-67044600D01*
X86028400Y-67084600D02*
X98680400Y-67084600D01*
X86027400Y-67124600D02*
X98681400Y-67124600D01*
X86026400Y-67164600D02*
X98682400Y-67164600D01*
X86025400Y-67204600D02*
X98683400Y-67204600D01*
X86024400Y-67244600D02*
X98684400Y-67244600D01*
X86024400Y-67284600D02*
X98684400Y-67284600D01*
X86024400Y-67324600D02*
X98684400Y-67324600D01*
X98724400Y-67324600D02*
G75*
G03X98724400Y-67324600I-6370000J0D01*
G01*
X131515800Y-68416800D02*
G75*
G03X131515800Y-68416800I-6370000J0D01*
G01*
X118815800Y-68416800D02*
X131475800Y-68416800D01*
X118815800Y-68376800D02*
X131475800Y-68376800D01*
X118815800Y-68336800D02*
X131475800Y-68336800D01*
X118816800Y-68296800D02*
X131474800Y-68296800D01*
X118817800Y-68256800D02*
X131473800Y-68256800D01*
X118818800Y-68216800D02*
X131472800Y-68216800D01*
X118819800Y-68176800D02*
X131471800Y-68176800D01*
X118821800Y-68136800D02*
X131469800Y-68136800D01*
X118823800Y-68096800D02*
X131467800Y-68096800D01*
X118825800Y-68056800D02*
X131465800Y-68056800D01*
X118827800Y-68016800D02*
X131463800Y-68016800D01*
X118830800Y-67976800D02*
X131460800Y-67976800D01*
X118833800Y-67936800D02*
X131457800Y-67936800D01*
X118836800Y-67896800D02*
X131454800Y-67896800D01*
X118839800Y-67856800D02*
X131451800Y-67856800D01*
X118843800Y-67816800D02*
X131447800Y-67816800D01*
X118847800Y-67776800D02*
X131443800Y-67776800D01*
X118851800Y-67736800D02*
X131439800Y-67736800D01*
X118855800Y-67695800D02*
X131435800Y-67695800D01*
X118860800Y-67655800D02*
X131430800Y-67655800D01*
X118865800Y-67615800D02*
X131425800Y-67615800D01*
X118870800Y-67575800D02*
X131420800Y-67575800D01*
X118876800Y-67535800D02*
X131414800Y-67535800D01*
X118881800Y-67495800D02*
X131409800Y-67495800D01*
X118887800Y-67455800D02*
X131403800Y-67455800D01*
X118893800Y-67415800D02*
X131397800Y-67415800D01*
X118900800Y-67375800D02*
X131390800Y-67375800D01*
X118907800Y-67335800D02*
X123705800Y-67335800D01*
X126585800Y-67335800D02*
X131383800Y-67335800D01*
X118914800Y-67295800D02*
X123705800Y-67295800D01*
X126585800Y-67295800D02*
X131376800Y-67295800D01*
X118921800Y-67255800D02*
X123705800Y-67255800D01*
X126585800Y-67255800D02*
X131369800Y-67255800D01*
X118929800Y-67215800D02*
X123705800Y-67215800D01*
X126585800Y-67215800D02*
X131361800Y-67215800D01*
X118936800Y-67175800D02*
X123705800Y-67175800D01*
X126585800Y-67175800D02*
X131354800Y-67175800D01*
X118944800Y-67135800D02*
X123705800Y-67135800D01*
X126585800Y-67135800D02*
X131346800Y-67135800D01*
X118953800Y-67095800D02*
X123705800Y-67095800D01*
X126585800Y-67095800D02*
X131337800Y-67095800D01*
X118961800Y-67055800D02*
X123705800Y-67055800D01*
X126585800Y-67055800D02*
X131329800Y-67055800D01*
X118970800Y-67015800D02*
X123705800Y-67015800D01*
X126585800Y-67015800D02*
X131320800Y-67015800D01*
X118979800Y-66975800D02*
X123705800Y-66975800D01*
X126585800Y-66975800D02*
X131311800Y-66975800D01*
X118989800Y-66935800D02*
X123705800Y-66935800D01*
X126585800Y-66935800D02*
X131301800Y-66935800D01*
X118999800Y-66895800D02*
X123705800Y-66895800D01*
X126585800Y-66895800D02*
X131291800Y-66895800D01*
X119008800Y-66855800D02*
X123705800Y-66855800D01*
X126585800Y-66855800D02*
X131282800Y-66855800D01*
X119019800Y-66815800D02*
X123705800Y-66815800D01*
X126585800Y-66815800D02*
X131271800Y-66815800D01*
X119029800Y-66775800D02*
X123705800Y-66775800D01*
X126585800Y-66775800D02*
X131261800Y-66775800D01*
X119040800Y-66735800D02*
X123705800Y-66735800D01*
X126585800Y-66735800D02*
X131250800Y-66735800D01*
X119051800Y-66695800D02*
X123705800Y-66695800D01*
X126585800Y-66695800D02*
X131239800Y-66695800D01*
X119062800Y-66655800D02*
X123705800Y-66655800D01*
X126585800Y-66655800D02*
X131228800Y-66655800D01*
X119074800Y-66615800D02*
X123705800Y-66615800D01*
X126585800Y-66615800D02*
X131216800Y-66615800D01*
X119086800Y-66575800D02*
X123705800Y-66575800D01*
X126585800Y-66575800D02*
X131204800Y-66575800D01*
X119098800Y-66535800D02*
X123705800Y-66535800D01*
X126585800Y-66535800D02*
X131192800Y-66535800D01*
X119111800Y-66495800D02*
X123705800Y-66495800D01*
X126585800Y-66495800D02*
X131179800Y-66495800D01*
X119124800Y-66455800D02*
X123705800Y-66455800D01*
X126585800Y-66455800D02*
X131166800Y-66455800D01*
X119137800Y-66415800D02*
X123705800Y-66415800D01*
X126585800Y-66415800D02*
X131153800Y-66415800D01*
X119150800Y-66375800D02*
X123705800Y-66375800D01*
X126585800Y-66375800D02*
X131140800Y-66375800D01*
X119164800Y-66335800D02*
X123705800Y-66335800D01*
X126585800Y-66335800D02*
X131126800Y-66335800D01*
X119178800Y-66295800D02*
X123705800Y-66295800D01*
X126585800Y-66295800D02*
X131112800Y-66295800D01*
X119192800Y-66255800D02*
X123705800Y-66255800D01*
X126585800Y-66255800D02*
X131098800Y-66255800D01*
X119206800Y-66215800D02*
X123705800Y-66215800D01*
X126585800Y-66215800D02*
X131084800Y-66215800D01*
X119221800Y-66175800D02*
X123705800Y-66175800D01*
X126585800Y-66175800D02*
X131069800Y-66175800D01*
X119237800Y-66135800D02*
X123705800Y-66135800D01*
X126585800Y-66135800D02*
X131053800Y-66135800D01*
X119252800Y-66095800D02*
X123705800Y-66095800D01*
X126585800Y-66095800D02*
X131038800Y-66095800D01*
X119268800Y-66055800D02*
X123705800Y-66055800D01*
X126585800Y-66055800D02*
X131022800Y-66055800D01*
X119284800Y-66015800D02*
X123705800Y-66015800D01*
X126585800Y-66015800D02*
X131006800Y-66015800D01*
X119300800Y-65975800D02*
X123705800Y-65975800D01*
X126585800Y-65975800D02*
X130990800Y-65975800D01*
X119317800Y-65935800D02*
X123705800Y-65935800D01*
X126585800Y-65935800D02*
X130973800Y-65935800D01*
X119334800Y-65895800D02*
X123705800Y-65895800D01*
X126585800Y-65895800D02*
X130956800Y-65895800D01*
X119352800Y-65855800D02*
X123705800Y-65855800D01*
X126585800Y-65855800D02*
X130938800Y-65855800D01*
X119369800Y-65815800D02*
X123705800Y-65815800D01*
X126585800Y-65815800D02*
X130921800Y-65815800D01*
X119387800Y-65775800D02*
X123705800Y-65775800D01*
X126585800Y-65775800D02*
X130903800Y-65775800D01*
X119406800Y-65735800D02*
X123705800Y-65735800D01*
X126585800Y-65735800D02*
X130884800Y-65735800D01*
X119424800Y-65695800D02*
X123705800Y-65695800D01*
X126585800Y-65695800D02*
X130866800Y-65695800D01*
X119443800Y-65655800D02*
X123705800Y-65655800D01*
X126585800Y-65655800D02*
X130847800Y-65655800D01*
X119463800Y-65615800D02*
X123705800Y-65615800D01*
X126585800Y-65615800D02*
X130827800Y-65615800D01*
X119483800Y-65575800D02*
X123705800Y-65575800D01*
X126585800Y-65575800D02*
X130807800Y-65575800D01*
X119503800Y-65535800D02*
X123705800Y-65535800D01*
X126585800Y-65535800D02*
X130787800Y-65535800D01*
X119523800Y-65495800D02*
X123705800Y-65495800D01*
X126585800Y-65495800D02*
X130767800Y-65495800D01*
X119544800Y-65455800D02*
X123705800Y-65455800D01*
X126585800Y-65455800D02*
X130746800Y-65455800D01*
X119565800Y-65415800D02*
X123705800Y-65415800D01*
X126585800Y-65415800D02*
X130725800Y-65415800D01*
X119587800Y-65375800D02*
X123705800Y-65375800D01*
X126585800Y-65375800D02*
X130703800Y-65375800D01*
X119609800Y-65335800D02*
X123705800Y-65335800D01*
X126585800Y-65335800D02*
X130681800Y-65335800D01*
X119631800Y-65295800D02*
X123705800Y-65295800D01*
X126585800Y-65295800D02*
X130659800Y-65295800D01*
X119654800Y-65255800D02*
X123705800Y-65255800D01*
X126585800Y-65255800D02*
X130636800Y-65255800D01*
X119677800Y-65215800D02*
X123705800Y-65215800D01*
X126585800Y-65215800D02*
X130613800Y-65215800D01*
X119700800Y-65175800D02*
X123705800Y-65175800D01*
X126585800Y-65175800D02*
X130590800Y-65175800D01*
X119724800Y-65135800D02*
X123705800Y-65135800D01*
X126585800Y-65135800D02*
X130566800Y-65135800D01*
X119748800Y-65095800D02*
X123705800Y-65095800D01*
X126585800Y-65095800D02*
X130542800Y-65095800D01*
X119773800Y-65055800D02*
X123705800Y-65055800D01*
X126585800Y-65055800D02*
X130517800Y-65055800D01*
X119798800Y-65015800D02*
X123705800Y-65015800D01*
X126585800Y-65015800D02*
X130492800Y-65015800D01*
X119823800Y-64975800D02*
X123705800Y-64975800D01*
X126585800Y-64975800D02*
X130467800Y-64975800D01*
X119849800Y-64935800D02*
X123705800Y-64935800D01*
X126585800Y-64935800D02*
X130441800Y-64935800D01*
X119875800Y-64895800D02*
X123705800Y-64895800D01*
X126585800Y-64895800D02*
X130415800Y-64895800D01*
X119902800Y-64855800D02*
X123705800Y-64855800D01*
X126585800Y-64855800D02*
X130388800Y-64855800D01*
X119929800Y-64815800D02*
X123705800Y-64815800D01*
X126585800Y-64815800D02*
X130361800Y-64815800D01*
X119957800Y-64775800D02*
X123705800Y-64775800D01*
X126585800Y-64775800D02*
X130333800Y-64775800D01*
X119985800Y-64735800D02*
X123705800Y-64735800D01*
X126585800Y-64735800D02*
X130305800Y-64735800D01*
X120014800Y-64695800D02*
X123705800Y-64695800D01*
X126585800Y-64695800D02*
X130276800Y-64695800D01*
X120043800Y-64655800D02*
X123705800Y-64655800D01*
X126585800Y-64655800D02*
X130247800Y-64655800D01*
X120072800Y-64615800D02*
X123705800Y-64615800D01*
X126585800Y-64615800D02*
X130218800Y-64615800D01*
X120102800Y-64575800D02*
X123705800Y-64575800D01*
X126585800Y-64575800D02*
X130188800Y-64575800D01*
X120133800Y-64535800D02*
X123705800Y-64535800D01*
X126585800Y-64535800D02*
X130157800Y-64535800D01*
X120163800Y-64495800D02*
X123705800Y-64495800D01*
X126585800Y-64495800D02*
X130127800Y-64495800D01*
X120195800Y-64455800D02*
X130095800Y-64455800D01*
X120227800Y-64415800D02*
X130063800Y-64415800D01*
X120260800Y-64375800D02*
X130030800Y-64375800D01*
X120293800Y-64335800D02*
X129997800Y-64335800D01*
X120326800Y-64295800D02*
X129964800Y-64295800D01*
X120360800Y-64255800D02*
X129930800Y-64255800D01*
X120395800Y-64215800D02*
X129895800Y-64215800D01*
X120431800Y-64175800D02*
X129859800Y-64175800D01*
X120467800Y-64135800D02*
X129823800Y-64135800D01*
X120503800Y-64095800D02*
X129787800Y-64095800D01*
X120540800Y-64055800D02*
X129750800Y-64055800D01*
X120578800Y-64015800D02*
X129712800Y-64015800D01*
X120617800Y-63975800D02*
X129673800Y-63975800D01*
X120656800Y-63935800D02*
X129634800Y-63935800D01*
X120696800Y-63895800D02*
X129594800Y-63895800D01*
X120737800Y-63855800D02*
X129553800Y-63855800D01*
X120778800Y-63815800D02*
X129512800Y-63815800D01*
X120820800Y-63775800D02*
X129470800Y-63775800D01*
X120863800Y-63735800D02*
X129427800Y-63735800D01*
X120907800Y-63695800D02*
X129383800Y-63695800D01*
X120951800Y-63655800D02*
X129339800Y-63655800D01*
X120997800Y-63615800D02*
X129293800Y-63615800D01*
X121043800Y-63575800D02*
X129247800Y-63575800D01*
X121090800Y-63535800D02*
X129200800Y-63535800D01*
X121138800Y-63495800D02*
X129152800Y-63495800D01*
X121188800Y-63455800D02*
X129102800Y-63455800D01*
X121238800Y-63415800D02*
X129052800Y-63415800D01*
X121289800Y-63375800D02*
X129001800Y-63375800D01*
X121341800Y-63335800D02*
X128949800Y-63335800D01*
X121395800Y-63295800D02*
X128895800Y-63295800D01*
X121449800Y-63255800D02*
X128841800Y-63255800D01*
X121505800Y-63215800D02*
X128785800Y-63215800D01*
X121562800Y-63175800D02*
X128728800Y-63175800D01*
X121621800Y-63135800D02*
X128669800Y-63135800D01*
X121681800Y-63095800D02*
X128609800Y-63095800D01*
X121743800Y-63055800D02*
X128547800Y-63055800D01*
X121806800Y-63015800D02*
X128484800Y-63015800D01*
X121870800Y-62975800D02*
X128420800Y-62975800D01*
X121937800Y-62935800D02*
X128353800Y-62935800D01*
X122005800Y-62895800D02*
X128285800Y-62895800D01*
X122076800Y-62855800D02*
X128214800Y-62855800D01*
X122149800Y-62815800D02*
X128141800Y-62815800D01*
X122224800Y-62775800D02*
X128066800Y-62775800D01*
X122301800Y-62735800D02*
X127989800Y-62735800D01*
X122381800Y-62695800D02*
X127909800Y-62695800D01*
X122464800Y-62655800D02*
X127826800Y-62655800D01*
X122551800Y-62615800D02*
X127739800Y-62615800D01*
X122641800Y-62575800D02*
X127649800Y-62575800D01*
X122735800Y-62535800D02*
X127555800Y-62535800D01*
X122833800Y-62495800D02*
X127457800Y-62495800D01*
X122936800Y-62455800D02*
X127354800Y-62455800D01*
X123045800Y-62415800D02*
X127245800Y-62415800D01*
X123161800Y-62375800D02*
X127129800Y-62375800D01*
X123284800Y-62335800D02*
X127006800Y-62335800D01*
X123417800Y-62295800D02*
X126873800Y-62295800D01*
X123562800Y-62255800D02*
X126728800Y-62255800D01*
X123723800Y-62215800D02*
X126567800Y-62215800D01*
X123904800Y-62175800D02*
X126386800Y-62175800D01*
X124117800Y-62135800D02*
X126173800Y-62135800D01*
X124388800Y-62095800D02*
X125902800Y-62095800D01*
X124828800Y-62055800D02*
X125462800Y-62055800D01*
X121570800Y-75233882D02*
X121570800Y-73983882D01*
X120945800Y-74608882D02*
X122195800Y-74608882D01*
X95378400Y-86630200D02*
G75*
G03X95378400Y-86630200I-9120000J0D01*
G01*
X95339400Y-86630200D02*
X77177400Y-86630200D01*
X95338400Y-86670200D02*
X77178400Y-86670200D01*
X95338400Y-86710200D02*
X77178400Y-86710200D01*
X95338400Y-86750200D02*
X77178400Y-86750200D01*
X95337400Y-86790200D02*
X77179400Y-86790200D01*
X95336400Y-86830200D02*
X77180400Y-86830200D01*
X95335400Y-86870200D02*
X77181400Y-86870200D01*
X95334400Y-86910200D02*
X77182400Y-86910200D01*
X95333400Y-86950200D02*
X77183400Y-86950200D01*
X95331400Y-86990200D02*
X77185400Y-86990200D01*
X95330400Y-87030200D02*
X77186400Y-87030200D01*
X95328400Y-87070200D02*
X77188400Y-87070200D01*
X95326400Y-87110200D02*
X77190400Y-87110200D01*
X95324400Y-87150200D02*
X77192400Y-87150200D01*
X95321400Y-87190200D02*
X77195400Y-87190200D01*
X95319400Y-87230200D02*
X77197400Y-87230200D01*
X95316400Y-87270200D02*
X77200400Y-87270200D01*
X95313400Y-87310200D02*
X77203400Y-87310200D01*
X95310400Y-87351200D02*
X77206400Y-87351200D01*
X95307400Y-87391200D02*
X77209400Y-87391200D01*
X95303400Y-87431200D02*
X77213400Y-87431200D01*
X95300400Y-87471200D02*
X77216400Y-87471200D01*
X95296400Y-87511200D02*
X77220400Y-87511200D01*
X95292400Y-87551200D02*
X77224400Y-87551200D01*
X95288400Y-87591200D02*
X77228400Y-87591200D01*
X95284400Y-87631200D02*
X77232400Y-87631200D01*
X95279400Y-87671200D02*
X77237400Y-87671200D01*
X95274400Y-87711200D02*
X77242400Y-87711200D01*
X95269400Y-87751200D02*
X77247400Y-87751200D01*
X95264400Y-87791200D02*
X77252400Y-87791200D01*
X95259400Y-87831200D02*
X77257400Y-87831200D01*
X95254400Y-87871200D02*
X77262400Y-87871200D01*
X95248400Y-87911200D02*
X77268400Y-87911200D01*
X95242400Y-87951200D02*
X77274400Y-87951200D01*
X95237400Y-87991200D02*
X77279400Y-87991200D01*
X95230400Y-88031200D02*
X77286400Y-88031200D01*
X95224400Y-88071200D02*
X77292400Y-88071200D01*
X95218400Y-88111200D02*
X77298400Y-88111200D01*
X95211400Y-88151200D02*
X77305400Y-88151200D01*
X95204400Y-88191200D02*
X77312400Y-88191200D01*
X95197400Y-88231200D02*
X77319400Y-88231200D01*
X95190400Y-88271200D02*
X77326400Y-88271200D01*
X95182400Y-88311200D02*
X77334400Y-88311200D01*
X95175400Y-88351200D02*
X77341400Y-88351200D01*
X95167400Y-88391200D02*
X77349400Y-88391200D01*
X95159400Y-88431200D02*
X77357400Y-88431200D01*
X95151400Y-88471200D02*
X77365400Y-88471200D01*
X95143400Y-88511200D02*
X77373400Y-88511200D01*
X95134400Y-88551200D02*
X77382400Y-88551200D01*
X95125400Y-88591200D02*
X77391400Y-88591200D01*
X95116400Y-88631200D02*
X77400400Y-88631200D01*
X95107400Y-88671200D02*
X77409400Y-88671200D01*
X95098400Y-88711200D02*
X77418400Y-88711200D01*
X95089400Y-88751200D02*
X77427400Y-88751200D01*
X95079400Y-88791200D02*
X77437400Y-88791200D01*
X95069400Y-88831200D02*
X77447400Y-88831200D01*
X95059400Y-88871200D02*
X77457400Y-88871200D01*
X95049400Y-88911200D02*
X77467400Y-88911200D01*
X95038400Y-88951200D02*
X87698400Y-88951200D01*
X84818400Y-88951200D02*
X77478400Y-88951200D01*
X95028400Y-88991200D02*
X87698400Y-88991200D01*
X84818400Y-88991200D02*
X77488400Y-88991200D01*
X95017400Y-89031200D02*
X87698400Y-89031200D01*
X84818400Y-89031200D02*
X77499400Y-89031200D01*
X95006400Y-89071200D02*
X87698400Y-89071200D01*
X84818400Y-89071200D02*
X77510400Y-89071200D01*
X94995400Y-89111200D02*
X87698400Y-89111200D01*
X84818400Y-89111200D02*
X77521400Y-89111200D01*
X94983400Y-89151200D02*
X87698400Y-89151200D01*
X84818400Y-89151200D02*
X77533400Y-89151200D01*
X94972400Y-89191200D02*
X87698400Y-89191200D01*
X84818400Y-89191200D02*
X77544400Y-89191200D01*
X94960400Y-89231200D02*
X87698400Y-89231200D01*
X84818400Y-89231200D02*
X77556400Y-89231200D01*
X94948400Y-89271200D02*
X87698400Y-89271200D01*
X84818400Y-89271200D02*
X77568400Y-89271200D01*
X94936400Y-89311200D02*
X87698400Y-89311200D01*
X84818400Y-89311200D02*
X77580400Y-89311200D01*
X94923400Y-89351200D02*
X87698400Y-89351200D01*
X84818400Y-89351200D02*
X77593400Y-89351200D01*
X94911400Y-89391200D02*
X87698400Y-89391200D01*
X84818400Y-89391200D02*
X77605400Y-89391200D01*
X94898400Y-89431200D02*
X87698400Y-89431200D01*
X84818400Y-89431200D02*
X77618400Y-89431200D01*
X94885400Y-89471200D02*
X87698400Y-89471200D01*
X84818400Y-89471200D02*
X77631400Y-89471200D01*
X94872400Y-89511200D02*
X87698400Y-89511200D01*
X84818400Y-89511200D02*
X77644400Y-89511200D01*
X94858400Y-89551200D02*
X87698400Y-89551200D01*
X84818400Y-89551200D02*
X77658400Y-89551200D01*
X94845400Y-89591200D02*
X87698400Y-89591200D01*
X84818400Y-89591200D02*
X77671400Y-89591200D01*
X94831400Y-89631200D02*
X87698400Y-89631200D01*
X84818400Y-89631200D02*
X77685400Y-89631200D01*
X94817400Y-89671200D02*
X87698400Y-89671200D01*
X84818400Y-89671200D02*
X77699400Y-89671200D01*
X94803400Y-89711200D02*
X87698400Y-89711200D01*
X84818400Y-89711200D02*
X77713400Y-89711200D01*
X94788400Y-89751200D02*
X87698400Y-89751200D01*
X84818400Y-89751200D02*
X77728400Y-89751200D01*
X94774400Y-89791200D02*
X87698400Y-89791200D01*
X84818400Y-89791200D02*
X77742400Y-89791200D01*
X94759400Y-89831200D02*
X87698400Y-89831200D01*
X84818400Y-89831200D02*
X77757400Y-89831200D01*
X94744400Y-89871200D02*
X87698400Y-89871200D01*
X84818400Y-89871200D02*
X77772400Y-89871200D01*
X94728400Y-89911200D02*
X87698400Y-89911200D01*
X84818400Y-89911200D02*
X77788400Y-89911200D01*
X94713400Y-89951200D02*
X87698400Y-89951200D01*
X84818400Y-89951200D02*
X77803400Y-89951200D01*
X94697400Y-89991200D02*
X87698400Y-89991200D01*
X84818400Y-89991200D02*
X77819400Y-89991200D01*
X94681400Y-90031200D02*
X87698400Y-90031200D01*
X84818400Y-90031200D02*
X77835400Y-90031200D01*
X94665400Y-90071200D02*
X87698400Y-90071200D01*
X84818400Y-90071200D02*
X77851400Y-90071200D01*
X94648400Y-90111200D02*
X87698400Y-90111200D01*
X84818400Y-90111200D02*
X77868400Y-90111200D01*
X94632400Y-90151200D02*
X87698400Y-90151200D01*
X84818400Y-90151200D02*
X77884400Y-90151200D01*
X94615400Y-90191200D02*
X87698400Y-90191200D01*
X84818400Y-90191200D02*
X77901400Y-90191200D01*
X94598400Y-90231200D02*
X87698400Y-90231200D01*
X84818400Y-90231200D02*
X77918400Y-90231200D01*
X94581400Y-90271200D02*
X87698400Y-90271200D01*
X84818400Y-90271200D02*
X77935400Y-90271200D01*
X94563400Y-90311200D02*
X87698400Y-90311200D01*
X84818400Y-90311200D02*
X77953400Y-90311200D01*
X94545400Y-90351200D02*
X87698400Y-90351200D01*
X84818400Y-90351200D02*
X77971400Y-90351200D01*
X94527400Y-90391200D02*
X87698400Y-90391200D01*
X84818400Y-90391200D02*
X77989400Y-90391200D01*
X94509400Y-90431200D02*
X87698400Y-90431200D01*
X84818400Y-90431200D02*
X78007400Y-90431200D01*
X94491400Y-90471200D02*
X87698400Y-90471200D01*
X84818400Y-90471200D02*
X78025400Y-90471200D01*
X94472400Y-90511200D02*
X87698400Y-90511200D01*
X84818400Y-90511200D02*
X78044400Y-90511200D01*
X94453400Y-90551200D02*
X87698400Y-90551200D01*
X84818400Y-90551200D02*
X78063400Y-90551200D01*
X94434400Y-90591200D02*
X87698400Y-90591200D01*
X84818400Y-90591200D02*
X78082400Y-90591200D01*
X94414400Y-90631200D02*
X87698400Y-90631200D01*
X84818400Y-90631200D02*
X78102400Y-90631200D01*
X94395400Y-90671200D02*
X87698400Y-90671200D01*
X84818400Y-90671200D02*
X78121400Y-90671200D01*
X94375400Y-90711200D02*
X87698400Y-90711200D01*
X84818400Y-90711200D02*
X78141400Y-90711200D01*
X94355400Y-90751200D02*
X87698400Y-90751200D01*
X84818400Y-90751200D02*
X78161400Y-90751200D01*
X94334400Y-90791200D02*
X87698400Y-90791200D01*
X84818400Y-90791200D02*
X78182400Y-90791200D01*
X94314400Y-90831200D02*
X87698400Y-90831200D01*
X84818400Y-90831200D02*
X78202400Y-90831200D01*
X94293400Y-90871200D02*
X87698400Y-90871200D01*
X84818400Y-90871200D02*
X78223400Y-90871200D01*
X94272400Y-90911200D02*
X87698400Y-90911200D01*
X84818400Y-90911200D02*
X78244400Y-90911200D01*
X94250400Y-90951200D02*
X87698400Y-90951200D01*
X84818400Y-90951200D02*
X78266400Y-90951200D01*
X94229400Y-90991200D02*
X87698400Y-90991200D01*
X84818400Y-90991200D02*
X78287400Y-90991200D01*
X94207400Y-91031200D02*
X87698400Y-91031200D01*
X84818400Y-91031200D02*
X78309400Y-91031200D01*
X94185400Y-91071200D02*
X87698400Y-91071200D01*
X84818400Y-91071200D02*
X78331400Y-91071200D01*
X94162400Y-91111200D02*
X87698400Y-91111200D01*
X84818400Y-91111200D02*
X78354400Y-91111200D01*
X94140400Y-91151200D02*
X87698400Y-91151200D01*
X84818400Y-91151200D02*
X78376400Y-91151200D01*
X94117400Y-91191200D02*
X87698400Y-91191200D01*
X84818400Y-91191200D02*
X78399400Y-91191200D01*
X94093400Y-91231200D02*
X87698400Y-91231200D01*
X84818400Y-91231200D02*
X78423400Y-91231200D01*
X94070400Y-91271200D02*
X87698400Y-91271200D01*
X84818400Y-91271200D02*
X78446400Y-91271200D01*
X94046400Y-91311200D02*
X87698400Y-91311200D01*
X84818400Y-91311200D02*
X78470400Y-91311200D01*
X94022400Y-91351200D02*
X87698400Y-91351200D01*
X84818400Y-91351200D02*
X78494400Y-91351200D01*
X93998400Y-91391200D02*
X87698400Y-91391200D01*
X84818400Y-91391200D02*
X78518400Y-91391200D01*
X93973400Y-91431200D02*
X87698400Y-91431200D01*
X84818400Y-91431200D02*
X78543400Y-91431200D01*
X93948400Y-91471200D02*
X87698400Y-91471200D01*
X84818400Y-91471200D02*
X78568400Y-91471200D01*
X93923400Y-91511200D02*
X87698400Y-91511200D01*
X84818400Y-91511200D02*
X78593400Y-91511200D01*
X93898400Y-91551200D02*
X87698400Y-91551200D01*
X84818400Y-91551200D02*
X78618400Y-91551200D01*
X93872400Y-91591200D02*
X87698400Y-91591200D01*
X84818400Y-91591200D02*
X78644400Y-91591200D01*
X93846400Y-91631200D02*
X87698400Y-91631200D01*
X84818400Y-91631200D02*
X78670400Y-91631200D01*
X93819400Y-91671200D02*
X87698400Y-91671200D01*
X84818400Y-91671200D02*
X78697400Y-91671200D01*
X93793400Y-91711200D02*
X87698400Y-91711200D01*
X84818400Y-91711200D02*
X78723400Y-91711200D01*
X93766400Y-91751200D02*
X87698400Y-91751200D01*
X84818400Y-91751200D02*
X78750400Y-91751200D01*
X93738400Y-91791200D02*
X87698400Y-91791200D01*
X84818400Y-91791200D02*
X78778400Y-91791200D01*
X93711400Y-91831200D02*
X78805400Y-91831200D01*
X93683400Y-91871200D02*
X78833400Y-91871200D01*
X93655400Y-91911200D02*
X78861400Y-91911200D01*
X93626400Y-91951200D02*
X78890400Y-91951200D01*
X93597400Y-91991200D02*
X78919400Y-91991200D01*
X93568400Y-92031200D02*
X78948400Y-92031200D01*
X93538400Y-92071200D02*
X78978400Y-92071200D01*
X93508400Y-92111200D02*
X79008400Y-92111200D01*
X93478400Y-92151200D02*
X79038400Y-92151200D01*
X93448400Y-92191200D02*
X79068400Y-92191200D01*
X93417400Y-92231200D02*
X79099400Y-92231200D01*
X93385400Y-92271200D02*
X79131400Y-92271200D01*
X93354400Y-92311200D02*
X79162400Y-92311200D01*
X93322400Y-92351200D02*
X79194400Y-92351200D01*
X93289400Y-92391200D02*
X79227400Y-92391200D01*
X93257400Y-92431200D02*
X79259400Y-92431200D01*
X93223400Y-92471200D02*
X79293400Y-92471200D01*
X93190400Y-92511200D02*
X79326400Y-92511200D01*
X93156400Y-92551200D02*
X79360400Y-92551200D01*
X93122400Y-92591200D02*
X79394400Y-92591200D01*
X93087400Y-92631200D02*
X79429400Y-92631200D01*
X93052400Y-92671200D02*
X79464400Y-92671200D01*
X93016400Y-92711200D02*
X79500400Y-92711200D01*
X92980400Y-92751200D02*
X79536400Y-92751200D01*
X92944400Y-92791200D02*
X79572400Y-92791200D01*
X92907400Y-92831200D02*
X79609400Y-92831200D01*
X92870400Y-92871200D02*
X79646400Y-92871200D01*
X92832400Y-92911200D02*
X79684400Y-92911200D01*
X92794400Y-92951200D02*
X79722400Y-92951200D01*
X92755400Y-92991200D02*
X79761400Y-92991200D01*
X92716400Y-93031200D02*
X79800400Y-93031200D01*
X92676400Y-93071200D02*
X79840400Y-93071200D01*
X92636400Y-93111200D02*
X79880400Y-93111200D01*
X92595400Y-93151200D02*
X79921400Y-93151200D01*
X92554400Y-93191200D02*
X79962400Y-93191200D01*
X92512400Y-93231200D02*
X80004400Y-93231200D01*
X92470400Y-93271200D02*
X80046400Y-93271200D01*
X92428400Y-93311200D02*
X80088400Y-93311200D01*
X92384400Y-93351200D02*
X80132400Y-93351200D01*
X92340400Y-93391200D02*
X80176400Y-93391200D01*
X92296400Y-93431200D02*
X80220400Y-93431200D01*
X92251400Y-93471200D02*
X80265400Y-93471200D01*
X92205400Y-93511200D02*
X80311400Y-93511200D01*
X92159400Y-93551200D02*
X80357400Y-93551200D01*
X92112400Y-93591200D02*
X80404400Y-93591200D01*
X92064400Y-93631200D02*
X80452400Y-93631200D01*
X92016400Y-93671200D02*
X80500400Y-93671200D01*
X91967400Y-93711200D02*
X80549400Y-93711200D01*
X91918400Y-93751200D02*
X80598400Y-93751200D01*
X91867400Y-93791200D02*
X80649400Y-93791200D01*
X91816400Y-93831200D02*
X80700400Y-93831200D01*
X91764400Y-93871200D02*
X80752400Y-93871200D01*
X91712400Y-93911200D02*
X80804400Y-93911200D01*
X91658400Y-93951200D02*
X80858400Y-93951200D01*
X91604400Y-93991200D02*
X80912400Y-93991200D01*
X91549400Y-94031200D02*
X80967400Y-94031200D01*
X91493400Y-94071200D02*
X81023400Y-94071200D01*
X91436400Y-94111200D02*
X81080400Y-94111200D01*
X91378400Y-94151200D02*
X81138400Y-94151200D01*
X91320400Y-94191200D02*
X81196400Y-94191200D01*
X91260400Y-94231200D02*
X81256400Y-94231200D01*
X91199400Y-94271200D02*
X81317400Y-94271200D01*
X91137400Y-94311200D02*
X81379400Y-94311200D01*
X91074400Y-94351200D02*
X81442400Y-94351200D01*
X91010400Y-94391200D02*
X81506400Y-94391200D01*
X90944400Y-94431200D02*
X81572400Y-94431200D01*
X90878400Y-94471200D02*
X81638400Y-94471200D01*
X90810400Y-94511200D02*
X81706400Y-94511200D01*
X90740400Y-94551200D02*
X81776400Y-94551200D01*
X90670400Y-94591200D02*
X81846400Y-94591200D01*
X90597400Y-94631200D02*
X81919400Y-94631200D01*
X90523400Y-94671200D02*
X81993400Y-94671200D01*
X90448400Y-94711200D02*
X82068400Y-94711200D01*
X90371400Y-94751200D02*
X82145400Y-94751200D01*
X90291400Y-94791200D02*
X82225400Y-94791200D01*
X90210400Y-94830200D02*
X82306400Y-94830200D01*
X90127400Y-94870200D02*
X82389400Y-94870200D01*
X90042400Y-94910200D02*
X82474400Y-94910200D01*
X89954400Y-94950200D02*
X82562400Y-94950200D01*
X89863400Y-94990200D02*
X82653400Y-94990200D01*
X89770400Y-95030200D02*
X82746400Y-95030200D01*
X89674400Y-95070200D02*
X82842400Y-95070200D01*
X89575400Y-95110200D02*
X82941400Y-95110200D01*
X89472400Y-95150200D02*
X83044400Y-95150200D01*
X89365400Y-95190200D02*
X83151400Y-95190200D01*
X89254400Y-95230200D02*
X83262400Y-95230200D01*
X89138400Y-95270200D02*
X83378400Y-95270200D01*
X89017400Y-95310200D02*
X83499400Y-95310200D01*
X88890400Y-95350200D02*
X83626400Y-95350200D01*
X88756400Y-95390200D02*
X83760400Y-95390200D01*
X88613400Y-95430200D02*
X83903400Y-95430200D01*
X88461400Y-95470200D02*
X84055400Y-95470200D01*
X88297400Y-95510200D02*
X84219400Y-95510200D01*
X88118400Y-95550200D02*
X84398400Y-95550200D01*
X87919400Y-95590200D02*
X84597400Y-95590200D01*
X87693400Y-95630200D02*
X84823400Y-95630200D01*
X87424400Y-95670200D02*
X85092400Y-95670200D01*
X87072400Y-95710200D02*
X85444400Y-95710200D01*
X86298400Y-95750200D02*
X86218400Y-95750200D01*
X91373400Y-76870760D02*
X91373400Y-78670760D01*
X92273400Y-77770760D02*
X90473400Y-77770760D01*
X146295000Y-75497882D02*
X147545000Y-75497882D01*
X146920000Y-76122882D02*
X146920000Y-74872882D01*
X150178000Y-62944800D02*
X150812000Y-62944800D01*
X149738000Y-62984800D02*
X151252000Y-62984800D01*
X149467000Y-63024800D02*
X151523000Y-63024800D01*
X149254000Y-63064800D02*
X151736000Y-63064800D01*
X149073000Y-63104800D02*
X151917000Y-63104800D01*
X148912000Y-63144800D02*
X152078000Y-63144800D01*
X148767000Y-63184800D02*
X152223000Y-63184800D01*
X148634000Y-63224800D02*
X152356000Y-63224800D01*
X148511000Y-63264800D02*
X152479000Y-63264800D01*
X148395000Y-63304800D02*
X152595000Y-63304800D01*
X148286000Y-63344800D02*
X152704000Y-63344800D01*
X148183000Y-63384800D02*
X152807000Y-63384800D01*
X148085000Y-63424800D02*
X152905000Y-63424800D01*
X147991000Y-63464800D02*
X152999000Y-63464800D01*
X147901000Y-63504800D02*
X153089000Y-63504800D01*
X147814000Y-63544800D02*
X153176000Y-63544800D01*
X147731000Y-63584800D02*
X153259000Y-63584800D01*
X147651000Y-63624800D02*
X153339000Y-63624800D01*
X147574000Y-63664800D02*
X153416000Y-63664800D01*
X147499000Y-63704800D02*
X153491000Y-63704800D01*
X147426000Y-63744800D02*
X153564000Y-63744800D01*
X147355000Y-63784800D02*
X153635000Y-63784800D01*
X147287000Y-63824800D02*
X153703000Y-63824800D01*
X147220000Y-63864800D02*
X153770000Y-63864800D01*
X147156000Y-63904800D02*
X153834000Y-63904800D01*
X147093000Y-63944800D02*
X153897000Y-63944800D01*
X147031000Y-63984800D02*
X153959000Y-63984800D01*
X146971000Y-64024800D02*
X154019000Y-64024800D01*
X146912000Y-64064800D02*
X154078000Y-64064800D01*
X146855000Y-64104800D02*
X154135000Y-64104800D01*
X146799000Y-64144800D02*
X154191000Y-64144800D01*
X146745000Y-64184800D02*
X154245000Y-64184800D01*
X146691000Y-64224800D02*
X154299000Y-64224800D01*
X146639000Y-64264800D02*
X154351000Y-64264800D01*
X146588000Y-64304800D02*
X154402000Y-64304800D01*
X146538000Y-64344800D02*
X154452000Y-64344800D01*
X146488000Y-64384800D02*
X154502000Y-64384800D01*
X146440000Y-64424800D02*
X154550000Y-64424800D01*
X146393000Y-64464800D02*
X154597000Y-64464800D01*
X146347000Y-64504800D02*
X154643000Y-64504800D01*
X146301000Y-64544800D02*
X154689000Y-64544800D01*
X146257000Y-64584800D02*
X154733000Y-64584800D01*
X146213000Y-64624800D02*
X154777000Y-64624800D01*
X146170000Y-64664800D02*
X154820000Y-64664800D01*
X146128000Y-64704800D02*
X154862000Y-64704800D01*
X146087000Y-64744800D02*
X154903000Y-64744800D01*
X146046000Y-64784800D02*
X154944000Y-64784800D01*
X146006000Y-64824800D02*
X154984000Y-64824800D01*
X145967000Y-64864800D02*
X155023000Y-64864800D01*
X145928000Y-64904800D02*
X155062000Y-64904800D01*
X145890000Y-64944800D02*
X155100000Y-64944800D01*
X145853000Y-64984800D02*
X155137000Y-64984800D01*
X145817000Y-65024800D02*
X155173000Y-65024800D01*
X145781000Y-65064800D02*
X155209000Y-65064800D01*
X145745000Y-65104800D02*
X155245000Y-65104800D01*
X145710000Y-65144800D02*
X155280000Y-65144800D01*
X145676000Y-65184800D02*
X155314000Y-65184800D01*
X145643000Y-65224800D02*
X155347000Y-65224800D01*
X145610000Y-65264800D02*
X155380000Y-65264800D01*
X145577000Y-65304800D02*
X155413000Y-65304800D01*
X145545000Y-65344800D02*
X155445000Y-65344800D01*
X151935000Y-65384800D02*
X155477000Y-65384800D01*
X145513000Y-65384800D02*
X149055000Y-65384800D01*
X151935000Y-65424800D02*
X155507000Y-65424800D01*
X145483000Y-65424800D02*
X149055000Y-65424800D01*
X151935000Y-65464800D02*
X155538000Y-65464800D01*
X145452000Y-65464800D02*
X149055000Y-65464800D01*
X151935000Y-65504800D02*
X155568000Y-65504800D01*
X145422000Y-65504800D02*
X149055000Y-65504800D01*
X151935000Y-65544800D02*
X155597000Y-65544800D01*
X145393000Y-65544800D02*
X149055000Y-65544800D01*
X151935000Y-65584800D02*
X155626000Y-65584800D01*
X145364000Y-65584800D02*
X149055000Y-65584800D01*
X151935000Y-65624800D02*
X155655000Y-65624800D01*
X145335000Y-65624800D02*
X149055000Y-65624800D01*
X151935000Y-65664800D02*
X155683000Y-65664800D01*
X145307000Y-65664800D02*
X149055000Y-65664800D01*
X151935000Y-65704800D02*
X155711000Y-65704800D01*
X145279000Y-65704800D02*
X149055000Y-65704800D01*
X151935000Y-65744800D02*
X155738000Y-65744800D01*
X145252000Y-65744800D02*
X149055000Y-65744800D01*
X151935000Y-65784800D02*
X155765000Y-65784800D01*
X145225000Y-65784800D02*
X149055000Y-65784800D01*
X151935000Y-65824800D02*
X155791000Y-65824800D01*
X145199000Y-65824800D02*
X149055000Y-65824800D01*
X151935000Y-65864800D02*
X155817000Y-65864800D01*
X145173000Y-65864800D02*
X149055000Y-65864800D01*
X151935000Y-65904800D02*
X155842000Y-65904800D01*
X145148000Y-65904800D02*
X149055000Y-65904800D01*
X151935000Y-65944800D02*
X155867000Y-65944800D01*
X145123000Y-65944800D02*
X149055000Y-65944800D01*
X151935000Y-65984800D02*
X155892000Y-65984800D01*
X145098000Y-65984800D02*
X149055000Y-65984800D01*
X151935000Y-66024800D02*
X155916000Y-66024800D01*
X145074000Y-66024800D02*
X149055000Y-66024800D01*
X151935000Y-66064800D02*
X155940000Y-66064800D01*
X145050000Y-66064800D02*
X149055000Y-66064800D01*
X151935000Y-66104800D02*
X155963000Y-66104800D01*
X145027000Y-66104800D02*
X149055000Y-66104800D01*
X151935000Y-66144800D02*
X155986000Y-66144800D01*
X145004000Y-66144800D02*
X149055000Y-66144800D01*
X151935000Y-66184800D02*
X156009000Y-66184800D01*
X144981000Y-66184800D02*
X149055000Y-66184800D01*
X151935000Y-66224800D02*
X156031000Y-66224800D01*
X144959000Y-66224800D02*
X149055000Y-66224800D01*
X151935000Y-66264800D02*
X156053000Y-66264800D01*
X144937000Y-66264800D02*
X149055000Y-66264800D01*
X151935000Y-66304800D02*
X156075000Y-66304800D01*
X144915000Y-66304800D02*
X149055000Y-66304800D01*
X151935000Y-66344800D02*
X156096000Y-66344800D01*
X144894000Y-66344800D02*
X149055000Y-66344800D01*
X151935000Y-66384800D02*
X156117000Y-66384800D01*
X144873000Y-66384800D02*
X149055000Y-66384800D01*
X151935000Y-66424800D02*
X156137000Y-66424800D01*
X144853000Y-66424800D02*
X149055000Y-66424800D01*
X151935000Y-66464800D02*
X156157000Y-66464800D01*
X144833000Y-66464800D02*
X149055000Y-66464800D01*
X151935000Y-66504800D02*
X156177000Y-66504800D01*
X144813000Y-66504800D02*
X149055000Y-66504800D01*
X151935000Y-66544800D02*
X156197000Y-66544800D01*
X144793000Y-66544800D02*
X149055000Y-66544800D01*
X151935000Y-66584800D02*
X156216000Y-66584800D01*
X144774000Y-66584800D02*
X149055000Y-66584800D01*
X151935000Y-66624800D02*
X156234000Y-66624800D01*
X144756000Y-66624800D02*
X149055000Y-66624800D01*
X151935000Y-66664800D02*
X156253000Y-66664800D01*
X144737000Y-66664800D02*
X149055000Y-66664800D01*
X151935000Y-66704800D02*
X156271000Y-66704800D01*
X144719000Y-66704800D02*
X149055000Y-66704800D01*
X151935000Y-66744800D02*
X156288000Y-66744800D01*
X144702000Y-66744800D02*
X149055000Y-66744800D01*
X151935000Y-66784800D02*
X156306000Y-66784800D01*
X144684000Y-66784800D02*
X149055000Y-66784800D01*
X151935000Y-66824800D02*
X156323000Y-66824800D01*
X144667000Y-66824800D02*
X149055000Y-66824800D01*
X151935000Y-66864800D02*
X156340000Y-66864800D01*
X144650000Y-66864800D02*
X149055000Y-66864800D01*
X151935000Y-66904800D02*
X156356000Y-66904800D01*
X144634000Y-66904800D02*
X149055000Y-66904800D01*
X151935000Y-66944800D02*
X156372000Y-66944800D01*
X144618000Y-66944800D02*
X149055000Y-66944800D01*
X151935000Y-66984800D02*
X156388000Y-66984800D01*
X144602000Y-66984800D02*
X149055000Y-66984800D01*
X151935000Y-67024800D02*
X156403000Y-67024800D01*
X144587000Y-67024800D02*
X149055000Y-67024800D01*
X151935000Y-67064800D02*
X156419000Y-67064800D01*
X144571000Y-67064800D02*
X149055000Y-67064800D01*
X151935000Y-67104800D02*
X156434000Y-67104800D01*
X144556000Y-67104800D02*
X149055000Y-67104800D01*
X151935000Y-67144800D02*
X156448000Y-67144800D01*
X144542000Y-67144800D02*
X149055000Y-67144800D01*
X151935000Y-67184800D02*
X156462000Y-67184800D01*
X144528000Y-67184800D02*
X149055000Y-67184800D01*
X151935000Y-67224800D02*
X156476000Y-67224800D01*
X144514000Y-67224800D02*
X149055000Y-67224800D01*
X151935000Y-67264800D02*
X156490000Y-67264800D01*
X144500000Y-67264800D02*
X149055000Y-67264800D01*
X151935000Y-67304800D02*
X156503000Y-67304800D01*
X144487000Y-67304800D02*
X149055000Y-67304800D01*
X151935000Y-67344800D02*
X156516000Y-67344800D01*
X144474000Y-67344800D02*
X149055000Y-67344800D01*
X151935000Y-67384800D02*
X156529000Y-67384800D01*
X144461000Y-67384800D02*
X149055000Y-67384800D01*
X151935000Y-67424800D02*
X156542000Y-67424800D01*
X144448000Y-67424800D02*
X149055000Y-67424800D01*
X151935000Y-67464800D02*
X156554000Y-67464800D01*
X144436000Y-67464800D02*
X149055000Y-67464800D01*
X151935000Y-67504800D02*
X156566000Y-67504800D01*
X144424000Y-67504800D02*
X149055000Y-67504800D01*
X151935000Y-67544800D02*
X156578000Y-67544800D01*
X144412000Y-67544800D02*
X149055000Y-67544800D01*
X151935000Y-67584800D02*
X156589000Y-67584800D01*
X144401000Y-67584800D02*
X149055000Y-67584800D01*
X151935000Y-67624800D02*
X156600000Y-67624800D01*
X144390000Y-67624800D02*
X149055000Y-67624800D01*
X151935000Y-67664800D02*
X156611000Y-67664800D01*
X144379000Y-67664800D02*
X149055000Y-67664800D01*
X151935000Y-67704800D02*
X156621000Y-67704800D01*
X144369000Y-67704800D02*
X149055000Y-67704800D01*
X151935000Y-67744800D02*
X156632000Y-67744800D01*
X144358000Y-67744800D02*
X149055000Y-67744800D01*
X151935000Y-67784800D02*
X156641000Y-67784800D01*
X144349000Y-67784800D02*
X149055000Y-67784800D01*
X151935000Y-67824800D02*
X156651000Y-67824800D01*
X144339000Y-67824800D02*
X149055000Y-67824800D01*
X151935000Y-67864800D02*
X156661000Y-67864800D01*
X144329000Y-67864800D02*
X149055000Y-67864800D01*
X151935000Y-67904800D02*
X156670000Y-67904800D01*
X144320000Y-67904800D02*
X149055000Y-67904800D01*
X151935000Y-67944800D02*
X156679000Y-67944800D01*
X144311000Y-67944800D02*
X149055000Y-67944800D01*
X151935000Y-67984800D02*
X156687000Y-67984800D01*
X144303000Y-67984800D02*
X149055000Y-67984800D01*
X151935000Y-68024800D02*
X156696000Y-68024800D01*
X144294000Y-68024800D02*
X149055000Y-68024800D01*
X151935000Y-68064800D02*
X156704000Y-68064800D01*
X144286000Y-68064800D02*
X149055000Y-68064800D01*
X151935000Y-68104800D02*
X156711000Y-68104800D01*
X144279000Y-68104800D02*
X149055000Y-68104800D01*
X151935000Y-68144800D02*
X156719000Y-68144800D01*
X144271000Y-68144800D02*
X149055000Y-68144800D01*
X151935000Y-68184800D02*
X156726000Y-68184800D01*
X144264000Y-68184800D02*
X149055000Y-68184800D01*
X151935000Y-68224800D02*
X156733000Y-68224800D01*
X144257000Y-68224800D02*
X149055000Y-68224800D01*
X144250000Y-68264800D02*
X156740000Y-68264800D01*
X144243000Y-68304800D02*
X156747000Y-68304800D01*
X144237000Y-68344800D02*
X156753000Y-68344800D01*
X144231000Y-68384800D02*
X156759000Y-68384800D01*
X144226000Y-68424800D02*
X156764000Y-68424800D01*
X144220000Y-68464800D02*
X156770000Y-68464800D01*
X144215000Y-68504800D02*
X156775000Y-68504800D01*
X144210000Y-68544800D02*
X156780000Y-68544800D01*
X144205000Y-68584800D02*
X156785000Y-68584800D01*
X144201000Y-68625800D02*
X156789000Y-68625800D01*
X144197000Y-68665800D02*
X156793000Y-68665800D01*
X144193000Y-68705800D02*
X156797000Y-68705800D01*
X144189000Y-68745800D02*
X156801000Y-68745800D01*
X144186000Y-68785800D02*
X156804000Y-68785800D01*
X144183000Y-68825800D02*
X156807000Y-68825800D01*
X144180000Y-68865800D02*
X156810000Y-68865800D01*
X144177000Y-68905800D02*
X156813000Y-68905800D01*
X144175000Y-68945800D02*
X156815000Y-68945800D01*
X144173000Y-68985800D02*
X156817000Y-68985800D01*
X144171000Y-69025800D02*
X156819000Y-69025800D01*
X144169000Y-69065800D02*
X156821000Y-69065800D01*
X144168000Y-69105800D02*
X156822000Y-69105800D01*
X144167000Y-69145800D02*
X156823000Y-69145800D01*
X144166000Y-69185800D02*
X156824000Y-69185800D01*
X144165000Y-69225800D02*
X156825000Y-69225800D01*
X144165000Y-69265800D02*
X156825000Y-69265800D01*
X144165000Y-69305800D02*
X156825000Y-69305800D01*
X156865000Y-69305800D02*
G75*
G03X156865000Y-69305800I-6370000J0D01*
G01*
X175788000Y-70017000D02*
G75*
G03X175788000Y-70017000I-6370000J0D01*
G01*
X163088000Y-70017000D02*
X175748000Y-70017000D01*
X163088000Y-69977000D02*
X175748000Y-69977000D01*
X163088000Y-69937000D02*
X175748000Y-69937000D01*
X163089000Y-69897000D02*
X175747000Y-69897000D01*
X163090000Y-69857000D02*
X175746000Y-69857000D01*
X163091000Y-69817000D02*
X175745000Y-69817000D01*
X163092000Y-69777000D02*
X175744000Y-69777000D01*
X163094000Y-69737000D02*
X175742000Y-69737000D01*
X163096000Y-69697000D02*
X175740000Y-69697000D01*
X163098000Y-69657000D02*
X175738000Y-69657000D01*
X163100000Y-69617000D02*
X175736000Y-69617000D01*
X163103000Y-69577000D02*
X175733000Y-69577000D01*
X163106000Y-69537000D02*
X175730000Y-69537000D01*
X163109000Y-69497000D02*
X175727000Y-69497000D01*
X163112000Y-69457000D02*
X175724000Y-69457000D01*
X163116000Y-69417000D02*
X175720000Y-69417000D01*
X163120000Y-69377000D02*
X175716000Y-69377000D01*
X163124000Y-69337000D02*
X175712000Y-69337000D01*
X163128000Y-69296000D02*
X175708000Y-69296000D01*
X163133000Y-69256000D02*
X175703000Y-69256000D01*
X163138000Y-69216000D02*
X175698000Y-69216000D01*
X163143000Y-69176000D02*
X175693000Y-69176000D01*
X163149000Y-69136000D02*
X175687000Y-69136000D01*
X163154000Y-69096000D02*
X175682000Y-69096000D01*
X163160000Y-69056000D02*
X175676000Y-69056000D01*
X163166000Y-69016000D02*
X175670000Y-69016000D01*
X163173000Y-68976000D02*
X175663000Y-68976000D01*
X163180000Y-68936000D02*
X167978000Y-68936000D01*
X170858000Y-68936000D02*
X175656000Y-68936000D01*
X163187000Y-68896000D02*
X167978000Y-68896000D01*
X170858000Y-68896000D02*
X175649000Y-68896000D01*
X163194000Y-68856000D02*
X167978000Y-68856000D01*
X170858000Y-68856000D02*
X175642000Y-68856000D01*
X163202000Y-68816000D02*
X167978000Y-68816000D01*
X170858000Y-68816000D02*
X175634000Y-68816000D01*
X163209000Y-68776000D02*
X167978000Y-68776000D01*
X170858000Y-68776000D02*
X175627000Y-68776000D01*
X163217000Y-68736000D02*
X167978000Y-68736000D01*
X170858000Y-68736000D02*
X175619000Y-68736000D01*
X163226000Y-68696000D02*
X167978000Y-68696000D01*
X170858000Y-68696000D02*
X175610000Y-68696000D01*
X163234000Y-68656000D02*
X167978000Y-68656000D01*
X170858000Y-68656000D02*
X175602000Y-68656000D01*
X163243000Y-68616000D02*
X167978000Y-68616000D01*
X170858000Y-68616000D02*
X175593000Y-68616000D01*
X163252000Y-68576000D02*
X167978000Y-68576000D01*
X170858000Y-68576000D02*
X175584000Y-68576000D01*
X163262000Y-68536000D02*
X167978000Y-68536000D01*
X170858000Y-68536000D02*
X175574000Y-68536000D01*
X163272000Y-68496000D02*
X167978000Y-68496000D01*
X170858000Y-68496000D02*
X175564000Y-68496000D01*
X163281000Y-68456000D02*
X167978000Y-68456000D01*
X170858000Y-68456000D02*
X175555000Y-68456000D01*
X163292000Y-68416000D02*
X167978000Y-68416000D01*
X170858000Y-68416000D02*
X175544000Y-68416000D01*
X163302000Y-68376000D02*
X167978000Y-68376000D01*
X170858000Y-68376000D02*
X175534000Y-68376000D01*
X163313000Y-68336000D02*
X167978000Y-68336000D01*
X170858000Y-68336000D02*
X175523000Y-68336000D01*
X163324000Y-68296000D02*
X167978000Y-68296000D01*
X170858000Y-68296000D02*
X175512000Y-68296000D01*
X163335000Y-68256000D02*
X167978000Y-68256000D01*
X170858000Y-68256000D02*
X175501000Y-68256000D01*
X163347000Y-68216000D02*
X167978000Y-68216000D01*
X170858000Y-68216000D02*
X175489000Y-68216000D01*
X163359000Y-68176000D02*
X167978000Y-68176000D01*
X170858000Y-68176000D02*
X175477000Y-68176000D01*
X163371000Y-68136000D02*
X167978000Y-68136000D01*
X170858000Y-68136000D02*
X175465000Y-68136000D01*
X163384000Y-68096000D02*
X167978000Y-68096000D01*
X170858000Y-68096000D02*
X175452000Y-68096000D01*
X163397000Y-68056000D02*
X167978000Y-68056000D01*
X170858000Y-68056000D02*
X175439000Y-68056000D01*
X163410000Y-68016000D02*
X167978000Y-68016000D01*
X170858000Y-68016000D02*
X175426000Y-68016000D01*
X163423000Y-67976000D02*
X167978000Y-67976000D01*
X170858000Y-67976000D02*
X175413000Y-67976000D01*
X163437000Y-67936000D02*
X167978000Y-67936000D01*
X170858000Y-67936000D02*
X175399000Y-67936000D01*
X163451000Y-67896000D02*
X167978000Y-67896000D01*
X170858000Y-67896000D02*
X175385000Y-67896000D01*
X163465000Y-67856000D02*
X167978000Y-67856000D01*
X170858000Y-67856000D02*
X175371000Y-67856000D01*
X163479000Y-67816000D02*
X167978000Y-67816000D01*
X170858000Y-67816000D02*
X175357000Y-67816000D01*
X163494000Y-67776000D02*
X167978000Y-67776000D01*
X170858000Y-67776000D02*
X175342000Y-67776000D01*
X163510000Y-67736000D02*
X167978000Y-67736000D01*
X170858000Y-67736000D02*
X175326000Y-67736000D01*
X163525000Y-67696000D02*
X167978000Y-67696000D01*
X170858000Y-67696000D02*
X175311000Y-67696000D01*
X163541000Y-67656000D02*
X167978000Y-67656000D01*
X170858000Y-67656000D02*
X175295000Y-67656000D01*
X163557000Y-67616000D02*
X167978000Y-67616000D01*
X170858000Y-67616000D02*
X175279000Y-67616000D01*
X163573000Y-67576000D02*
X167978000Y-67576000D01*
X170858000Y-67576000D02*
X175263000Y-67576000D01*
X163590000Y-67536000D02*
X167978000Y-67536000D01*
X170858000Y-67536000D02*
X175246000Y-67536000D01*
X163607000Y-67496000D02*
X167978000Y-67496000D01*
X170858000Y-67496000D02*
X175229000Y-67496000D01*
X163625000Y-67456000D02*
X167978000Y-67456000D01*
X170858000Y-67456000D02*
X175211000Y-67456000D01*
X163642000Y-67416000D02*
X167978000Y-67416000D01*
X170858000Y-67416000D02*
X175194000Y-67416000D01*
X163660000Y-67376000D02*
X167978000Y-67376000D01*
X170858000Y-67376000D02*
X175176000Y-67376000D01*
X163679000Y-67336000D02*
X167978000Y-67336000D01*
X170858000Y-67336000D02*
X175157000Y-67336000D01*
X163697000Y-67296000D02*
X167978000Y-67296000D01*
X170858000Y-67296000D02*
X175139000Y-67296000D01*
X163716000Y-67256000D02*
X167978000Y-67256000D01*
X170858000Y-67256000D02*
X175120000Y-67256000D01*
X163736000Y-67216000D02*
X167978000Y-67216000D01*
X170858000Y-67216000D02*
X175100000Y-67216000D01*
X163756000Y-67176000D02*
X167978000Y-67176000D01*
X170858000Y-67176000D02*
X175080000Y-67176000D01*
X163776000Y-67136000D02*
X167978000Y-67136000D01*
X170858000Y-67136000D02*
X175060000Y-67136000D01*
X163796000Y-67096000D02*
X167978000Y-67096000D01*
X170858000Y-67096000D02*
X175040000Y-67096000D01*
X163817000Y-67056000D02*
X167978000Y-67056000D01*
X170858000Y-67056000D02*
X175019000Y-67056000D01*
X163838000Y-67016000D02*
X167978000Y-67016000D01*
X170858000Y-67016000D02*
X174998000Y-67016000D01*
X163860000Y-66976000D02*
X167978000Y-66976000D01*
X170858000Y-66976000D02*
X174976000Y-66976000D01*
X163882000Y-66936000D02*
X167978000Y-66936000D01*
X170858000Y-66936000D02*
X174954000Y-66936000D01*
X163904000Y-66896000D02*
X167978000Y-66896000D01*
X170858000Y-66896000D02*
X174932000Y-66896000D01*
X163927000Y-66856000D02*
X167978000Y-66856000D01*
X170858000Y-66856000D02*
X174909000Y-66856000D01*
X163950000Y-66816000D02*
X167978000Y-66816000D01*
X170858000Y-66816000D02*
X174886000Y-66816000D01*
X163973000Y-66776000D02*
X167978000Y-66776000D01*
X170858000Y-66776000D02*
X174863000Y-66776000D01*
X163997000Y-66736000D02*
X167978000Y-66736000D01*
X170858000Y-66736000D02*
X174839000Y-66736000D01*
X164021000Y-66696000D02*
X167978000Y-66696000D01*
X170858000Y-66696000D02*
X174815000Y-66696000D01*
X164046000Y-66656000D02*
X167978000Y-66656000D01*
X170858000Y-66656000D02*
X174790000Y-66656000D01*
X164071000Y-66616000D02*
X167978000Y-66616000D01*
X170858000Y-66616000D02*
X174765000Y-66616000D01*
X164096000Y-66576000D02*
X167978000Y-66576000D01*
X170858000Y-66576000D02*
X174740000Y-66576000D01*
X164122000Y-66536000D02*
X167978000Y-66536000D01*
X170858000Y-66536000D02*
X174714000Y-66536000D01*
X164148000Y-66496000D02*
X167978000Y-66496000D01*
X170858000Y-66496000D02*
X174688000Y-66496000D01*
X164175000Y-66456000D02*
X167978000Y-66456000D01*
X170858000Y-66456000D02*
X174661000Y-66456000D01*
X164202000Y-66416000D02*
X167978000Y-66416000D01*
X170858000Y-66416000D02*
X174634000Y-66416000D01*
X164230000Y-66376000D02*
X167978000Y-66376000D01*
X170858000Y-66376000D02*
X174606000Y-66376000D01*
X164258000Y-66336000D02*
X167978000Y-66336000D01*
X170858000Y-66336000D02*
X174578000Y-66336000D01*
X164287000Y-66296000D02*
X167978000Y-66296000D01*
X170858000Y-66296000D02*
X174549000Y-66296000D01*
X164316000Y-66256000D02*
X167978000Y-66256000D01*
X170858000Y-66256000D02*
X174520000Y-66256000D01*
X164345000Y-66216000D02*
X167978000Y-66216000D01*
X170858000Y-66216000D02*
X174491000Y-66216000D01*
X164375000Y-66176000D02*
X167978000Y-66176000D01*
X170858000Y-66176000D02*
X174461000Y-66176000D01*
X164406000Y-66136000D02*
X167978000Y-66136000D01*
X170858000Y-66136000D02*
X174430000Y-66136000D01*
X164436000Y-66096000D02*
X167978000Y-66096000D01*
X170858000Y-66096000D02*
X174400000Y-66096000D01*
X164468000Y-66056000D02*
X174368000Y-66056000D01*
X164500000Y-66016000D02*
X174336000Y-66016000D01*
X164533000Y-65976000D02*
X174303000Y-65976000D01*
X164566000Y-65936000D02*
X174270000Y-65936000D01*
X164599000Y-65896000D02*
X174237000Y-65896000D01*
X164633000Y-65856000D02*
X174203000Y-65856000D01*
X164668000Y-65816000D02*
X174168000Y-65816000D01*
X164704000Y-65776000D02*
X174132000Y-65776000D01*
X164740000Y-65736000D02*
X174096000Y-65736000D01*
X164776000Y-65696000D02*
X174060000Y-65696000D01*
X164813000Y-65656000D02*
X174023000Y-65656000D01*
X164851000Y-65616000D02*
X173985000Y-65616000D01*
X164890000Y-65576000D02*
X173946000Y-65576000D01*
X164929000Y-65536000D02*
X173907000Y-65536000D01*
X164969000Y-65496000D02*
X173867000Y-65496000D01*
X165010000Y-65456000D02*
X173826000Y-65456000D01*
X165051000Y-65416000D02*
X173785000Y-65416000D01*
X165093000Y-65376000D02*
X173743000Y-65376000D01*
X165136000Y-65336000D02*
X173700000Y-65336000D01*
X165180000Y-65296000D02*
X173656000Y-65296000D01*
X165224000Y-65256000D02*
X173612000Y-65256000D01*
X165270000Y-65216000D02*
X173566000Y-65216000D01*
X165316000Y-65176000D02*
X173520000Y-65176000D01*
X165363000Y-65136000D02*
X173473000Y-65136000D01*
X165411000Y-65096000D02*
X173425000Y-65096000D01*
X165461000Y-65056000D02*
X173375000Y-65056000D01*
X165511000Y-65016000D02*
X173325000Y-65016000D01*
X165562000Y-64976000D02*
X173274000Y-64976000D01*
X165614000Y-64936000D02*
X173222000Y-64936000D01*
X165668000Y-64896000D02*
X173168000Y-64896000D01*
X165722000Y-64856000D02*
X173114000Y-64856000D01*
X165778000Y-64816000D02*
X173058000Y-64816000D01*
X165835000Y-64776000D02*
X173001000Y-64776000D01*
X165894000Y-64736000D02*
X172942000Y-64736000D01*
X165954000Y-64696000D02*
X172882000Y-64696000D01*
X166016000Y-64656000D02*
X172820000Y-64656000D01*
X166079000Y-64616000D02*
X172757000Y-64616000D01*
X166143000Y-64576000D02*
X172693000Y-64576000D01*
X166210000Y-64536000D02*
X172626000Y-64536000D01*
X166278000Y-64496000D02*
X172558000Y-64496000D01*
X166349000Y-64456000D02*
X172487000Y-64456000D01*
X166422000Y-64416000D02*
X172414000Y-64416000D01*
X166497000Y-64376000D02*
X172339000Y-64376000D01*
X166574000Y-64336000D02*
X172262000Y-64336000D01*
X166654000Y-64296000D02*
X172182000Y-64296000D01*
X166737000Y-64256000D02*
X172099000Y-64256000D01*
X166824000Y-64216000D02*
X172012000Y-64216000D01*
X166914000Y-64176000D02*
X171922000Y-64176000D01*
X167008000Y-64136000D02*
X171828000Y-64136000D01*
X167106000Y-64096000D02*
X171730000Y-64096000D01*
X167209000Y-64056000D02*
X171627000Y-64056000D01*
X167318000Y-64016000D02*
X171518000Y-64016000D01*
X167434000Y-63976000D02*
X171402000Y-63976000D01*
X167557000Y-63936000D02*
X171279000Y-63936000D01*
X167690000Y-63896000D02*
X171146000Y-63896000D01*
X167835000Y-63856000D02*
X171001000Y-63856000D01*
X167996000Y-63816000D02*
X170840000Y-63816000D01*
X168177000Y-63776000D02*
X170659000Y-63776000D01*
X168390000Y-63736000D02*
X170446000Y-63736000D01*
X168661000Y-63696000D02*
X170175000Y-63696000D01*
X169101000Y-63656000D02*
X169735000Y-63656000D01*
X165843000Y-76834082D02*
X165843000Y-75584082D01*
X165218000Y-76209082D02*
X166468000Y-76209082D01*
X124429800Y-77948560D02*
X122629800Y-77948560D01*
X123529800Y-77048560D02*
X123529800Y-78848560D01*
X118454800Y-95928000D02*
X118374800Y-95928000D01*
X119228800Y-95888000D02*
X117600800Y-95888000D01*
X119580800Y-95848000D02*
X117248800Y-95848000D01*
X119849800Y-95808000D02*
X116979800Y-95808000D01*
X120075800Y-95768000D02*
X116753800Y-95768000D01*
X120274800Y-95728000D02*
X116554800Y-95728000D01*
X120453800Y-95688000D02*
X116375800Y-95688000D01*
X120617800Y-95648000D02*
X116211800Y-95648000D01*
X120769800Y-95608000D02*
X116059800Y-95608000D01*
X120912800Y-95568000D02*
X115916800Y-95568000D01*
X121046800Y-95528000D02*
X115782800Y-95528000D01*
X121173800Y-95488000D02*
X115655800Y-95488000D01*
X121294800Y-95448000D02*
X115534800Y-95448000D01*
X121410800Y-95408000D02*
X115418800Y-95408000D01*
X121521800Y-95368000D02*
X115307800Y-95368000D01*
X121628800Y-95328000D02*
X115200800Y-95328000D01*
X121731800Y-95288000D02*
X115097800Y-95288000D01*
X121830800Y-95248000D02*
X114998800Y-95248000D01*
X121926800Y-95208000D02*
X114902800Y-95208000D01*
X122019800Y-95168000D02*
X114809800Y-95168000D01*
X122110800Y-95128000D02*
X114718800Y-95128000D01*
X122198800Y-95088000D02*
X114630800Y-95088000D01*
X122283800Y-95048000D02*
X114545800Y-95048000D01*
X122366800Y-95008000D02*
X114462800Y-95008000D01*
X122447800Y-94969000D02*
X114381800Y-94969000D01*
X122527800Y-94929000D02*
X114301800Y-94929000D01*
X122604800Y-94889000D02*
X114224800Y-94889000D01*
X122679800Y-94849000D02*
X114149800Y-94849000D01*
X122753800Y-94809000D02*
X114075800Y-94809000D01*
X122826800Y-94769000D02*
X114002800Y-94769000D01*
X122896800Y-94729000D02*
X113932800Y-94729000D01*
X122966800Y-94689000D02*
X113862800Y-94689000D01*
X123034800Y-94649000D02*
X113794800Y-94649000D01*
X123100800Y-94609000D02*
X113728800Y-94609000D01*
X123166800Y-94569000D02*
X113662800Y-94569000D01*
X123230800Y-94529000D02*
X113598800Y-94529000D01*
X123293800Y-94489000D02*
X113535800Y-94489000D01*
X123355800Y-94449000D02*
X113473800Y-94449000D01*
X123416800Y-94409000D02*
X113412800Y-94409000D01*
X123476800Y-94369000D02*
X113352800Y-94369000D01*
X123534800Y-94329000D02*
X113294800Y-94329000D01*
X123592800Y-94289000D02*
X113236800Y-94289000D01*
X123649800Y-94249000D02*
X113179800Y-94249000D01*
X123705800Y-94209000D02*
X113123800Y-94209000D01*
X123760800Y-94169000D02*
X113068800Y-94169000D01*
X123814800Y-94129000D02*
X113014800Y-94129000D01*
X123868800Y-94089000D02*
X112960800Y-94089000D01*
X123920800Y-94049000D02*
X112908800Y-94049000D01*
X123972800Y-94009000D02*
X112856800Y-94009000D01*
X124023800Y-93969000D02*
X112805800Y-93969000D01*
X124074800Y-93929000D02*
X112754800Y-93929000D01*
X124123800Y-93889000D02*
X112705800Y-93889000D01*
X124172800Y-93849000D02*
X112656800Y-93849000D01*
X124220800Y-93809000D02*
X112608800Y-93809000D01*
X124268800Y-93769000D02*
X112560800Y-93769000D01*
X124315800Y-93729000D02*
X112513800Y-93729000D01*
X124361800Y-93689000D02*
X112467800Y-93689000D01*
X124407800Y-93649000D02*
X112421800Y-93649000D01*
X124452800Y-93609000D02*
X112376800Y-93609000D01*
X124496800Y-93569000D02*
X112332800Y-93569000D01*
X124540800Y-93529000D02*
X112288800Y-93529000D01*
X124584800Y-93489000D02*
X112244800Y-93489000D01*
X124626800Y-93449000D02*
X112202800Y-93449000D01*
X124668800Y-93409000D02*
X112160800Y-93409000D01*
X124710800Y-93369000D02*
X112118800Y-93369000D01*
X124751800Y-93329000D02*
X112077800Y-93329000D01*
X124792800Y-93289000D02*
X112036800Y-93289000D01*
X124832800Y-93249000D02*
X111996800Y-93249000D01*
X124872800Y-93209000D02*
X111956800Y-93209000D01*
X124911800Y-93169000D02*
X111917800Y-93169000D01*
X124950800Y-93129000D02*
X111878800Y-93129000D01*
X124988800Y-93089000D02*
X111840800Y-93089000D01*
X125026800Y-93049000D02*
X111802800Y-93049000D01*
X125063800Y-93009000D02*
X111765800Y-93009000D01*
X125100800Y-92969000D02*
X111728800Y-92969000D01*
X125136800Y-92929000D02*
X111692800Y-92929000D01*
X125172800Y-92889000D02*
X111656800Y-92889000D01*
X125208800Y-92849000D02*
X111620800Y-92849000D01*
X125243800Y-92809000D02*
X111585800Y-92809000D01*
X125278800Y-92769000D02*
X111550800Y-92769000D01*
X125312800Y-92729000D02*
X111516800Y-92729000D01*
X125346800Y-92689000D02*
X111482800Y-92689000D01*
X125379800Y-92649000D02*
X111449800Y-92649000D01*
X125413800Y-92609000D02*
X111415800Y-92609000D01*
X125445800Y-92569000D02*
X111383800Y-92569000D01*
X125478800Y-92529000D02*
X111350800Y-92529000D01*
X125510800Y-92489000D02*
X111318800Y-92489000D01*
X125541800Y-92449000D02*
X111287800Y-92449000D01*
X125573800Y-92409000D02*
X111255800Y-92409000D01*
X125604800Y-92369000D02*
X111224800Y-92369000D01*
X125634800Y-92329000D02*
X111194800Y-92329000D01*
X125664800Y-92289000D02*
X111164800Y-92289000D01*
X125694800Y-92249000D02*
X111134800Y-92249000D01*
X125724800Y-92209000D02*
X111104800Y-92209000D01*
X125753800Y-92169000D02*
X111075800Y-92169000D01*
X125782800Y-92129000D02*
X111046800Y-92129000D01*
X125811800Y-92089000D02*
X111017800Y-92089000D01*
X125839800Y-92049000D02*
X110989800Y-92049000D01*
X125867800Y-92009000D02*
X110961800Y-92009000D01*
X116974800Y-91969000D02*
X110934800Y-91969000D01*
X125894800Y-91969000D02*
X119854800Y-91969000D01*
X116974800Y-91929000D02*
X110906800Y-91929000D01*
X125922800Y-91929000D02*
X119854800Y-91929000D01*
X116974800Y-91889000D02*
X110879800Y-91889000D01*
X125949800Y-91889000D02*
X119854800Y-91889000D01*
X116974800Y-91849000D02*
X110853800Y-91849000D01*
X125975800Y-91849000D02*
X119854800Y-91849000D01*
X116974800Y-91809000D02*
X110826800Y-91809000D01*
X126002800Y-91809000D02*
X119854800Y-91809000D01*
X116974800Y-91769000D02*
X110800800Y-91769000D01*
X126028800Y-91769000D02*
X119854800Y-91769000D01*
X116974800Y-91729000D02*
X110774800Y-91729000D01*
X126054800Y-91729000D02*
X119854800Y-91729000D01*
X116974800Y-91689000D02*
X110749800Y-91689000D01*
X126079800Y-91689000D02*
X119854800Y-91689000D01*
X116974800Y-91649000D02*
X110724800Y-91649000D01*
X126104800Y-91649000D02*
X119854800Y-91649000D01*
X116974800Y-91609000D02*
X110699800Y-91609000D01*
X126129800Y-91609000D02*
X119854800Y-91609000D01*
X116974800Y-91569000D02*
X110674800Y-91569000D01*
X126154800Y-91569000D02*
X119854800Y-91569000D01*
X116974800Y-91529000D02*
X110650800Y-91529000D01*
X126178800Y-91529000D02*
X119854800Y-91529000D01*
X116974800Y-91489000D02*
X110626800Y-91489000D01*
X126202800Y-91489000D02*
X119854800Y-91489000D01*
X116974800Y-91449000D02*
X110602800Y-91449000D01*
X126226800Y-91449000D02*
X119854800Y-91449000D01*
X116974800Y-91409000D02*
X110579800Y-91409000D01*
X126249800Y-91409000D02*
X119854800Y-91409000D01*
X116974800Y-91369000D02*
X110555800Y-91369000D01*
X126273800Y-91369000D02*
X119854800Y-91369000D01*
X116974800Y-91329000D02*
X110532800Y-91329000D01*
X126296800Y-91329000D02*
X119854800Y-91329000D01*
X116974800Y-91289000D02*
X110510800Y-91289000D01*
X126318800Y-91289000D02*
X119854800Y-91289000D01*
X116974800Y-91249000D02*
X110487800Y-91249000D01*
X126341800Y-91249000D02*
X119854800Y-91249000D01*
X116974800Y-91209000D02*
X110465800Y-91209000D01*
X126363800Y-91209000D02*
X119854800Y-91209000D01*
X116974800Y-91169000D02*
X110443800Y-91169000D01*
X126385800Y-91169000D02*
X119854800Y-91169000D01*
X116974800Y-91129000D02*
X110422800Y-91129000D01*
X126406800Y-91129000D02*
X119854800Y-91129000D01*
X116974800Y-91089000D02*
X110400800Y-91089000D01*
X126428800Y-91089000D02*
X119854800Y-91089000D01*
X116974800Y-91049000D02*
X110379800Y-91049000D01*
X126449800Y-91049000D02*
X119854800Y-91049000D01*
X116974800Y-91009000D02*
X110358800Y-91009000D01*
X126470800Y-91009000D02*
X119854800Y-91009000D01*
X116974800Y-90969000D02*
X110338800Y-90969000D01*
X126490800Y-90969000D02*
X119854800Y-90969000D01*
X116974800Y-90929000D02*
X110317800Y-90929000D01*
X126511800Y-90929000D02*
X119854800Y-90929000D01*
X116974800Y-90889000D02*
X110297800Y-90889000D01*
X126531800Y-90889000D02*
X119854800Y-90889000D01*
X116974800Y-90849000D02*
X110277800Y-90849000D01*
X126551800Y-90849000D02*
X119854800Y-90849000D01*
X116974800Y-90809000D02*
X110258800Y-90809000D01*
X126570800Y-90809000D02*
X119854800Y-90809000D01*
X116974800Y-90769000D02*
X110238800Y-90769000D01*
X126590800Y-90769000D02*
X119854800Y-90769000D01*
X116974800Y-90729000D02*
X110219800Y-90729000D01*
X126609800Y-90729000D02*
X119854800Y-90729000D01*
X116974800Y-90689000D02*
X110200800Y-90689000D01*
X126628800Y-90689000D02*
X119854800Y-90689000D01*
X116974800Y-90649000D02*
X110181800Y-90649000D01*
X126647800Y-90649000D02*
X119854800Y-90649000D01*
X116974800Y-90609000D02*
X110163800Y-90609000D01*
X126665800Y-90609000D02*
X119854800Y-90609000D01*
X116974800Y-90569000D02*
X110145800Y-90569000D01*
X126683800Y-90569000D02*
X119854800Y-90569000D01*
X116974800Y-90529000D02*
X110127800Y-90529000D01*
X126701800Y-90529000D02*
X119854800Y-90529000D01*
X116974800Y-90489000D02*
X110109800Y-90489000D01*
X126719800Y-90489000D02*
X119854800Y-90489000D01*
X116974800Y-90449000D02*
X110091800Y-90449000D01*
X126737800Y-90449000D02*
X119854800Y-90449000D01*
X116974800Y-90409000D02*
X110074800Y-90409000D01*
X126754800Y-90409000D02*
X119854800Y-90409000D01*
X116974800Y-90369000D02*
X110057800Y-90369000D01*
X126771800Y-90369000D02*
X119854800Y-90369000D01*
X116974800Y-90329000D02*
X110040800Y-90329000D01*
X126788800Y-90329000D02*
X119854800Y-90329000D01*
X116974800Y-90289000D02*
X110024800Y-90289000D01*
X126804800Y-90289000D02*
X119854800Y-90289000D01*
X116974800Y-90249000D02*
X110007800Y-90249000D01*
X126821800Y-90249000D02*
X119854800Y-90249000D01*
X116974800Y-90209000D02*
X109991800Y-90209000D01*
X126837800Y-90209000D02*
X119854800Y-90209000D01*
X116974800Y-90169000D02*
X109975800Y-90169000D01*
X126853800Y-90169000D02*
X119854800Y-90169000D01*
X116974800Y-90129000D02*
X109959800Y-90129000D01*
X126869800Y-90129000D02*
X119854800Y-90129000D01*
X116974800Y-90089000D02*
X109944800Y-90089000D01*
X126884800Y-90089000D02*
X119854800Y-90089000D01*
X116974800Y-90049000D02*
X109928800Y-90049000D01*
X126900800Y-90049000D02*
X119854800Y-90049000D01*
X116974800Y-90009000D02*
X109913800Y-90009000D01*
X126915800Y-90009000D02*
X119854800Y-90009000D01*
X116974800Y-89969000D02*
X109898800Y-89969000D01*
X126930800Y-89969000D02*
X119854800Y-89969000D01*
X116974800Y-89929000D02*
X109884800Y-89929000D01*
X126944800Y-89929000D02*
X119854800Y-89929000D01*
X116974800Y-89889000D02*
X109869800Y-89889000D01*
X126959800Y-89889000D02*
X119854800Y-89889000D01*
X116974800Y-89849000D02*
X109855800Y-89849000D01*
X126973800Y-89849000D02*
X119854800Y-89849000D01*
X116974800Y-89809000D02*
X109841800Y-89809000D01*
X126987800Y-89809000D02*
X119854800Y-89809000D01*
X116974800Y-89769000D02*
X109827800Y-89769000D01*
X127001800Y-89769000D02*
X119854800Y-89769000D01*
X116974800Y-89729000D02*
X109814800Y-89729000D01*
X127014800Y-89729000D02*
X119854800Y-89729000D01*
X116974800Y-89689000D02*
X109800800Y-89689000D01*
X127028800Y-89689000D02*
X119854800Y-89689000D01*
X116974800Y-89649000D02*
X109787800Y-89649000D01*
X127041800Y-89649000D02*
X119854800Y-89649000D01*
X116974800Y-89609000D02*
X109774800Y-89609000D01*
X127054800Y-89609000D02*
X119854800Y-89609000D01*
X116974800Y-89569000D02*
X109761800Y-89569000D01*
X127067800Y-89569000D02*
X119854800Y-89569000D01*
X116974800Y-89529000D02*
X109749800Y-89529000D01*
X127079800Y-89529000D02*
X119854800Y-89529000D01*
X116974800Y-89489000D02*
X109736800Y-89489000D01*
X127092800Y-89489000D02*
X119854800Y-89489000D01*
X116974800Y-89449000D02*
X109724800Y-89449000D01*
X127104800Y-89449000D02*
X119854800Y-89449000D01*
X116974800Y-89409000D02*
X109712800Y-89409000D01*
X127116800Y-89409000D02*
X119854800Y-89409000D01*
X116974800Y-89369000D02*
X109700800Y-89369000D01*
X127128800Y-89369000D02*
X119854800Y-89369000D01*
X116974800Y-89329000D02*
X109689800Y-89329000D01*
X127139800Y-89329000D02*
X119854800Y-89329000D01*
X116974800Y-89289000D02*
X109677800Y-89289000D01*
X127151800Y-89289000D02*
X119854800Y-89289000D01*
X116974800Y-89249000D02*
X109666800Y-89249000D01*
X127162800Y-89249000D02*
X119854800Y-89249000D01*
X116974800Y-89209000D02*
X109655800Y-89209000D01*
X127173800Y-89209000D02*
X119854800Y-89209000D01*
X116974800Y-89169000D02*
X109644800Y-89169000D01*
X127184800Y-89169000D02*
X119854800Y-89169000D01*
X116974800Y-89129000D02*
X109634800Y-89129000D01*
X127194800Y-89129000D02*
X119854800Y-89129000D01*
X127205800Y-89089000D02*
X109623800Y-89089000D01*
X127215800Y-89049000D02*
X109613800Y-89049000D01*
X127225800Y-89009000D02*
X109603800Y-89009000D01*
X127235800Y-88969000D02*
X109593800Y-88969000D01*
X127245800Y-88929000D02*
X109583800Y-88929000D01*
X127254800Y-88889000D02*
X109574800Y-88889000D01*
X127263800Y-88849000D02*
X109565800Y-88849000D01*
X127272800Y-88809000D02*
X109556800Y-88809000D01*
X127281800Y-88769000D02*
X109547800Y-88769000D01*
X127290800Y-88729000D02*
X109538800Y-88729000D01*
X127299800Y-88689000D02*
X109529800Y-88689000D01*
X127307800Y-88649000D02*
X109521800Y-88649000D01*
X127315800Y-88609000D02*
X109513800Y-88609000D01*
X127323800Y-88569000D02*
X109505800Y-88569000D01*
X127331800Y-88529000D02*
X109497800Y-88529000D01*
X127338800Y-88489000D02*
X109490800Y-88489000D01*
X127346800Y-88449000D02*
X109482800Y-88449000D01*
X127353800Y-88409000D02*
X109475800Y-88409000D01*
X127360800Y-88369000D02*
X109468800Y-88369000D01*
X127367800Y-88329000D02*
X109461800Y-88329000D01*
X127374800Y-88289000D02*
X109454800Y-88289000D01*
X127380800Y-88249000D02*
X109448800Y-88249000D01*
X127386800Y-88209000D02*
X109442800Y-88209000D01*
X127393800Y-88169000D02*
X109435800Y-88169000D01*
X127398800Y-88129000D02*
X109430800Y-88129000D01*
X127404800Y-88089000D02*
X109424800Y-88089000D01*
X127410800Y-88049000D02*
X109418800Y-88049000D01*
X127415800Y-88009000D02*
X109413800Y-88009000D01*
X127420800Y-87969000D02*
X109408800Y-87969000D01*
X127425800Y-87929000D02*
X109403800Y-87929000D01*
X127430800Y-87889000D02*
X109398800Y-87889000D01*
X127435800Y-87849000D02*
X109393800Y-87849000D01*
X127440800Y-87809000D02*
X109388800Y-87809000D01*
X127444800Y-87769000D02*
X109384800Y-87769000D01*
X127448800Y-87729000D02*
X109380800Y-87729000D01*
X127452800Y-87689000D02*
X109376800Y-87689000D01*
X127456800Y-87649000D02*
X109372800Y-87649000D01*
X127459800Y-87609000D02*
X109369800Y-87609000D01*
X127463800Y-87569000D02*
X109365800Y-87569000D01*
X127466800Y-87529000D02*
X109362800Y-87529000D01*
X127469800Y-87488000D02*
X109359800Y-87488000D01*
X127472800Y-87448000D02*
X109356800Y-87448000D01*
X127475800Y-87408000D02*
X109353800Y-87408000D01*
X127477800Y-87368000D02*
X109351800Y-87368000D01*
X127480800Y-87328000D02*
X109348800Y-87328000D01*
X127482800Y-87288000D02*
X109346800Y-87288000D01*
X127484800Y-87248000D02*
X109344800Y-87248000D01*
X127486800Y-87208000D02*
X109342800Y-87208000D01*
X127487800Y-87168000D02*
X109341800Y-87168000D01*
X127489800Y-87128000D02*
X109339800Y-87128000D01*
X127490800Y-87088000D02*
X109338800Y-87088000D01*
X127491800Y-87048000D02*
X109337800Y-87048000D01*
X127492800Y-87008000D02*
X109336800Y-87008000D01*
X127493800Y-86968000D02*
X109335800Y-86968000D01*
X127494800Y-86928000D02*
X109334800Y-86928000D01*
X127494800Y-86888000D02*
X109334800Y-86888000D01*
X127494800Y-86848000D02*
X109334800Y-86848000D01*
X127495800Y-86808000D02*
X109333800Y-86808000D01*
X127534800Y-86808000D02*
G75*
G03X127534800Y-86808000I-9120000J0D01*
G01*
X158929200Y-86858800D02*
G75*
G03X158929200Y-86858800I-9120000J0D01*
G01*
X158890200Y-86858800D02*
X140728200Y-86858800D01*
X158889200Y-86898800D02*
X140729200Y-86898800D01*
X158889200Y-86938800D02*
X140729200Y-86938800D01*
X158889200Y-86978800D02*
X140729200Y-86978800D01*
X158888200Y-87018800D02*
X140730200Y-87018800D01*
X158887200Y-87058800D02*
X140731200Y-87058800D01*
X158886200Y-87098800D02*
X140732200Y-87098800D01*
X158885200Y-87138800D02*
X140733200Y-87138800D01*
X158884200Y-87178800D02*
X140734200Y-87178800D01*
X158882200Y-87218800D02*
X140736200Y-87218800D01*
X158881200Y-87258800D02*
X140737200Y-87258800D01*
X158879200Y-87298800D02*
X140739200Y-87298800D01*
X158877200Y-87338800D02*
X140741200Y-87338800D01*
X158875200Y-87378800D02*
X140743200Y-87378800D01*
X158872200Y-87418800D02*
X140746200Y-87418800D01*
X158870200Y-87458800D02*
X140748200Y-87458800D01*
X158867200Y-87498800D02*
X140751200Y-87498800D01*
X158864200Y-87538800D02*
X140754200Y-87538800D01*
X158861200Y-87579800D02*
X140757200Y-87579800D01*
X158858200Y-87619800D02*
X140760200Y-87619800D01*
X158854200Y-87659800D02*
X140764200Y-87659800D01*
X158851200Y-87699800D02*
X140767200Y-87699800D01*
X158847200Y-87739800D02*
X140771200Y-87739800D01*
X158843200Y-87779800D02*
X140775200Y-87779800D01*
X158839200Y-87819800D02*
X140779200Y-87819800D01*
X158835200Y-87859800D02*
X140783200Y-87859800D01*
X158830200Y-87899800D02*
X140788200Y-87899800D01*
X158825200Y-87939800D02*
X140793200Y-87939800D01*
X158820200Y-87979800D02*
X140798200Y-87979800D01*
X158815200Y-88019800D02*
X140803200Y-88019800D01*
X158810200Y-88059800D02*
X140808200Y-88059800D01*
X158805200Y-88099800D02*
X140813200Y-88099800D01*
X158799200Y-88139800D02*
X140819200Y-88139800D01*
X158793200Y-88179800D02*
X140825200Y-88179800D01*
X158788200Y-88219800D02*
X140830200Y-88219800D01*
X158781200Y-88259800D02*
X140837200Y-88259800D01*
X158775200Y-88299800D02*
X140843200Y-88299800D01*
X158769200Y-88339800D02*
X140849200Y-88339800D01*
X158762200Y-88379800D02*
X140856200Y-88379800D01*
X158755200Y-88419800D02*
X140863200Y-88419800D01*
X158748200Y-88459800D02*
X140870200Y-88459800D01*
X158741200Y-88499800D02*
X140877200Y-88499800D01*
X158733200Y-88539800D02*
X140885200Y-88539800D01*
X158726200Y-88579800D02*
X140892200Y-88579800D01*
X158718200Y-88619800D02*
X140900200Y-88619800D01*
X158710200Y-88659800D02*
X140908200Y-88659800D01*
X158702200Y-88699800D02*
X140916200Y-88699800D01*
X158694200Y-88739800D02*
X140924200Y-88739800D01*
X158685200Y-88779800D02*
X140933200Y-88779800D01*
X158676200Y-88819800D02*
X140942200Y-88819800D01*
X158667200Y-88859800D02*
X140951200Y-88859800D01*
X158658200Y-88899800D02*
X140960200Y-88899800D01*
X158649200Y-88939800D02*
X140969200Y-88939800D01*
X158640200Y-88979800D02*
X140978200Y-88979800D01*
X158630200Y-89019800D02*
X140988200Y-89019800D01*
X158620200Y-89059800D02*
X140998200Y-89059800D01*
X158610200Y-89099800D02*
X141008200Y-89099800D01*
X158600200Y-89139800D02*
X141018200Y-89139800D01*
X158589200Y-89179800D02*
X151249200Y-89179800D01*
X148369200Y-89179800D02*
X141029200Y-89179800D01*
X158579200Y-89219800D02*
X151249200Y-89219800D01*
X148369200Y-89219800D02*
X141039200Y-89219800D01*
X158568200Y-89259800D02*
X151249200Y-89259800D01*
X148369200Y-89259800D02*
X141050200Y-89259800D01*
X158557200Y-89299800D02*
X151249200Y-89299800D01*
X148369200Y-89299800D02*
X141061200Y-89299800D01*
X158546200Y-89339800D02*
X151249200Y-89339800D01*
X148369200Y-89339800D02*
X141072200Y-89339800D01*
X158534200Y-89379800D02*
X151249200Y-89379800D01*
X148369200Y-89379800D02*
X141084200Y-89379800D01*
X158523200Y-89419800D02*
X151249200Y-89419800D01*
X148369200Y-89419800D02*
X141095200Y-89419800D01*
X158511200Y-89459800D02*
X151249200Y-89459800D01*
X148369200Y-89459800D02*
X141107200Y-89459800D01*
X158499200Y-89499800D02*
X151249200Y-89499800D01*
X148369200Y-89499800D02*
X141119200Y-89499800D01*
X158487200Y-89539800D02*
X151249200Y-89539800D01*
X148369200Y-89539800D02*
X141131200Y-89539800D01*
X158474200Y-89579800D02*
X151249200Y-89579800D01*
X148369200Y-89579800D02*
X141144200Y-89579800D01*
X158462200Y-89619800D02*
X151249200Y-89619800D01*
X148369200Y-89619800D02*
X141156200Y-89619800D01*
X158449200Y-89659800D02*
X151249200Y-89659800D01*
X148369200Y-89659800D02*
X141169200Y-89659800D01*
X158436200Y-89699800D02*
X151249200Y-89699800D01*
X148369200Y-89699800D02*
X141182200Y-89699800D01*
X158423200Y-89739800D02*
X151249200Y-89739800D01*
X148369200Y-89739800D02*
X141195200Y-89739800D01*
X158409200Y-89779800D02*
X151249200Y-89779800D01*
X148369200Y-89779800D02*
X141209200Y-89779800D01*
X158396200Y-89819800D02*
X151249200Y-89819800D01*
X148369200Y-89819800D02*
X141222200Y-89819800D01*
X158382200Y-89859800D02*
X151249200Y-89859800D01*
X148369200Y-89859800D02*
X141236200Y-89859800D01*
X158368200Y-89899800D02*
X151249200Y-89899800D01*
X148369200Y-89899800D02*
X141250200Y-89899800D01*
X158354200Y-89939800D02*
X151249200Y-89939800D01*
X148369200Y-89939800D02*
X141264200Y-89939800D01*
X158339200Y-89979800D02*
X151249200Y-89979800D01*
X148369200Y-89979800D02*
X141279200Y-89979800D01*
X158325200Y-90019800D02*
X151249200Y-90019800D01*
X148369200Y-90019800D02*
X141293200Y-90019800D01*
X158310200Y-90059800D02*
X151249200Y-90059800D01*
X148369200Y-90059800D02*
X141308200Y-90059800D01*
X158295200Y-90099800D02*
X151249200Y-90099800D01*
X148369200Y-90099800D02*
X141323200Y-90099800D01*
X158279200Y-90139800D02*
X151249200Y-90139800D01*
X148369200Y-90139800D02*
X141339200Y-90139800D01*
X158264200Y-90179800D02*
X151249200Y-90179800D01*
X148369200Y-90179800D02*
X141354200Y-90179800D01*
X158248200Y-90219800D02*
X151249200Y-90219800D01*
X148369200Y-90219800D02*
X141370200Y-90219800D01*
X158232200Y-90259800D02*
X151249200Y-90259800D01*
X148369200Y-90259800D02*
X141386200Y-90259800D01*
X158216200Y-90299800D02*
X151249200Y-90299800D01*
X148369200Y-90299800D02*
X141402200Y-90299800D01*
X158199200Y-90339800D02*
X151249200Y-90339800D01*
X148369200Y-90339800D02*
X141419200Y-90339800D01*
X158183200Y-90379800D02*
X151249200Y-90379800D01*
X148369200Y-90379800D02*
X141435200Y-90379800D01*
X158166200Y-90419800D02*
X151249200Y-90419800D01*
X148369200Y-90419800D02*
X141452200Y-90419800D01*
X158149200Y-90459800D02*
X151249200Y-90459800D01*
X148369200Y-90459800D02*
X141469200Y-90459800D01*
X158132200Y-90499800D02*
X151249200Y-90499800D01*
X148369200Y-90499800D02*
X141486200Y-90499800D01*
X158114200Y-90539800D02*
X151249200Y-90539800D01*
X148369200Y-90539800D02*
X141504200Y-90539800D01*
X158096200Y-90579800D02*
X151249200Y-90579800D01*
X148369200Y-90579800D02*
X141522200Y-90579800D01*
X158078200Y-90619800D02*
X151249200Y-90619800D01*
X148369200Y-90619800D02*
X141540200Y-90619800D01*
X158060200Y-90659800D02*
X151249200Y-90659800D01*
X148369200Y-90659800D02*
X141558200Y-90659800D01*
X158042200Y-90699800D02*
X151249200Y-90699800D01*
X148369200Y-90699800D02*
X141576200Y-90699800D01*
X158023200Y-90739800D02*
X151249200Y-90739800D01*
X148369200Y-90739800D02*
X141595200Y-90739800D01*
X158004200Y-90779800D02*
X151249200Y-90779800D01*
X148369200Y-90779800D02*
X141614200Y-90779800D01*
X157985200Y-90819800D02*
X151249200Y-90819800D01*
X148369200Y-90819800D02*
X141633200Y-90819800D01*
X157965200Y-90859800D02*
X151249200Y-90859800D01*
X148369200Y-90859800D02*
X141653200Y-90859800D01*
X157946200Y-90899800D02*
X151249200Y-90899800D01*
X148369200Y-90899800D02*
X141672200Y-90899800D01*
X157926200Y-90939800D02*
X151249200Y-90939800D01*
X148369200Y-90939800D02*
X141692200Y-90939800D01*
X157906200Y-90979800D02*
X151249200Y-90979800D01*
X148369200Y-90979800D02*
X141712200Y-90979800D01*
X157885200Y-91019800D02*
X151249200Y-91019800D01*
X148369200Y-91019800D02*
X141733200Y-91019800D01*
X157865200Y-91059800D02*
X151249200Y-91059800D01*
X148369200Y-91059800D02*
X141753200Y-91059800D01*
X157844200Y-91099800D02*
X151249200Y-91099800D01*
X148369200Y-91099800D02*
X141774200Y-91099800D01*
X157823200Y-91139800D02*
X151249200Y-91139800D01*
X148369200Y-91139800D02*
X141795200Y-91139800D01*
X157801200Y-91179800D02*
X151249200Y-91179800D01*
X148369200Y-91179800D02*
X141817200Y-91179800D01*
X157780200Y-91219800D02*
X151249200Y-91219800D01*
X148369200Y-91219800D02*
X141838200Y-91219800D01*
X157758200Y-91259800D02*
X151249200Y-91259800D01*
X148369200Y-91259800D02*
X141860200Y-91259800D01*
X157736200Y-91299800D02*
X151249200Y-91299800D01*
X148369200Y-91299800D02*
X141882200Y-91299800D01*
X157713200Y-91339800D02*
X151249200Y-91339800D01*
X148369200Y-91339800D02*
X141905200Y-91339800D01*
X157691200Y-91379800D02*
X151249200Y-91379800D01*
X148369200Y-91379800D02*
X141927200Y-91379800D01*
X157668200Y-91419800D02*
X151249200Y-91419800D01*
X148369200Y-91419800D02*
X141950200Y-91419800D01*
X157644200Y-91459800D02*
X151249200Y-91459800D01*
X148369200Y-91459800D02*
X141974200Y-91459800D01*
X157621200Y-91499800D02*
X151249200Y-91499800D01*
X148369200Y-91499800D02*
X141997200Y-91499800D01*
X157597200Y-91539800D02*
X151249200Y-91539800D01*
X148369200Y-91539800D02*
X142021200Y-91539800D01*
X157573200Y-91579800D02*
X151249200Y-91579800D01*
X148369200Y-91579800D02*
X142045200Y-91579800D01*
X157549200Y-91619800D02*
X151249200Y-91619800D01*
X148369200Y-91619800D02*
X142069200Y-91619800D01*
X157524200Y-91659800D02*
X151249200Y-91659800D01*
X148369200Y-91659800D02*
X142094200Y-91659800D01*
X157499200Y-91699800D02*
X151249200Y-91699800D01*
X148369200Y-91699800D02*
X142119200Y-91699800D01*
X157474200Y-91739800D02*
X151249200Y-91739800D01*
X148369200Y-91739800D02*
X142144200Y-91739800D01*
X157449200Y-91779800D02*
X151249200Y-91779800D01*
X148369200Y-91779800D02*
X142169200Y-91779800D01*
X157423200Y-91819800D02*
X151249200Y-91819800D01*
X148369200Y-91819800D02*
X142195200Y-91819800D01*
X157397200Y-91859800D02*
X151249200Y-91859800D01*
X148369200Y-91859800D02*
X142221200Y-91859800D01*
X157370200Y-91899800D02*
X151249200Y-91899800D01*
X148369200Y-91899800D02*
X142248200Y-91899800D01*
X157344200Y-91939800D02*
X151249200Y-91939800D01*
X148369200Y-91939800D02*
X142274200Y-91939800D01*
X157317200Y-91979800D02*
X151249200Y-91979800D01*
X148369200Y-91979800D02*
X142301200Y-91979800D01*
X157289200Y-92019800D02*
X151249200Y-92019800D01*
X148369200Y-92019800D02*
X142329200Y-92019800D01*
X157262200Y-92059800D02*
X142356200Y-92059800D01*
X157234200Y-92099800D02*
X142384200Y-92099800D01*
X157206200Y-92139800D02*
X142412200Y-92139800D01*
X157177200Y-92179800D02*
X142441200Y-92179800D01*
X157148200Y-92219800D02*
X142470200Y-92219800D01*
X157119200Y-92259800D02*
X142499200Y-92259800D01*
X157089200Y-92299800D02*
X142529200Y-92299800D01*
X157059200Y-92339800D02*
X142559200Y-92339800D01*
X157029200Y-92379800D02*
X142589200Y-92379800D01*
X156999200Y-92419800D02*
X142619200Y-92419800D01*
X156968200Y-92459800D02*
X142650200Y-92459800D01*
X156936200Y-92499800D02*
X142682200Y-92499800D01*
X156905200Y-92539800D02*
X142713200Y-92539800D01*
X156873200Y-92579800D02*
X142745200Y-92579800D01*
X156840200Y-92619800D02*
X142778200Y-92619800D01*
X156808200Y-92659800D02*
X142810200Y-92659800D01*
X156774200Y-92699800D02*
X142844200Y-92699800D01*
X156741200Y-92739800D02*
X142877200Y-92739800D01*
X156707200Y-92779800D02*
X142911200Y-92779800D01*
X156673200Y-92819800D02*
X142945200Y-92819800D01*
X156638200Y-92859800D02*
X142980200Y-92859800D01*
X156603200Y-92899800D02*
X143015200Y-92899800D01*
X156567200Y-92939800D02*
X143051200Y-92939800D01*
X156531200Y-92979800D02*
X143087200Y-92979800D01*
X156495200Y-93019800D02*
X143123200Y-93019800D01*
X156458200Y-93059800D02*
X143160200Y-93059800D01*
X156421200Y-93099800D02*
X143197200Y-93099800D01*
X156383200Y-93139800D02*
X143235200Y-93139800D01*
X156345200Y-93179800D02*
X143273200Y-93179800D01*
X156306200Y-93219800D02*
X143312200Y-93219800D01*
X156267200Y-93259800D02*
X143351200Y-93259800D01*
X156227200Y-93299800D02*
X143391200Y-93299800D01*
X156187200Y-93339800D02*
X143431200Y-93339800D01*
X156146200Y-93379800D02*
X143472200Y-93379800D01*
X156105200Y-93419800D02*
X143513200Y-93419800D01*
X156063200Y-93459800D02*
X143555200Y-93459800D01*
X156021200Y-93499800D02*
X143597200Y-93499800D01*
X155979200Y-93539800D02*
X143639200Y-93539800D01*
X155935200Y-93579800D02*
X143683200Y-93579800D01*
X155891200Y-93619800D02*
X143727200Y-93619800D01*
X155847200Y-93659800D02*
X143771200Y-93659800D01*
X155802200Y-93699800D02*
X143816200Y-93699800D01*
X155756200Y-93739800D02*
X143862200Y-93739800D01*
X155710200Y-93779800D02*
X143908200Y-93779800D01*
X155663200Y-93819800D02*
X143955200Y-93819800D01*
X155615200Y-93859800D02*
X144003200Y-93859800D01*
X155567200Y-93899800D02*
X144051200Y-93899800D01*
X155518200Y-93939800D02*
X144100200Y-93939800D01*
X155469200Y-93979800D02*
X144149200Y-93979800D01*
X155418200Y-94019800D02*
X144200200Y-94019800D01*
X155367200Y-94059800D02*
X144251200Y-94059800D01*
X155315200Y-94099800D02*
X144303200Y-94099800D01*
X155263200Y-94139800D02*
X144355200Y-94139800D01*
X155209200Y-94179800D02*
X144409200Y-94179800D01*
X155155200Y-94219800D02*
X144463200Y-94219800D01*
X155100200Y-94259800D02*
X144518200Y-94259800D01*
X155044200Y-94299800D02*
X144574200Y-94299800D01*
X154987200Y-94339800D02*
X144631200Y-94339800D01*
X154929200Y-94379800D02*
X144689200Y-94379800D01*
X154871200Y-94419800D02*
X144747200Y-94419800D01*
X154811200Y-94459800D02*
X144807200Y-94459800D01*
X154750200Y-94499800D02*
X144868200Y-94499800D01*
X154688200Y-94539800D02*
X144930200Y-94539800D01*
X154625200Y-94579800D02*
X144993200Y-94579800D01*
X154561200Y-94619800D02*
X145057200Y-94619800D01*
X154495200Y-94659800D02*
X145123200Y-94659800D01*
X154429200Y-94699800D02*
X145189200Y-94699800D01*
X154361200Y-94739800D02*
X145257200Y-94739800D01*
X154291200Y-94779800D02*
X145327200Y-94779800D01*
X154221200Y-94819800D02*
X145397200Y-94819800D01*
X154148200Y-94859800D02*
X145470200Y-94859800D01*
X154074200Y-94899800D02*
X145544200Y-94899800D01*
X153999200Y-94939800D02*
X145619200Y-94939800D01*
X153922200Y-94979800D02*
X145696200Y-94979800D01*
X153842200Y-95019800D02*
X145776200Y-95019800D01*
X153761200Y-95058800D02*
X145857200Y-95058800D01*
X153678200Y-95098800D02*
X145940200Y-95098800D01*
X153593200Y-95138800D02*
X146025200Y-95138800D01*
X153505200Y-95178800D02*
X146113200Y-95178800D01*
X153414200Y-95218800D02*
X146204200Y-95218800D01*
X153321200Y-95258800D02*
X146297200Y-95258800D01*
X153225200Y-95298800D02*
X146393200Y-95298800D01*
X153126200Y-95338800D02*
X146492200Y-95338800D01*
X153023200Y-95378800D02*
X146595200Y-95378800D01*
X152916200Y-95418800D02*
X146702200Y-95418800D01*
X152805200Y-95458800D02*
X146813200Y-95458800D01*
X152689200Y-95498800D02*
X146929200Y-95498800D01*
X152568200Y-95538800D02*
X147050200Y-95538800D01*
X152441200Y-95578800D02*
X147177200Y-95578800D01*
X152307200Y-95618800D02*
X147311200Y-95618800D01*
X152164200Y-95658800D02*
X147454200Y-95658800D01*
X152012200Y-95698800D02*
X147606200Y-95698800D01*
X151848200Y-95738800D02*
X147770200Y-95738800D01*
X151669200Y-95778800D02*
X147949200Y-95778800D01*
X151470200Y-95818800D02*
X148148200Y-95818800D01*
X151244200Y-95858800D02*
X148374200Y-95858800D01*
X150975200Y-95898800D02*
X148643200Y-95898800D01*
X150623200Y-95938800D02*
X148995200Y-95938800D01*
X149849200Y-95978800D02*
X149769200Y-95978800D01*
X154924200Y-77099360D02*
X154924200Y-78899360D01*
X155824200Y-77999360D02*
X154024200Y-77999360D01*
D15*
X114096800Y-69485400D02*
X114696800Y-69485400D01*
X114096800Y-69485400D02*
X113496800Y-69485400D01*
X114096800Y-69485400D02*
X114096800Y-70185400D01*
X114096800Y-66685400D02*
X114096800Y-68485400D01*
X113396800Y-68485400D02*
X114796800Y-68485400D01*
X114796800Y-68485400D02*
X114096800Y-69485400D01*
X114096800Y-69485400D02*
X113396800Y-68485400D01*
X114096800Y-70185400D02*
X114096800Y-70985400D01*
X114096800Y-64985400D02*
X114096800Y-66685400D01*
X114096800Y-70985400D02*
X114896800Y-70985400D01*
X114896800Y-70985400D02*
X114896800Y-66685400D01*
X114896800Y-66685400D02*
X114096800Y-66685400D01*
X114096800Y-72385400D02*
X114096800Y-70985400D01*
X114096800Y-70985400D02*
X113296800Y-70985400D01*
X113296800Y-70985400D02*
X113296800Y-66685400D01*
X113296800Y-66685400D02*
X114096800Y-66685400D01*
X108369000Y-70550800D02*
X107569000Y-70550800D01*
X108369000Y-66250800D02*
X108369000Y-70550800D01*
X107569000Y-66250800D02*
X108369000Y-66250800D01*
X107569000Y-64850800D02*
X107569000Y-66250800D01*
X106769000Y-70550800D02*
X107569000Y-70550800D01*
X106769000Y-66250800D02*
X106769000Y-70550800D01*
X107569000Y-66250800D02*
X106769000Y-66250800D01*
X107569000Y-72250800D02*
X107569000Y-70550800D01*
X107569000Y-67050800D02*
X107569000Y-66250800D01*
X107569000Y-67750800D02*
X108269000Y-68750800D01*
X106869000Y-68750800D02*
X107569000Y-67750800D01*
X108269000Y-68750800D02*
X106869000Y-68750800D01*
X107569000Y-70550800D02*
X107569000Y-68750800D01*
X107569000Y-67750800D02*
X107569000Y-67050800D01*
X107569000Y-67750800D02*
X108169000Y-67750800D01*
X107569000Y-67750800D02*
X106969000Y-67750800D01*
X81584800Y-69071600D02*
X80984800Y-69071600D01*
X81584800Y-69071600D02*
X82184800Y-69071600D01*
X81584800Y-69071600D02*
X81584800Y-68371600D01*
X81584800Y-71871600D02*
X81584800Y-70071600D01*
X82284800Y-70071600D02*
X80884800Y-70071600D01*
X80884800Y-70071600D02*
X81584800Y-69071600D01*
X81584800Y-69071600D02*
X82284800Y-70071600D01*
X81584800Y-68371600D02*
X81584800Y-67571600D01*
X81584800Y-73571600D02*
X81584800Y-71871600D01*
X81584800Y-67571600D02*
X80784800Y-67571600D01*
X80784800Y-67571600D02*
X80784800Y-71871600D01*
X80784800Y-71871600D02*
X81584800Y-71871600D01*
X81584800Y-66171600D02*
X81584800Y-67571600D01*
X81584800Y-67571600D02*
X82384800Y-67571600D01*
X82384800Y-67571600D02*
X82384800Y-71871600D01*
X82384800Y-71871600D02*
X81584800Y-71871600D01*
D11*
X74373200Y-67725600D02*
X73573200Y-67725600D01*
X73573200Y-67725600D02*
X73573200Y-65065600D01*
X73573200Y-65065600D02*
X74693200Y-65065600D01*
X74693200Y-65065600D02*
X74693200Y-65140923D01*
X73573200Y-67290600D02*
X69573200Y-67290600D01*
X69573200Y-67290600D02*
X69573200Y-66770600D01*
X69573200Y-66770600D02*
X73573200Y-66770600D01*
X73573200Y-67230600D02*
X69573200Y-67230600D01*
X73573200Y-67110600D02*
X69573200Y-67110600D01*
X73573200Y-66990600D02*
X69573200Y-66990600D01*
X73573200Y-66870600D02*
X69573200Y-66870600D01*
X74373200Y-66395600D02*
X73573200Y-66395600D01*
X73573200Y-66020600D02*
X69573200Y-66020600D01*
X69573200Y-66020600D02*
X69573200Y-65500600D01*
X69573200Y-65500600D02*
X73573200Y-65500600D01*
X75893200Y-67030600D02*
X75893200Y-67790600D01*
X75893200Y-67790600D02*
X75133200Y-67790600D01*
X137618800Y-72027800D02*
X137948800Y-72027800D01*
X137618800Y-65487800D02*
X137618800Y-72027800D01*
X137948800Y-65487800D02*
X137618800Y-65487800D01*
X140358800Y-72027800D02*
X140028800Y-72027800D01*
X140358800Y-65487800D02*
X140358800Y-72027800D01*
X140028800Y-65487800D02*
X140358800Y-65487800D01*
X162705800Y-77646400D02*
X162705800Y-77976400D01*
X162705800Y-77976400D02*
X156165800Y-77976400D01*
X156165800Y-77976400D02*
X156165800Y-77646400D01*
X162705800Y-75566400D02*
X162705800Y-75236400D01*
X162705800Y-75236400D02*
X156165800Y-75236400D01*
X156165800Y-75236400D02*
X156165800Y-75566400D01*
X98071200Y-91852000D02*
X104011200Y-91852000D01*
X104011200Y-91852000D02*
X104011200Y-77312000D01*
X104011200Y-77312000D02*
X98071200Y-77312000D01*
X98071200Y-77312000D02*
X98071200Y-91852000D01*
X101041200Y-93102000D02*
X101041200Y-91852000D01*
X101041200Y-76062000D02*
X101041200Y-77312000D01*
X133934200Y-76011200D02*
X133934200Y-77261200D01*
X133934200Y-93051200D02*
X133934200Y-91801200D01*
X130964200Y-77261200D02*
X130964200Y-91801200D01*
X136904200Y-77261200D02*
X130964200Y-77261200D01*
X136904200Y-91801200D02*
X136904200Y-77261200D01*
X130964200Y-91801200D02*
X136904200Y-91801200D01*
X116346600Y-98091200D02*
X136586600Y-98091200D01*
X116346600Y-129831200D02*
X136586600Y-129831200D01*
X136586600Y-129831200D02*
X136586600Y-98091200D01*
X116346600Y-129831200D02*
X116346600Y-98091200D01*
D15*
X152504600Y-118671200D02*
X152004600Y-118671200D01*
X152504600Y-118671200D02*
X152504600Y-119171200D01*
X152504600Y-126571200D02*
X152504600Y-126071200D01*
X152504600Y-126571200D02*
X152004600Y-126571200D01*
X149704600Y-126571200D02*
X150204600Y-126571200D01*
X149704600Y-126571200D02*
X149704600Y-126071200D01*
X149704600Y-118671200D02*
X150204600Y-118671200D01*
X149704600Y-118671200D02*
X149704600Y-119171200D01*
D11*
X141174600Y-105073200D02*
X140844600Y-105073200D01*
X140844600Y-105073200D02*
X140844600Y-98533200D01*
X140844600Y-98533200D02*
X141174600Y-98533200D01*
X143254600Y-105073200D02*
X143584600Y-105073200D01*
X143584600Y-105073200D02*
X143584600Y-98533200D01*
X143584600Y-98533200D02*
X143254600Y-98533200D01*
D15*
X148194400Y-98677400D02*
X148194400Y-99177400D01*
X148194400Y-98677400D02*
X148644400Y-98677400D01*
X148194400Y-113877400D02*
X148644400Y-113877400D01*
X148194400Y-113877400D02*
X148194400Y-113377400D01*
X155894400Y-113877400D02*
X155894400Y-113377400D01*
X155894400Y-113877400D02*
X155394400Y-113877400D01*
X155894400Y-98677400D02*
X155394400Y-98677400D01*
X155894400Y-98677400D02*
X155894400Y-99177400D01*
D16*
X71056666Y-123217380D02*
X70723333Y-122741190D01*
X70485238Y-123217380D02*
X70485238Y-122217380D01*
X70866190Y-122217380D01*
X70961428Y-122265000D01*
X71009047Y-122312619D01*
X71056666Y-122407857D01*
X71056666Y-122550714D01*
X71009047Y-122645952D01*
X70961428Y-122693571D01*
X70866190Y-122741190D01*
X70485238Y-122741190D01*
X71485238Y-122693571D02*
X71818571Y-122693571D01*
X71961428Y-123217380D02*
X71485238Y-123217380D01*
X71485238Y-122217380D01*
X71961428Y-122217380D01*
X72723333Y-122693571D02*
X72390000Y-122693571D01*
X72390000Y-123217380D02*
X72390000Y-122217380D01*
X72866190Y-122217380D01*
X73390000Y-122217380D02*
X73390000Y-122455476D01*
X73151904Y-122360238D02*
X73390000Y-122455476D01*
X73628095Y-122360238D01*
X73247142Y-122645952D02*
X73390000Y-122455476D01*
X73532857Y-122645952D01*
X74151904Y-122217380D02*
X74151904Y-122455476D01*
X73913809Y-122360238D02*
X74151904Y-122455476D01*
X74390000Y-122360238D01*
X74009047Y-122645952D02*
X74151904Y-122455476D01*
X74294761Y-122645952D01*
X71056666Y-139272380D02*
X70723333Y-138796190D01*
X70485238Y-139272380D02*
X70485238Y-138272380D01*
X70866190Y-138272380D01*
X70961428Y-138320000D01*
X71009047Y-138367619D01*
X71056666Y-138462857D01*
X71056666Y-138605714D01*
X71009047Y-138700952D01*
X70961428Y-138748571D01*
X70866190Y-138796190D01*
X70485238Y-138796190D01*
X71485238Y-138748571D02*
X71818571Y-138748571D01*
X71961428Y-139272380D02*
X71485238Y-139272380D01*
X71485238Y-138272380D01*
X71961428Y-138272380D01*
X72723333Y-138748571D02*
X72390000Y-138748571D01*
X72390000Y-139272380D02*
X72390000Y-138272380D01*
X72866190Y-138272380D01*
X73390000Y-138272380D02*
X73390000Y-138510476D01*
X73151904Y-138415238D02*
X73390000Y-138510476D01*
X73628095Y-138415238D01*
X73247142Y-138700952D02*
X73390000Y-138510476D01*
X73532857Y-138700952D01*
X74151904Y-138272380D02*
X74151904Y-138510476D01*
X73913809Y-138415238D02*
X74151904Y-138510476D01*
X74390000Y-138415238D01*
X74009047Y-138700952D02*
X74151904Y-138510476D01*
X74294761Y-138700952D01*
X71056666Y-60532380D02*
X70723333Y-60056190D01*
X70485238Y-60532380D02*
X70485238Y-59532380D01*
X70866190Y-59532380D01*
X70961428Y-59580000D01*
X71009047Y-59627619D01*
X71056666Y-59722857D01*
X71056666Y-59865714D01*
X71009047Y-59960952D01*
X70961428Y-60008571D01*
X70866190Y-60056190D01*
X70485238Y-60056190D01*
X71485238Y-60008571D02*
X71818571Y-60008571D01*
X71961428Y-60532380D02*
X71485238Y-60532380D01*
X71485238Y-59532380D01*
X71961428Y-59532380D01*
X72723333Y-60008571D02*
X72390000Y-60008571D01*
X72390000Y-60532380D02*
X72390000Y-59532380D01*
X72866190Y-59532380D01*
X73390000Y-59532380D02*
X73390000Y-59770476D01*
X73151904Y-59675238D02*
X73390000Y-59770476D01*
X73628095Y-59675238D01*
X73247142Y-59960952D02*
X73390000Y-59770476D01*
X73532857Y-59960952D01*
X74151904Y-59532380D02*
X74151904Y-59770476D01*
X73913809Y-59675238D02*
X74151904Y-59770476D01*
X74390000Y-59675238D01*
X74009047Y-59960952D02*
X74151904Y-59770476D01*
X74294761Y-59960952D01*
X175196666Y-52132380D02*
X174863333Y-51656190D01*
X174625238Y-52132380D02*
X174625238Y-51132380D01*
X175006190Y-51132380D01*
X175101428Y-51180000D01*
X175149047Y-51227619D01*
X175196666Y-51322857D01*
X175196666Y-51465714D01*
X175149047Y-51560952D01*
X175101428Y-51608571D01*
X175006190Y-51656190D01*
X174625238Y-51656190D01*
X175625238Y-51608571D02*
X175958571Y-51608571D01*
X176101428Y-52132380D02*
X175625238Y-52132380D01*
X175625238Y-51132380D01*
X176101428Y-51132380D01*
X176863333Y-51608571D02*
X176530000Y-51608571D01*
X176530000Y-52132380D02*
X176530000Y-51132380D01*
X177006190Y-51132380D01*
X177530000Y-51132380D02*
X177530000Y-51370476D01*
X177291904Y-51275238D02*
X177530000Y-51370476D01*
X177768095Y-51275238D01*
X177387142Y-51560952D02*
X177530000Y-51370476D01*
X177672857Y-51560952D01*
X178291904Y-51132380D02*
X178291904Y-51370476D01*
X178053809Y-51275238D02*
X178291904Y-51370476D01*
X178530000Y-51275238D01*
X178149047Y-51560952D02*
X178291904Y-51370476D01*
X178434761Y-51560952D01*
X175196666Y-130872380D02*
X174863333Y-130396190D01*
X174625238Y-130872380D02*
X174625238Y-129872380D01*
X175006190Y-129872380D01*
X175101428Y-129920000D01*
X175149047Y-129967619D01*
X175196666Y-130062857D01*
X175196666Y-130205714D01*
X175149047Y-130300952D01*
X175101428Y-130348571D01*
X175006190Y-130396190D01*
X174625238Y-130396190D01*
X175625238Y-130348571D02*
X175958571Y-130348571D01*
X176101428Y-130872380D02*
X175625238Y-130872380D01*
X175625238Y-129872380D01*
X176101428Y-129872380D01*
X176863333Y-130348571D02*
X176530000Y-130348571D01*
X176530000Y-130872380D02*
X176530000Y-129872380D01*
X177006190Y-129872380D01*
X177530000Y-129872380D02*
X177530000Y-130110476D01*
X177291904Y-130015238D02*
X177530000Y-130110476D01*
X177768095Y-130015238D01*
X177387142Y-130300952D02*
X177530000Y-130110476D01*
X177672857Y-130300952D01*
X178291904Y-129872380D02*
X178291904Y-130110476D01*
X178053809Y-130015238D02*
X178291904Y-130110476D01*
X178530000Y-130015238D01*
X178149047Y-130300952D02*
X178291904Y-130110476D01*
X178434761Y-130300952D01*
D17*
X169067744Y-108632620D02*
X168686687Y-108899360D01*
X169067744Y-109089888D02*
X168267524Y-109089888D01*
X168267524Y-108785042D01*
X168305630Y-108708831D01*
X168343735Y-108670725D01*
X168419947Y-108632620D01*
X168534264Y-108632620D01*
X168610475Y-108670725D01*
X168648581Y-108708831D01*
X168686687Y-108785042D01*
X168686687Y-109089888D01*
X168648581Y-108289668D02*
X168648581Y-108022928D01*
X169067744Y-107908611D02*
X169067744Y-108289668D01*
X168267524Y-108289668D01*
X168267524Y-107908611D01*
X168648581Y-107298920D02*
X168648581Y-107565660D01*
X169067744Y-107565660D02*
X168267524Y-107565660D01*
X168267524Y-107184602D01*
X168267524Y-106765440D02*
X168458052Y-106765440D01*
X168381841Y-106955968D02*
X168458052Y-106765440D01*
X168381841Y-106574911D01*
X168610475Y-106879757D02*
X168458052Y-106765440D01*
X168610475Y-106651122D01*
X168267524Y-106155748D02*
X168458052Y-106155748D01*
X168381841Y-106346277D02*
X168458052Y-106155748D01*
X168381841Y-105965220D01*
X168610475Y-106270065D02*
X168458052Y-106155748D01*
X168610475Y-106041431D01*
D16*
X185495780Y-98222733D02*
X186210066Y-98222733D01*
X186352923Y-98270352D01*
X186448161Y-98365590D01*
X186495780Y-98508447D01*
X186495780Y-98603685D01*
X185591019Y-97794161D02*
X185543400Y-97746542D01*
X185495780Y-97651304D01*
X185495780Y-97413209D01*
X185543400Y-97317971D01*
X185591019Y-97270352D01*
X185686257Y-97222733D01*
X185781495Y-97222733D01*
X185924352Y-97270352D01*
X186495780Y-97841780D01*
X186495780Y-97222733D01*
X104889419Y-111364780D02*
X105079895Y-111364780D01*
X105175133Y-111412400D01*
X105270371Y-111507638D01*
X105317990Y-111698114D01*
X105317990Y-112031447D01*
X105270371Y-112221923D01*
X105175133Y-112317161D01*
X105079895Y-112364780D01*
X104889419Y-112364780D01*
X104794180Y-112317161D01*
X104698942Y-112221923D01*
X104651323Y-112031447D01*
X104651323Y-111698114D01*
X104698942Y-111507638D01*
X104794180Y-111412400D01*
X104889419Y-111364780D01*
X105603704Y-111364780D02*
X106175133Y-111364780D01*
X105889419Y-112364780D02*
X105889419Y-111364780D01*
X106460847Y-111460019D02*
X106508466Y-111412400D01*
X106603704Y-111364780D01*
X106841800Y-111364780D01*
X106937038Y-111412400D01*
X106984657Y-111460019D01*
X107032276Y-111555257D01*
X107032276Y-111650495D01*
X106984657Y-111793352D01*
X106413228Y-112364780D01*
X107032276Y-112364780D01*
X85211542Y-67491266D02*
X85259161Y-67538885D01*
X85306780Y-67681742D01*
X85306780Y-67776980D01*
X85259161Y-67919838D01*
X85163923Y-68015076D01*
X85068685Y-68062695D01*
X84878209Y-68110314D01*
X84735352Y-68110314D01*
X84544876Y-68062695D01*
X84449638Y-68015076D01*
X84354400Y-67919838D01*
X84306780Y-67776980D01*
X84306780Y-67681742D01*
X84354400Y-67538885D01*
X84402019Y-67491266D01*
X85306780Y-66538885D02*
X85306780Y-67110314D01*
X85306780Y-66824600D02*
X84306780Y-66824600D01*
X84449638Y-66919838D01*
X84544876Y-67015076D01*
X84592495Y-67110314D01*
X118002942Y-68583466D02*
X118050561Y-68631085D01*
X118098180Y-68773942D01*
X118098180Y-68869180D01*
X118050561Y-69012038D01*
X117955323Y-69107276D01*
X117860085Y-69154895D01*
X117669609Y-69202514D01*
X117526752Y-69202514D01*
X117336276Y-69154895D01*
X117241038Y-69107276D01*
X117145800Y-69012038D01*
X117098180Y-68869180D01*
X117098180Y-68773942D01*
X117145800Y-68631085D01*
X117193419Y-68583466D01*
X117193419Y-68202514D02*
X117145800Y-68154895D01*
X117098180Y-68059657D01*
X117098180Y-67821561D01*
X117145800Y-67726323D01*
X117193419Y-67678704D01*
X117288657Y-67631085D01*
X117383895Y-67631085D01*
X117526752Y-67678704D01*
X118098180Y-68250133D01*
X118098180Y-67631085D01*
X96865542Y-86796866D02*
X96913161Y-86844485D01*
X96960780Y-86987342D01*
X96960780Y-87082580D01*
X96913161Y-87225438D01*
X96817923Y-87320676D01*
X96722685Y-87368295D01*
X96532209Y-87415914D01*
X96389352Y-87415914D01*
X96198876Y-87368295D01*
X96103638Y-87320676D01*
X96008400Y-87225438D01*
X95960780Y-87082580D01*
X95960780Y-86987342D01*
X96008400Y-86844485D01*
X96056019Y-86796866D01*
X95960780Y-86463533D02*
X95960780Y-85844485D01*
X96341733Y-86177819D01*
X96341733Y-86034961D01*
X96389352Y-85939723D01*
X96436971Y-85892104D01*
X96532209Y-85844485D01*
X96770304Y-85844485D01*
X96865542Y-85892104D01*
X96913161Y-85939723D01*
X96960780Y-86034961D01*
X96960780Y-86320676D01*
X96913161Y-86415914D01*
X96865542Y-86463533D01*
X143352142Y-69472466D02*
X143399761Y-69520085D01*
X143447380Y-69662942D01*
X143447380Y-69758180D01*
X143399761Y-69901038D01*
X143304523Y-69996276D01*
X143209285Y-70043895D01*
X143018809Y-70091514D01*
X142875952Y-70091514D01*
X142685476Y-70043895D01*
X142590238Y-69996276D01*
X142495000Y-69901038D01*
X142447380Y-69758180D01*
X142447380Y-69662942D01*
X142495000Y-69520085D01*
X142542619Y-69472466D01*
X142780714Y-68615323D02*
X143447380Y-68615323D01*
X142399761Y-68853419D02*
X143114047Y-69091514D01*
X143114047Y-68472466D01*
X162275142Y-70183666D02*
X162322761Y-70231285D01*
X162370380Y-70374142D01*
X162370380Y-70469380D01*
X162322761Y-70612238D01*
X162227523Y-70707476D01*
X162132285Y-70755095D01*
X161941809Y-70802714D01*
X161798952Y-70802714D01*
X161608476Y-70755095D01*
X161513238Y-70707476D01*
X161418000Y-70612238D01*
X161370380Y-70469380D01*
X161370380Y-70374142D01*
X161418000Y-70231285D01*
X161465619Y-70183666D01*
X161370380Y-69278904D02*
X161370380Y-69755095D01*
X161846571Y-69802714D01*
X161798952Y-69755095D01*
X161751333Y-69659857D01*
X161751333Y-69421761D01*
X161798952Y-69326523D01*
X161846571Y-69278904D01*
X161941809Y-69231285D01*
X162179904Y-69231285D01*
X162275142Y-69278904D01*
X162322761Y-69326523D01*
X162370380Y-69421761D01*
X162370380Y-69659857D01*
X162322761Y-69755095D01*
X162275142Y-69802714D01*
X126391942Y-94807066D02*
X126439561Y-94854685D01*
X126487180Y-94997542D01*
X126487180Y-95092780D01*
X126439561Y-95235638D01*
X126344323Y-95330876D01*
X126249085Y-95378495D01*
X126058609Y-95426114D01*
X125915752Y-95426114D01*
X125725276Y-95378495D01*
X125630038Y-95330876D01*
X125534800Y-95235638D01*
X125487180Y-95092780D01*
X125487180Y-94997542D01*
X125534800Y-94854685D01*
X125582419Y-94807066D01*
X125487180Y-93949923D02*
X125487180Y-94140400D01*
X125534800Y-94235638D01*
X125582419Y-94283257D01*
X125725276Y-94378495D01*
X125915752Y-94426114D01*
X126296704Y-94426114D01*
X126391942Y-94378495D01*
X126439561Y-94330876D01*
X126487180Y-94235638D01*
X126487180Y-94045161D01*
X126439561Y-93949923D01*
X126391942Y-93902304D01*
X126296704Y-93854685D01*
X126058609Y-93854685D01*
X125963371Y-93902304D01*
X125915752Y-93949923D01*
X125868133Y-94045161D01*
X125868133Y-94235638D01*
X125915752Y-94330876D01*
X125963371Y-94378495D01*
X126058609Y-94426114D01*
X160416342Y-87025466D02*
X160463961Y-87073085D01*
X160511580Y-87215942D01*
X160511580Y-87311180D01*
X160463961Y-87454038D01*
X160368723Y-87549276D01*
X160273485Y-87596895D01*
X160083009Y-87644514D01*
X159940152Y-87644514D01*
X159749676Y-87596895D01*
X159654438Y-87549276D01*
X159559200Y-87454038D01*
X159511580Y-87311180D01*
X159511580Y-87215942D01*
X159559200Y-87073085D01*
X159606819Y-87025466D01*
X159511580Y-86692133D02*
X159511580Y-86025466D01*
X160511580Y-86454038D01*
X116733580Y-72086695D02*
X115733580Y-72086695D01*
X115733580Y-71848600D01*
X115781200Y-71705742D01*
X115876438Y-71610504D01*
X115971676Y-71562885D01*
X116162152Y-71515266D01*
X116305009Y-71515266D01*
X116495485Y-71562885D01*
X116590723Y-71610504D01*
X116685961Y-71705742D01*
X116733580Y-71848600D01*
X116733580Y-72086695D01*
X116733580Y-70562885D02*
X116733580Y-71134314D01*
X116733580Y-70848600D02*
X115733580Y-70848600D01*
X115876438Y-70943838D01*
X115971676Y-71039076D01*
X116019295Y-71134314D01*
X110180380Y-71578695D02*
X109180380Y-71578695D01*
X109180380Y-71340600D01*
X109228000Y-71197742D01*
X109323238Y-71102504D01*
X109418476Y-71054885D01*
X109608952Y-71007266D01*
X109751809Y-71007266D01*
X109942285Y-71054885D01*
X110037523Y-71102504D01*
X110132761Y-71197742D01*
X110180380Y-71340600D01*
X110180380Y-71578695D01*
X109275619Y-70626314D02*
X109228000Y-70578695D01*
X109180380Y-70483457D01*
X109180380Y-70245361D01*
X109228000Y-70150123D01*
X109275619Y-70102504D01*
X109370857Y-70054885D01*
X109466095Y-70054885D01*
X109608952Y-70102504D01*
X110180380Y-70673933D01*
X110180380Y-70054885D01*
X85637180Y-71609695D02*
X84637180Y-71609695D01*
X84637180Y-71371600D01*
X84684800Y-71228742D01*
X84780038Y-71133504D01*
X84875276Y-71085885D01*
X85065752Y-71038266D01*
X85208609Y-71038266D01*
X85399085Y-71085885D01*
X85494323Y-71133504D01*
X85589561Y-71228742D01*
X85637180Y-71371600D01*
X85637180Y-71609695D01*
X84637180Y-70704933D02*
X84637180Y-70085885D01*
X85018133Y-70419219D01*
X85018133Y-70276361D01*
X85065752Y-70181123D01*
X85113371Y-70133504D01*
X85208609Y-70085885D01*
X85446704Y-70085885D01*
X85541942Y-70133504D01*
X85589561Y-70181123D01*
X85637180Y-70276361D01*
X85637180Y-70562076D01*
X85589561Y-70657314D01*
X85541942Y-70704933D01*
X72367366Y-68117980D02*
X72367366Y-68832266D01*
X72319747Y-68975123D01*
X72224509Y-69070361D01*
X72081652Y-69117980D01*
X71986414Y-69117980D01*
X73367366Y-69117980D02*
X72795938Y-69117980D01*
X73081652Y-69117980D02*
X73081652Y-68117980D01*
X72986414Y-68260838D01*
X72891176Y-68356076D01*
X72795938Y-68403695D01*
X141811180Y-68924466D02*
X141334990Y-69257800D01*
X141811180Y-69495895D02*
X140811180Y-69495895D01*
X140811180Y-69114942D01*
X140858800Y-69019704D01*
X140906419Y-68972085D01*
X141001657Y-68924466D01*
X141144514Y-68924466D01*
X141239752Y-68972085D01*
X141287371Y-69019704D01*
X141334990Y-69114942D01*
X141334990Y-69495895D01*
X141811180Y-67972085D02*
X141811180Y-68543514D01*
X141811180Y-68257800D02*
X140811180Y-68257800D01*
X140954038Y-68353038D01*
X141049276Y-68448276D01*
X141096895Y-68543514D01*
X159269133Y-79428780D02*
X158935800Y-78952590D01*
X158697704Y-79428780D02*
X158697704Y-78428780D01*
X159078657Y-78428780D01*
X159173895Y-78476400D01*
X159221514Y-78524019D01*
X159269133Y-78619257D01*
X159269133Y-78762114D01*
X159221514Y-78857352D01*
X159173895Y-78904971D01*
X159078657Y-78952590D01*
X158697704Y-78952590D01*
X159650085Y-78524019D02*
X159697704Y-78476400D01*
X159792942Y-78428780D01*
X160031038Y-78428780D01*
X160126276Y-78476400D01*
X160173895Y-78524019D01*
X160221514Y-78619257D01*
X160221514Y-78714495D01*
X160173895Y-78857352D01*
X159602466Y-79428780D01*
X160221514Y-79428780D01*
X97523580Y-84748666D02*
X97047390Y-85082000D01*
X97523580Y-85320095D02*
X96523580Y-85320095D01*
X96523580Y-84939142D01*
X96571200Y-84843904D01*
X96618819Y-84796285D01*
X96714057Y-84748666D01*
X96856914Y-84748666D01*
X96952152Y-84796285D01*
X96999771Y-84843904D01*
X97047390Y-84939142D01*
X97047390Y-85320095D01*
X96523580Y-84415333D02*
X96523580Y-83796285D01*
X96904533Y-84129619D01*
X96904533Y-83986761D01*
X96952152Y-83891523D01*
X96999771Y-83843904D01*
X97095009Y-83796285D01*
X97333104Y-83796285D01*
X97428342Y-83843904D01*
X97475961Y-83891523D01*
X97523580Y-83986761D01*
X97523580Y-84272476D01*
X97475961Y-84367714D01*
X97428342Y-84415333D01*
X130416580Y-84697866D02*
X129940390Y-85031200D01*
X130416580Y-85269295D02*
X129416580Y-85269295D01*
X129416580Y-84888342D01*
X129464200Y-84793104D01*
X129511819Y-84745485D01*
X129607057Y-84697866D01*
X129749914Y-84697866D01*
X129845152Y-84745485D01*
X129892771Y-84793104D01*
X129940390Y-84888342D01*
X129940390Y-85269295D01*
X129749914Y-83840723D02*
X130416580Y-83840723D01*
X129368961Y-84078819D02*
X130083247Y-84316914D01*
X130083247Y-83697866D01*
X115573742Y-114127866D02*
X115621361Y-114175485D01*
X115668980Y-114318342D01*
X115668980Y-114413580D01*
X115621361Y-114556438D01*
X115526123Y-114651676D01*
X115430885Y-114699295D01*
X115240409Y-114746914D01*
X115097552Y-114746914D01*
X114907076Y-114699295D01*
X114811838Y-114651676D01*
X114716600Y-114556438D01*
X114668980Y-114413580D01*
X114668980Y-114318342D01*
X114716600Y-114175485D01*
X114764219Y-114127866D01*
X115097552Y-113556438D02*
X115049933Y-113651676D01*
X115002314Y-113699295D01*
X114907076Y-113746914D01*
X114859457Y-113746914D01*
X114764219Y-113699295D01*
X114716600Y-113651676D01*
X114668980Y-113556438D01*
X114668980Y-113365961D01*
X114716600Y-113270723D01*
X114764219Y-113223104D01*
X114859457Y-113175485D01*
X114907076Y-113175485D01*
X115002314Y-113223104D01*
X115049933Y-113270723D01*
X115097552Y-113365961D01*
X115097552Y-113556438D01*
X115145171Y-113651676D01*
X115192790Y-113699295D01*
X115288028Y-113746914D01*
X115478504Y-113746914D01*
X115573742Y-113699295D01*
X115621361Y-113651676D01*
X115668980Y-113556438D01*
X115668980Y-113365961D01*
X115621361Y-113270723D01*
X115573742Y-113223104D01*
X115478504Y-113175485D01*
X115288028Y-113175485D01*
X115192790Y-113223104D01*
X115145171Y-113270723D01*
X115097552Y-113365961D01*
X148276980Y-122654533D02*
X148991266Y-122654533D01*
X149134123Y-122702152D01*
X149229361Y-122797390D01*
X149276980Y-122940247D01*
X149276980Y-123035485D01*
X148610314Y-121749771D02*
X149276980Y-121749771D01*
X148229361Y-121987866D02*
X148943647Y-122225961D01*
X148943647Y-121606914D01*
X140296980Y-101969866D02*
X139820790Y-102303200D01*
X140296980Y-102541295D02*
X139296980Y-102541295D01*
X139296980Y-102160342D01*
X139344600Y-102065104D01*
X139392219Y-102017485D01*
X139487457Y-101969866D01*
X139630314Y-101969866D01*
X139725552Y-102017485D01*
X139773171Y-102065104D01*
X139820790Y-102160342D01*
X139820790Y-102541295D01*
X139296980Y-101065104D02*
X139296980Y-101541295D01*
X139773171Y-101588914D01*
X139725552Y-101541295D01*
X139677933Y-101446057D01*
X139677933Y-101207961D01*
X139725552Y-101112723D01*
X139773171Y-101065104D01*
X139868409Y-101017485D01*
X140106504Y-101017485D01*
X140201742Y-101065104D01*
X140249361Y-101112723D01*
X140296980Y-101207961D01*
X140296980Y-101446057D01*
X140249361Y-101541295D01*
X140201742Y-101588914D01*
X147699161Y-107210733D02*
X147746780Y-107067876D01*
X147746780Y-106829780D01*
X147699161Y-106734542D01*
X147651542Y-106686923D01*
X147556304Y-106639304D01*
X147461066Y-106639304D01*
X147365828Y-106686923D01*
X147318209Y-106734542D01*
X147270590Y-106829780D01*
X147222971Y-107020257D01*
X147175352Y-107115495D01*
X147127733Y-107163114D01*
X147032495Y-107210733D01*
X146937257Y-107210733D01*
X146842019Y-107163114D01*
X146794400Y-107115495D01*
X146746780Y-107020257D01*
X146746780Y-106782161D01*
X146794400Y-106639304D01*
X146746780Y-106305971D02*
X147746780Y-106067876D01*
X147032495Y-105877400D01*
X147746780Y-105686923D01*
X146746780Y-105448828D01*
X147746780Y-104544066D02*
X147746780Y-105115495D01*
X147746780Y-104829780D02*
X146746780Y-104829780D01*
X146889638Y-104925019D01*
X146984876Y-105020257D01*
X147032495Y-105115495D01*
M02*
