G04 #@! TF.GenerationSoftware,KiCad,Pcbnew,(5.1.5)-3*
G04 #@! TF.CreationDate,2021-07-13T11:34:20-04:00*
G04 #@! TF.ProjectId,royerPSU,726f7965-7250-4535-952e-6b696361645f,rev?*
G04 #@! TF.SameCoordinates,Original*
G04 #@! TF.FileFunction,Legend,Bot*
G04 #@! TF.FilePolarity,Positive*
%FSLAX46Y46*%
G04 Gerber Fmt 4.6, Leading zero omitted, Abs format (unit mm)*
G04 Created by KiCad (PCBNEW (5.1.5)-3) date 2021-07-13 11:34:20*
%MOMM*%
%LPD*%
G04 APERTURE LIST*
%ADD10C,0.300000*%
G04 APERTURE END LIST*
D10*
X80653342Y-83564171D02*
X81510485Y-83564171D01*
X81081914Y-83564171D02*
X81081914Y-82064171D01*
X81224771Y-82278457D01*
X81367628Y-82421314D01*
X81510485Y-82492742D01*
X78081914Y-82135600D02*
X78224771Y-82064171D01*
X78439057Y-82064171D01*
X78653342Y-82135600D01*
X78796200Y-82278457D01*
X78867628Y-82421314D01*
X78939057Y-82707028D01*
X78939057Y-82921314D01*
X78867628Y-83207028D01*
X78796200Y-83349885D01*
X78653342Y-83492742D01*
X78439057Y-83564171D01*
X78296200Y-83564171D01*
X78081914Y-83492742D01*
X78010485Y-83421314D01*
X78010485Y-82921314D01*
X78296200Y-82921314D01*
X77367628Y-83564171D02*
X77367628Y-82064171D01*
X76510485Y-83564171D01*
X76510485Y-82064171D01*
X75796200Y-83564171D02*
X75796200Y-82064171D01*
X75439057Y-82064171D01*
X75224771Y-82135600D01*
X75081914Y-82278457D01*
X75010485Y-82421314D01*
X74939057Y-82707028D01*
X74939057Y-82921314D01*
X75010485Y-83207028D01*
X75081914Y-83349885D01*
X75224771Y-83492742D01*
X75439057Y-83564171D01*
X75796200Y-83564171D01*
X81510485Y-84757028D02*
X81439057Y-84685600D01*
X81296200Y-84614171D01*
X80939057Y-84614171D01*
X80796200Y-84685600D01*
X80724771Y-84757028D01*
X80653342Y-84899885D01*
X80653342Y-85042742D01*
X80724771Y-85257028D01*
X81581914Y-86114171D01*
X80653342Y-86114171D01*
X78867628Y-86114171D02*
X78867628Y-84614171D01*
X78296200Y-84614171D01*
X78153342Y-84685600D01*
X78081914Y-84757028D01*
X78010485Y-84899885D01*
X78010485Y-85114171D01*
X78081914Y-85257028D01*
X78153342Y-85328457D01*
X78296200Y-85399885D01*
X78867628Y-85399885D01*
X77153342Y-86114171D02*
X77296200Y-86042742D01*
X77367628Y-85899885D01*
X77367628Y-84614171D01*
X75939057Y-86114171D02*
X75939057Y-85328457D01*
X76010485Y-85185600D01*
X76153342Y-85114171D01*
X76439057Y-85114171D01*
X76581914Y-85185600D01*
X75939057Y-86042742D02*
X76081914Y-86114171D01*
X76439057Y-86114171D01*
X76581914Y-86042742D01*
X76653342Y-85899885D01*
X76653342Y-85757028D01*
X76581914Y-85614171D01*
X76439057Y-85542742D01*
X76081914Y-85542742D01*
X75939057Y-85471314D01*
X75439057Y-85114171D02*
X74867628Y-85114171D01*
X75224771Y-84614171D02*
X75224771Y-85899885D01*
X75153342Y-86042742D01*
X75010485Y-86114171D01*
X74867628Y-86114171D01*
X73796200Y-86042742D02*
X73939057Y-86114171D01*
X74224771Y-86114171D01*
X74367628Y-86042742D01*
X74439057Y-85899885D01*
X74439057Y-85328457D01*
X74367628Y-85185600D01*
X74224771Y-85114171D01*
X73939057Y-85114171D01*
X73796200Y-85185600D01*
X73724771Y-85328457D01*
X73724771Y-85471314D01*
X74439057Y-85614171D01*
X71153342Y-86114171D02*
X72010485Y-86114171D01*
X71581914Y-86114171D02*
X71581914Y-84614171D01*
X71724771Y-84828457D01*
X71867628Y-84971314D01*
X72010485Y-85042742D01*
X70224771Y-84614171D02*
X70081914Y-84614171D01*
X69939057Y-84685600D01*
X69867628Y-84757028D01*
X69796200Y-84899885D01*
X69724771Y-85185600D01*
X69724771Y-85542742D01*
X69796200Y-85828457D01*
X69867628Y-85971314D01*
X69939057Y-86042742D01*
X70081914Y-86114171D01*
X70224771Y-86114171D01*
X70367628Y-86042742D01*
X70439057Y-85971314D01*
X70510485Y-85828457D01*
X70581914Y-85542742D01*
X70581914Y-85185600D01*
X70510485Y-84899885D01*
X70439057Y-84757028D01*
X70367628Y-84685600D01*
X70224771Y-84614171D01*
X68796200Y-84614171D02*
X68653342Y-84614171D01*
X68510485Y-84685600D01*
X68439057Y-84757028D01*
X68367628Y-84899885D01*
X68296200Y-85185600D01*
X68296200Y-85542742D01*
X68367628Y-85828457D01*
X68439057Y-85971314D01*
X68510485Y-86042742D01*
X68653342Y-86114171D01*
X68796200Y-86114171D01*
X68939057Y-86042742D01*
X69010485Y-85971314D01*
X69081914Y-85828457D01*
X69153342Y-85542742D01*
X69153342Y-85185600D01*
X69081914Y-84899885D01*
X69010485Y-84757028D01*
X68939057Y-84685600D01*
X68796200Y-84614171D01*
X67867628Y-84614171D02*
X67367628Y-86114171D01*
X66867628Y-84614171D01*
X81581914Y-87164171D02*
X80653342Y-87164171D01*
X81153342Y-87735600D01*
X80939057Y-87735600D01*
X80796200Y-87807028D01*
X80724771Y-87878457D01*
X80653342Y-88021314D01*
X80653342Y-88378457D01*
X80724771Y-88521314D01*
X80796200Y-88592742D01*
X80939057Y-88664171D01*
X81367628Y-88664171D01*
X81510485Y-88592742D01*
X81581914Y-88521314D01*
X78224771Y-88664171D02*
X78224771Y-87878457D01*
X78296200Y-87735600D01*
X78439057Y-87664171D01*
X78724771Y-87664171D01*
X78867628Y-87735600D01*
X78224771Y-88592742D02*
X78367628Y-88664171D01*
X78724771Y-88664171D01*
X78867628Y-88592742D01*
X78939057Y-88449885D01*
X78939057Y-88307028D01*
X78867628Y-88164171D01*
X78724771Y-88092742D01*
X78367628Y-88092742D01*
X78224771Y-88021314D01*
X76867628Y-87664171D02*
X76867628Y-88664171D01*
X77510485Y-87664171D02*
X77510485Y-88449885D01*
X77439057Y-88592742D01*
X77296200Y-88664171D01*
X77081914Y-88664171D01*
X76939057Y-88592742D01*
X76867628Y-88521314D01*
X75510485Y-88664171D02*
X75510485Y-87164171D01*
X75510485Y-88592742D02*
X75653342Y-88664171D01*
X75939057Y-88664171D01*
X76081914Y-88592742D01*
X76153342Y-88521314D01*
X76224771Y-88378457D01*
X76224771Y-87949885D01*
X76153342Y-87807028D01*
X76081914Y-87735600D01*
X75939057Y-87664171D01*
X75653342Y-87664171D01*
X75510485Y-87735600D01*
X74796200Y-88664171D02*
X74796200Y-87664171D01*
X74796200Y-87164171D02*
X74867628Y-87235600D01*
X74796200Y-87307028D01*
X74724771Y-87235600D01*
X74796200Y-87164171D01*
X74796200Y-87307028D01*
X73867628Y-88664171D02*
X74010485Y-88592742D01*
X74081914Y-88521314D01*
X74153342Y-88378457D01*
X74153342Y-87949885D01*
X74081914Y-87807028D01*
X74010485Y-87735600D01*
X73867628Y-87664171D01*
X73653342Y-87664171D01*
X73510485Y-87735600D01*
X73439057Y-87807028D01*
X73367628Y-87949885D01*
X73367628Y-88378457D01*
X73439057Y-88521314D01*
X73510485Y-88592742D01*
X73653342Y-88664171D01*
X73867628Y-88664171D01*
X71367628Y-88664171D02*
X71510485Y-88592742D01*
X71581914Y-88521314D01*
X71653342Y-88378457D01*
X71653342Y-87949885D01*
X71581914Y-87807028D01*
X71510485Y-87735600D01*
X71367628Y-87664171D01*
X71153342Y-87664171D01*
X71010485Y-87735600D01*
X70939057Y-87807028D01*
X70867628Y-87949885D01*
X70867628Y-88378457D01*
X70939057Y-88521314D01*
X71010485Y-88592742D01*
X71153342Y-88664171D01*
X71367628Y-88664171D01*
X69581914Y-87664171D02*
X69581914Y-88664171D01*
X70224771Y-87664171D02*
X70224771Y-88449885D01*
X70153342Y-88592742D01*
X70010485Y-88664171D01*
X69796200Y-88664171D01*
X69653342Y-88592742D01*
X69581914Y-88521314D01*
X69081914Y-87664171D02*
X68510485Y-87664171D01*
X68867628Y-87164171D02*
X68867628Y-88449885D01*
X68796200Y-88592742D01*
X68653342Y-88664171D01*
X68510485Y-88664171D01*
X80796200Y-90214171D02*
X80796200Y-91214171D01*
X81153342Y-89642742D02*
X81510485Y-90714171D01*
X80581914Y-90714171D01*
X78867628Y-91214171D02*
X78867628Y-89714171D01*
X78867628Y-90428457D02*
X78010485Y-90428457D01*
X78010485Y-91214171D02*
X78010485Y-89714171D01*
X76724771Y-91142742D02*
X76867628Y-91214171D01*
X77153342Y-91214171D01*
X77296200Y-91142742D01*
X77367628Y-90999885D01*
X77367628Y-90428457D01*
X77296200Y-90285600D01*
X77153342Y-90214171D01*
X76867628Y-90214171D01*
X76724771Y-90285600D01*
X76653342Y-90428457D01*
X76653342Y-90571314D01*
X77367628Y-90714171D01*
X75367628Y-91214171D02*
X75367628Y-90428457D01*
X75439057Y-90285600D01*
X75581914Y-90214171D01*
X75867628Y-90214171D01*
X76010485Y-90285600D01*
X75367628Y-91142742D02*
X75510485Y-91214171D01*
X75867628Y-91214171D01*
X76010485Y-91142742D01*
X76081914Y-90999885D01*
X76081914Y-90857028D01*
X76010485Y-90714171D01*
X75867628Y-90642742D01*
X75510485Y-90642742D01*
X75367628Y-90571314D01*
X74867628Y-90214171D02*
X74296200Y-90214171D01*
X74653342Y-89714171D02*
X74653342Y-90999885D01*
X74581914Y-91142742D01*
X74439057Y-91214171D01*
X74296200Y-91214171D01*
X73224771Y-91142742D02*
X73367628Y-91214171D01*
X73653342Y-91214171D01*
X73796200Y-91142742D01*
X73867628Y-90999885D01*
X73867628Y-90428457D01*
X73796200Y-90285600D01*
X73653342Y-90214171D01*
X73367628Y-90214171D01*
X73224771Y-90285600D01*
X73153342Y-90428457D01*
X73153342Y-90571314D01*
X73867628Y-90714171D01*
X72510485Y-91214171D02*
X72510485Y-90214171D01*
X72510485Y-90499885D02*
X72439057Y-90357028D01*
X72367628Y-90285600D01*
X72224771Y-90214171D01*
X72081914Y-90214171D01*
X70153342Y-89714171D02*
X70010485Y-89714171D01*
X69867628Y-89785600D01*
X69796200Y-89857028D01*
X69724771Y-89999885D01*
X69653342Y-90285600D01*
X69653342Y-90642742D01*
X69724771Y-90928457D01*
X69796200Y-91071314D01*
X69867628Y-91142742D01*
X70010485Y-91214171D01*
X70153342Y-91214171D01*
X70296200Y-91142742D01*
X70367628Y-91071314D01*
X70439057Y-90928457D01*
X70510485Y-90642742D01*
X70510485Y-90285600D01*
X70439057Y-89999885D01*
X70367628Y-89857028D01*
X70296200Y-89785600D01*
X70153342Y-89714171D01*
X69224771Y-89714171D02*
X68724771Y-91214171D01*
X68224771Y-89714171D01*
X80724771Y-92264171D02*
X81439057Y-92264171D01*
X81510485Y-92978457D01*
X81439057Y-92907028D01*
X81296200Y-92835600D01*
X80939057Y-92835600D01*
X80796200Y-92907028D01*
X80724771Y-92978457D01*
X80653342Y-93121314D01*
X80653342Y-93478457D01*
X80724771Y-93621314D01*
X80796200Y-93692742D01*
X80939057Y-93764171D01*
X81296200Y-93764171D01*
X81439057Y-93692742D01*
X81510485Y-93621314D01*
X78867628Y-93764171D02*
X78867628Y-92264171D01*
X78867628Y-92978457D02*
X78010485Y-92978457D01*
X78010485Y-93764171D02*
X78010485Y-92264171D01*
X76724771Y-93692742D02*
X76867628Y-93764171D01*
X77153342Y-93764171D01*
X77296200Y-93692742D01*
X77367628Y-93549885D01*
X77367628Y-92978457D01*
X77296200Y-92835600D01*
X77153342Y-92764171D01*
X76867628Y-92764171D01*
X76724771Y-92835600D01*
X76653342Y-92978457D01*
X76653342Y-93121314D01*
X77367628Y-93264171D01*
X75367628Y-93764171D02*
X75367628Y-92978457D01*
X75439057Y-92835600D01*
X75581914Y-92764171D01*
X75867628Y-92764171D01*
X76010485Y-92835600D01*
X75367628Y-93692742D02*
X75510485Y-93764171D01*
X75867628Y-93764171D01*
X76010485Y-93692742D01*
X76081914Y-93549885D01*
X76081914Y-93407028D01*
X76010485Y-93264171D01*
X75867628Y-93192742D01*
X75510485Y-93192742D01*
X75367628Y-93121314D01*
X74867628Y-92764171D02*
X74296200Y-92764171D01*
X74653342Y-92264171D02*
X74653342Y-93549885D01*
X74581914Y-93692742D01*
X74439057Y-93764171D01*
X74296200Y-93764171D01*
X73224771Y-93692742D02*
X73367628Y-93764171D01*
X73653342Y-93764171D01*
X73796200Y-93692742D01*
X73867628Y-93549885D01*
X73867628Y-92978457D01*
X73796200Y-92835600D01*
X73653342Y-92764171D01*
X73367628Y-92764171D01*
X73224771Y-92835600D01*
X73153342Y-92978457D01*
X73153342Y-93121314D01*
X73867628Y-93264171D01*
X72510485Y-93764171D02*
X72510485Y-92764171D01*
X72510485Y-93049885D02*
X72439057Y-92907028D01*
X72367628Y-92835600D01*
X72224771Y-92764171D01*
X72081914Y-92764171D01*
X69796200Y-92264171D02*
X70081914Y-92264171D01*
X70224771Y-92335600D01*
X70296200Y-92407028D01*
X70439057Y-92621314D01*
X70510485Y-92907028D01*
X70510485Y-93478457D01*
X70439057Y-93621314D01*
X70367628Y-93692742D01*
X70224771Y-93764171D01*
X69939057Y-93764171D01*
X69796200Y-93692742D01*
X69724771Y-93621314D01*
X69653342Y-93478457D01*
X69653342Y-93121314D01*
X69724771Y-92978457D01*
X69796200Y-92907028D01*
X69939057Y-92835600D01*
X70224771Y-92835600D01*
X70367628Y-92907028D01*
X70439057Y-92978457D01*
X70510485Y-93121314D01*
X69224771Y-92264171D02*
X68724771Y-93764171D01*
X68224771Y-92264171D01*
M02*
