M48
; DRILL file {KiCad (5.1.5)-3} date 6/12/2021 7:59:38 PM
; FORMAT={-:-/ absolute / inch / decimal}
; #@! TF.CreationDate,2021-06-12T19:59:38-04:00
; #@! TF.GenerationSoftware,Kicad,Pcbnew,(5.1.5)-3
; #@! TF.FileFunction,Plated,1,2,PTH
FMAT,2
INCH
T1C0.0256
T2C0.0299
T3C0.0300
T4C0.0315
T5C0.0433
T6C0.0472
T7C0.0500
T8C0.0551
T9C0.0630
T10C0.0660
T11C0.1260
%
G90
G05
T1
X2.958Y-2.589
X2.958Y-2.639
X2.85Y-4.9
X2.85Y-4.95
T2
X4.492Y-2.5073
X4.492Y-2.901
X3.212Y-2.554
X3.212Y-2.9477
X4.235Y-2.502
X4.235Y-2.8957
T3
X3.553Y-4.252
X3.553Y-4.852
X3.753Y-4.252
X3.753Y-4.852
X4.053Y-4.252
X4.053Y-4.852
X4.253Y-4.252
X4.253Y-4.852
X4.353Y-4.552
X5.986Y-3.9873
X5.986Y-4.1841
X5.986Y-4.381
T4
X6.127Y-3.016
X6.427Y-3.016
X5.472Y-2.557
X5.472Y-2.857
X5.599Y-3.858
X5.599Y-4.158
T5
X5.949Y-4.728
X5.949Y-4.828
X5.949Y-4.928
T6
X4.927Y-2.5951
X4.927Y-2.792
X5.898Y-3.272
X5.898Y-3.5673
X6.4958Y-3.661
X6.646Y-3.661
X6.646Y-3.9358
X6.8962Y-3.3362
X5.925Y-2.6301
X5.925Y-2.827
X4.662Y-3.27
X4.662Y-3.5653
X3.636Y-2.5521
X3.636Y-2.749
X4.979Y-3.9453
X4.979Y-5.028
X6.67Y-2.6581
X6.67Y-2.855
X3.396Y-3.263
X3.396Y-3.5583
T7
X6.592Y-4.705
X6.792Y-4.705
T8
X5.273Y-2.928
X5.273Y-3.728
X3.978Y-2.93
X3.978Y-3.73
T9
X6.4958Y-3.511
X6.4958Y-3.811
X6.821Y-3.811
X7.021Y-3.511
T10
X6.592Y-4.555
X6.592Y-4.855
T11
X2.85Y-5.3
T0
M30
