G04 #@! TF.GenerationSoftware,KiCad,Pcbnew,(5.1.5)-3*
G04 #@! TF.CreationDate,2021-07-13T11:34:20-04:00*
G04 #@! TF.ProjectId,royerPSU,726f7965-7250-4535-952e-6b696361645f,rev?*
G04 #@! TF.SameCoordinates,Original*
G04 #@! TF.FileFunction,Copper,L2,Bot*
G04 #@! TF.FilePolarity,Positive*
%FSLAX46Y46*%
G04 Gerber Fmt 4.6, Leading zero omitted, Abs format (unit mm)*
G04 Created by KiCad (PCBNEW (5.1.5)-3) date 2021-07-13 11:34:20*
%MOMM*%
%LPD*%
G04 APERTURE LIST*
%ADD10C,0.350000*%
%ADD11O,1.600000X1.600000*%
%ADD12C,1.600000*%
%ADD13O,1.000000X1.000000*%
%ADD14R,1.000000X1.000000*%
%ADD15C,2.550000*%
%ADD16C,0.100000*%
%ADD17C,5.600000*%
%ADD18C,3.600000*%
%ADD19C,2.540000*%
%ADD20C,3.175000*%
%ADD21C,2.400000*%
%ADD22C,1.800000*%
%ADD23R,2.400000X2.400000*%
%ADD24C,1.524000*%
%ADD25R,2.000000X2.000000*%
%ADD26C,2.000000*%
%ADD27C,2.800000*%
%ADD28O,2.800000X2.800000*%
%ADD29C,2.100000*%
%ADD30R,1.800000X1.800000*%
%ADD31C,0.500000*%
%ADD32C,1.000000*%
%ADD33C,1.200000*%
G04 APERTURE END LIST*
D10*
X105719271Y-114892638D02*
X106766890Y-114892638D01*
X106766890Y-112692638D01*
X104043080Y-114892638D02*
X104043080Y-113740257D01*
X104147842Y-113530733D01*
X104357366Y-113425971D01*
X104776414Y-113425971D01*
X104985938Y-113530733D01*
X104043080Y-114787876D02*
X104252604Y-114892638D01*
X104776414Y-114892638D01*
X104985938Y-114787876D01*
X105090700Y-114578352D01*
X105090700Y-114368828D01*
X104985938Y-114159304D01*
X104776414Y-114054542D01*
X104252604Y-114054542D01*
X104043080Y-113949780D01*
X103204985Y-113425971D02*
X102681176Y-114892638D01*
X102157366Y-113425971D02*
X102681176Y-114892638D01*
X102890700Y-115416447D01*
X102995461Y-115521209D01*
X103204985Y-115625971D01*
X101004985Y-114892638D02*
X101214509Y-114787876D01*
X101319271Y-114683114D01*
X101424033Y-114473590D01*
X101424033Y-113845019D01*
X101319271Y-113635495D01*
X101214509Y-113530733D01*
X101004985Y-113425971D01*
X100690700Y-113425971D01*
X100481176Y-113530733D01*
X100376414Y-113635495D01*
X100271652Y-113845019D01*
X100271652Y-114473590D01*
X100376414Y-114683114D01*
X100481176Y-114787876D01*
X100690700Y-114892638D01*
X101004985Y-114892638D01*
X98385938Y-113425971D02*
X98385938Y-114892638D01*
X99328795Y-113425971D02*
X99328795Y-114578352D01*
X99224033Y-114787876D01*
X99014509Y-114892638D01*
X98700223Y-114892638D01*
X98490700Y-114787876D01*
X98385938Y-114683114D01*
X97652604Y-113425971D02*
X96814509Y-113425971D01*
X97338319Y-112692638D02*
X97338319Y-114578352D01*
X97233557Y-114787876D01*
X97024033Y-114892638D01*
X96814509Y-114892638D01*
X94404985Y-114892638D02*
X94404985Y-112692638D01*
X94404985Y-113530733D02*
X94195461Y-113425971D01*
X93776414Y-113425971D01*
X93566890Y-113530733D01*
X93462128Y-113635495D01*
X93357366Y-113845019D01*
X93357366Y-114473590D01*
X93462128Y-114683114D01*
X93566890Y-114787876D01*
X93776414Y-114892638D01*
X94195461Y-114892638D01*
X94404985Y-114787876D01*
X92624033Y-113425971D02*
X92100223Y-114892638D01*
X91576414Y-113425971D02*
X92100223Y-114892638D01*
X92309747Y-115416447D01*
X92414509Y-115521209D01*
X92624033Y-115625971D01*
X87804985Y-114683114D02*
X87909747Y-114787876D01*
X88224033Y-114892638D01*
X88433557Y-114892638D01*
X88747842Y-114787876D01*
X88957366Y-114578352D01*
X89062128Y-114368828D01*
X89166890Y-113949780D01*
X89166890Y-113635495D01*
X89062128Y-113216447D01*
X88957366Y-113006923D01*
X88747842Y-112797400D01*
X88433557Y-112692638D01*
X88224033Y-112692638D01*
X87909747Y-112797400D01*
X87804985Y-112902161D01*
X86862128Y-114892638D02*
X86862128Y-112692638D01*
X85919271Y-114892638D02*
X85919271Y-113740257D01*
X86024033Y-113530733D01*
X86233557Y-113425971D01*
X86547842Y-113425971D01*
X86757366Y-113530733D01*
X86862128Y-113635495D01*
X84871652Y-114892638D02*
X84871652Y-113425971D01*
X84871652Y-113845019D02*
X84766890Y-113635495D01*
X84662128Y-113530733D01*
X84452604Y-113425971D01*
X84243080Y-113425971D01*
X83509747Y-114892638D02*
X83509747Y-113425971D01*
X83509747Y-112692638D02*
X83614509Y-112797400D01*
X83509747Y-112902161D01*
X83404985Y-112797400D01*
X83509747Y-112692638D01*
X83509747Y-112902161D01*
X82566890Y-114787876D02*
X82357366Y-114892638D01*
X81938319Y-114892638D01*
X81728795Y-114787876D01*
X81624033Y-114578352D01*
X81624033Y-114473590D01*
X81728795Y-114264066D01*
X81938319Y-114159304D01*
X82252604Y-114159304D01*
X82462128Y-114054542D01*
X82566890Y-113845019D01*
X82566890Y-113740257D01*
X82462128Y-113530733D01*
X82252604Y-113425971D01*
X81938319Y-113425971D01*
X81728795Y-113530733D01*
X79214509Y-112692638D02*
X78690699Y-114892638D01*
X78271652Y-113321209D01*
X77852604Y-114892638D01*
X77328795Y-112692638D01*
X76490699Y-114892638D02*
X76490699Y-113425971D01*
X76490699Y-112692638D02*
X76595461Y-112797400D01*
X76490699Y-112902161D01*
X76385938Y-112797400D01*
X76490699Y-112692638D01*
X76490699Y-112902161D01*
X75128795Y-114892638D02*
X75338319Y-114787876D01*
X75443080Y-114578352D01*
X75443080Y-112692638D01*
X73976414Y-114892638D02*
X74185938Y-114787876D01*
X74290699Y-114578352D01*
X74290699Y-112692638D01*
X73138319Y-114892638D02*
X73138319Y-113425971D01*
X73138319Y-112692638D02*
X73243080Y-112797400D01*
X73138319Y-112902161D01*
X73033557Y-112797400D01*
X73138319Y-112692638D01*
X73138319Y-112902161D01*
X71147842Y-114892638D02*
X71147842Y-113740257D01*
X71252604Y-113530733D01*
X71462128Y-113425971D01*
X71881176Y-113425971D01*
X72090699Y-113530733D01*
X71147842Y-114787876D02*
X71357366Y-114892638D01*
X71881176Y-114892638D01*
X72090699Y-114787876D01*
X72195461Y-114578352D01*
X72195461Y-114368828D01*
X72090699Y-114159304D01*
X71881176Y-114054542D01*
X71357366Y-114054542D01*
X71147842Y-113949780D01*
X70100223Y-114892638D02*
X70100223Y-113425971D01*
X70100223Y-113635495D02*
X69995461Y-113530733D01*
X69785938Y-113425971D01*
X69471652Y-113425971D01*
X69262128Y-113530733D01*
X69157366Y-113740257D01*
X69157366Y-114892638D01*
X69157366Y-113740257D02*
X69052604Y-113530733D01*
X68843080Y-113425971D01*
X68528795Y-113425971D01*
X68319271Y-113530733D01*
X68214509Y-113740257D01*
X68214509Y-114892638D01*
X67271652Y-114787876D02*
X67062128Y-114892638D01*
X66643080Y-114892638D01*
X66433557Y-114787876D01*
X66328795Y-114578352D01*
X66328795Y-114473590D01*
X66433557Y-114264066D01*
X66643080Y-114159304D01*
X66957366Y-114159304D01*
X67166890Y-114054542D01*
X67271652Y-113845019D01*
X67271652Y-113740257D01*
X67166890Y-113530733D01*
X66957366Y-113425971D01*
X66643080Y-113425971D01*
X66433557Y-113530733D01*
X106871652Y-116552161D02*
X106766890Y-116447400D01*
X106557366Y-116342638D01*
X106033557Y-116342638D01*
X105824033Y-116447400D01*
X105719271Y-116552161D01*
X105614509Y-116761685D01*
X105614509Y-116971209D01*
X105719271Y-117285495D01*
X106976414Y-118542638D01*
X105614509Y-118542638D01*
X104252604Y-116342638D02*
X104043080Y-116342638D01*
X103833557Y-116447400D01*
X103728795Y-116552161D01*
X103624033Y-116761685D01*
X103519271Y-117180733D01*
X103519271Y-117704542D01*
X103624033Y-118123590D01*
X103728795Y-118333114D01*
X103833557Y-118437876D01*
X104043080Y-118542638D01*
X104252604Y-118542638D01*
X104462128Y-118437876D01*
X104566890Y-118333114D01*
X104671652Y-118123590D01*
X104776414Y-117704542D01*
X104776414Y-117180733D01*
X104671652Y-116761685D01*
X104566890Y-116552161D01*
X104462128Y-116447400D01*
X104252604Y-116342638D01*
X102681176Y-116552161D02*
X102576414Y-116447400D01*
X102366890Y-116342638D01*
X101843080Y-116342638D01*
X101633557Y-116447400D01*
X101528795Y-116552161D01*
X101424033Y-116761685D01*
X101424033Y-116971209D01*
X101528795Y-117285495D01*
X102785938Y-118542638D01*
X101424033Y-118542638D01*
X99328795Y-118542638D02*
X100585938Y-118542638D01*
X99957366Y-118542638D02*
X99957366Y-116342638D01*
X100166890Y-116656923D01*
X100376414Y-116866447D01*
X100585938Y-116971209D01*
X93776414Y-118542638D02*
X94509747Y-117495019D01*
X95033557Y-118542638D02*
X95033557Y-116342638D01*
X94195461Y-116342638D01*
X93985938Y-116447400D01*
X93881176Y-116552161D01*
X93776414Y-116761685D01*
X93776414Y-117075971D01*
X93881176Y-117285495D01*
X93985938Y-117390257D01*
X94195461Y-117495019D01*
X95033557Y-117495019D01*
X91995461Y-118437876D02*
X92204985Y-118542638D01*
X92624033Y-118542638D01*
X92833557Y-118437876D01*
X92938319Y-118228352D01*
X92938319Y-117390257D01*
X92833557Y-117180733D01*
X92624033Y-117075971D01*
X92204985Y-117075971D01*
X91995461Y-117180733D01*
X91890700Y-117390257D01*
X91890700Y-117599780D01*
X92938319Y-117809304D01*
X91157366Y-117075971D02*
X90633557Y-118542638D01*
X90109747Y-117075971D01*
X89271652Y-118542638D02*
X89271652Y-117075971D01*
X89271652Y-116342638D02*
X89376414Y-116447400D01*
X89271652Y-116552161D01*
X89166890Y-116447400D01*
X89271652Y-116342638D01*
X89271652Y-116552161D01*
X88328795Y-118437876D02*
X88119271Y-118542638D01*
X87700223Y-118542638D01*
X87490700Y-118437876D01*
X87385938Y-118228352D01*
X87385938Y-118123590D01*
X87490700Y-117914066D01*
X87700223Y-117809304D01*
X88014509Y-117809304D01*
X88224033Y-117704542D01*
X88328795Y-117495019D01*
X88328795Y-117390257D01*
X88224033Y-117180733D01*
X88014509Y-117075971D01*
X87700223Y-117075971D01*
X87490700Y-117180733D01*
X86443080Y-118542638D02*
X86443080Y-117075971D01*
X86443080Y-116342638D02*
X86547842Y-116447400D01*
X86443080Y-116552161D01*
X86338319Y-116447400D01*
X86443080Y-116342638D01*
X86443080Y-116552161D01*
X85081176Y-118542638D02*
X85290700Y-118437876D01*
X85395461Y-118333114D01*
X85500223Y-118123590D01*
X85500223Y-117495019D01*
X85395461Y-117285495D01*
X85290700Y-117180733D01*
X85081176Y-117075971D01*
X84766890Y-117075971D01*
X84557366Y-117180733D01*
X84452604Y-117285495D01*
X84347842Y-117495019D01*
X84347842Y-118123590D01*
X84452604Y-118333114D01*
X84557366Y-118437876D01*
X84766890Y-118542638D01*
X85081176Y-118542638D01*
X83404985Y-117075971D02*
X83404985Y-118542638D01*
X83404985Y-117285495D02*
X83300223Y-117180733D01*
X83090700Y-117075971D01*
X82776414Y-117075971D01*
X82566890Y-117180733D01*
X82462128Y-117390257D01*
X82462128Y-118542638D01*
X81414509Y-118333114D02*
X81309747Y-118437876D01*
X81414509Y-118542638D01*
X81519271Y-118437876D01*
X81414509Y-118333114D01*
X81414509Y-118542638D01*
X81414509Y-117180733D02*
X81309747Y-117285495D01*
X81414509Y-117390257D01*
X81519271Y-117285495D01*
X81414509Y-117180733D01*
X81414509Y-117390257D01*
X77538319Y-118542638D02*
X78795461Y-118542638D01*
X78166890Y-118542638D02*
X78166890Y-116342638D01*
X78376414Y-116656923D01*
X78585938Y-116866447D01*
X78795461Y-116971209D01*
D11*
X176606200Y-76708000D03*
D12*
X174066200Y-76708000D03*
D11*
X180263800Y-63398400D03*
D12*
X177723800Y-63398400D03*
D13*
X72390000Y-125730000D03*
D14*
X72390000Y-124460000D03*
D15*
X72466200Y-64872200D03*
G04 #@! TA.AperFunction,ComponentPad*
D16*
G36*
X73515705Y-68398404D02*
G01*
X73539973Y-68402004D01*
X73563772Y-68407965D01*
X73586871Y-68416230D01*
X73609050Y-68426720D01*
X73630093Y-68439332D01*
X73649799Y-68453947D01*
X73667977Y-68470423D01*
X73684453Y-68488601D01*
X73699068Y-68508307D01*
X73711680Y-68529350D01*
X73722170Y-68551529D01*
X73730435Y-68574628D01*
X73736396Y-68598427D01*
X73739996Y-68622695D01*
X73741200Y-68647199D01*
X73741200Y-70697201D01*
X73739996Y-70721705D01*
X73736396Y-70745973D01*
X73730435Y-70769772D01*
X73722170Y-70792871D01*
X73711680Y-70815050D01*
X73699068Y-70836093D01*
X73684453Y-70855799D01*
X73667977Y-70873977D01*
X73649799Y-70890453D01*
X73630093Y-70905068D01*
X73609050Y-70917680D01*
X73586871Y-70928170D01*
X73563772Y-70936435D01*
X73539973Y-70942396D01*
X73515705Y-70945996D01*
X73491201Y-70947200D01*
X71441199Y-70947200D01*
X71416695Y-70945996D01*
X71392427Y-70942396D01*
X71368628Y-70936435D01*
X71345529Y-70928170D01*
X71323350Y-70917680D01*
X71302307Y-70905068D01*
X71282601Y-70890453D01*
X71264423Y-70873977D01*
X71247947Y-70855799D01*
X71233332Y-70836093D01*
X71220720Y-70815050D01*
X71210230Y-70792871D01*
X71201965Y-70769772D01*
X71196004Y-70745973D01*
X71192404Y-70721705D01*
X71191200Y-70697201D01*
X71191200Y-68647199D01*
X71192404Y-68622695D01*
X71196004Y-68598427D01*
X71201965Y-68574628D01*
X71210230Y-68551529D01*
X71220720Y-68529350D01*
X71233332Y-68508307D01*
X71247947Y-68488601D01*
X71264423Y-68470423D01*
X71282601Y-68453947D01*
X71302307Y-68439332D01*
X71323350Y-68426720D01*
X71345529Y-68416230D01*
X71368628Y-68407965D01*
X71392427Y-68402004D01*
X71416695Y-68398404D01*
X71441199Y-68397200D01*
X73491201Y-68397200D01*
X73515705Y-68398404D01*
G37*
G04 #@! TD.AperFunction*
D17*
X72390000Y-134620000D03*
D18*
X72390000Y-134620000D03*
D19*
X172516800Y-119507000D03*
D20*
X167436800Y-115697000D03*
D19*
X167436800Y-119507000D03*
D20*
X167436800Y-123317000D03*
D21*
X178333400Y-89179400D03*
D22*
X175163400Y-84739400D03*
D21*
X173253400Y-96799400D03*
D22*
X168808400Y-99969400D03*
D21*
X164993400Y-96799400D03*
D22*
X164993400Y-92989400D03*
X168808400Y-92989400D03*
D23*
X164993400Y-89179400D03*
D24*
X108026200Y-123240800D03*
X102946200Y-123240800D03*
X95326200Y-123240800D03*
X90246200Y-123240800D03*
X110566200Y-115620800D03*
X90246200Y-108000800D03*
X95326200Y-108000800D03*
X102946200Y-108000800D03*
X108026200Y-108000800D03*
D21*
X92354400Y-64824600D03*
D23*
X92354400Y-69824600D03*
X125145800Y-70916800D03*
D21*
X125145800Y-65916800D03*
D23*
X86258400Y-82880200D03*
D21*
X86258400Y-90380200D03*
X150495000Y-66805800D03*
D23*
X150495000Y-71805800D03*
X167767000Y-70891400D03*
D21*
X167767000Y-65891400D03*
X118414800Y-90558000D03*
D23*
X118414800Y-83058000D03*
X149809200Y-83108800D03*
D21*
X149809200Y-90608800D03*
D25*
X114096800Y-73685400D03*
D26*
X114096800Y-63685400D03*
X107569000Y-73550800D03*
D25*
X107569000Y-63550800D03*
X81584800Y-64871600D03*
D26*
X81584800Y-74871600D03*
D11*
X138988800Y-72567800D03*
D12*
X138988800Y-64947800D03*
X163245800Y-76606400D03*
D11*
X155625800Y-76606400D03*
D27*
X101041200Y-94742000D03*
D28*
X101041200Y-74422000D03*
X133934200Y-74371200D03*
D27*
X133934200Y-94691200D03*
D21*
X126466600Y-100211200D03*
X126466600Y-127711200D03*
D29*
X151104600Y-125171200D03*
X151104600Y-122631200D03*
X151104600Y-120091200D03*
D12*
X142214600Y-105613200D03*
D11*
X142214600Y-97993200D03*
D24*
X152044400Y-101277400D03*
X152044400Y-106277400D03*
X152044400Y-111277400D03*
D30*
X180721000Y-77165200D03*
D22*
X180721000Y-74625200D03*
X180848000Y-67487800D03*
D30*
X180848000Y-70027800D03*
D31*
X142214600Y-97815400D02*
X142214600Y-97993200D01*
D32*
X132080000Y-132080000D02*
X129540000Y-134620000D01*
X142214600Y-97993200D02*
X132080000Y-108127800D01*
X129540000Y-134620000D02*
X72390000Y-134620000D01*
X132080000Y-108127800D02*
X132080000Y-132080000D01*
X134620000Y-137160000D02*
X72390000Y-137160000D01*
X151104600Y-125171200D02*
X146608800Y-125171200D01*
X72390000Y-137160000D02*
X72390000Y-134620000D01*
X146608800Y-125171200D02*
X134620000Y-137160000D01*
D31*
X132080000Y-132080000D02*
X131394200Y-132080000D01*
X168808400Y-92989400D02*
X167767000Y-70891400D01*
D33*
X161099800Y-96799400D02*
X163296344Y-96799400D01*
X163296344Y-96799400D02*
X164993400Y-96799400D01*
X149809200Y-85508800D02*
X161099800Y-96799400D01*
X149809200Y-83108800D02*
X149809200Y-85508800D01*
D31*
X118033800Y-107899200D02*
X107823000Y-107899200D01*
X126466600Y-116332000D02*
X118033800Y-107899200D01*
X126466600Y-127711200D02*
X126466600Y-116332000D01*
D32*
X166852600Y-120091200D02*
X167436800Y-119507000D01*
X151104600Y-120091200D02*
X166852600Y-120091200D01*
D33*
X151009199Y-91808799D02*
X151016199Y-91808799D01*
X149809200Y-90608800D02*
X151009199Y-91808799D01*
X159176800Y-99969400D02*
X168808400Y-99969400D01*
X151016199Y-91808799D02*
X159176800Y-99969400D01*
X148609201Y-89408801D02*
X144323601Y-89408801D01*
X149809200Y-90608800D02*
X148609201Y-89408801D01*
X144323601Y-89408801D02*
X143738600Y-88823800D01*
X145157200Y-66805800D02*
X150495000Y-66805800D01*
X143738600Y-68224400D02*
X145157200Y-66805800D01*
X143738600Y-88823800D02*
X143738600Y-68224400D01*
D31*
X174066200Y-72190600D02*
X167767000Y-65891400D01*
X174066200Y-76708000D02*
X174066200Y-72190600D01*
M02*
